<?xml version="1.0" encoding="utf-8"?>
<!-- Generator: Adobe Illustrator 23.0.3, SVG Export Plug-In . SVG Version: 6.00 Build 0)  -->
<svg version="1.1" xmlns="http://www.w3.org/2000/svg" xmlns:xlink="http://www.w3.org/1999/xlink" x="0px" y="0px"
	 viewBox="0 0 919.1 673.4" style="enable-background:new 0 0 919.1 673.4;" xml:space="preserve">
<style type="text/css">
	.st0{display:none;}
	.st1{display:inline;}
	.st2{fill:url(#SVGID_1_);}
	.st3{fill:url(#SVGID_2_);}
	.st4{fill:url(#SVGID_3_);}
	.st5{fill:url(#SVGID_4_);}
	.st6{fill:url(#SVGID_5_);}
	.st7{fill:url(#SVGID_6_);}
	.st8{fill:url(#SVGID_7_);}
	.st9{fill:url(#SVGID_8_);}
	.st10{fill:#4D4D4D;}
	.st11{fill:#EE6C30;}
	.st12{opacity:0.1;fill:#4D4D4D;enable-background:new    ;}
	.st13{fill:#FFFFFF;}
	.st14{fill:#F2F2F2;}
	.st15{fill:#FEFEFE;}
	.st16{fill:#F9AC3F;}
	.st17{opacity:0.41;fill:url(#SVGID_9_);enable-background:new    ;}
	.st18{fill:url(#SVGID_10_);}
	.st19{opacity:0.38;fill:url(#SVGID_11_);enable-background:new    ;}
	.st20{opacity:0.62;fill:#A3A4A6;enable-background:new    ;}
	.st21{fill:none;}
	.st22{fill:#F9AF42;}
	.st23{fill:url(#SVGID_12_);}
	.st24{opacity:0.64;fill:url(#SVGID_13_);enable-background:new    ;}
	.st25{fill:#A3A4A6;}
	.st26{fill:url(#SVGID_14_);}
	.st27{fill:url(#SVGID_15_);}
	.st28{fill:#A3A3A3;}
	.st29{opacity:0.5;fill:url(#SVGID_16_);enable-background:new    ;}
	.st30{opacity:0.5;fill:url(#SVGID_17_);enable-background:new    ;}
	.st31{opacity:0.18;fill:#4D4D4D;enable-background:new    ;}
	.st32{fill:url(#SVGID_18_);}
	.st33{fill:url(#SVGID_19_);}
	.st34{fill:url(#SVGID_20_);}
	.st35{fill:url(#SVGID_21_);}
	.st36{fill:url(#SVGID_22_);}
	.st37{fill:url(#SVGID_23_);}
	.st38{fill:url(#SVGID_24_);}
	.st39{fill:url(#SVGID_25_);}
	.st40{fill:url(#SVGID_26_);}
	.st41{fill:url(#SVGID_27_);}
	.st42{fill:url(#SVGID_28_);}
</style>
<g id="Layer_2" class="st0">
	<rect class="st1" width="919.1" height="673.4"/>
</g>
<g id="Layer_1">
	<g>
		<g>
			
				<linearGradient id="SVGID_1_" gradientUnits="userSpaceOnUse" x1="348.771" y1="420.1704" x2="589.9694" y2="454.0685" gradientTransform="matrix(1 0 0 -1 0 701.9915)">
				<stop  offset="0.1028" style="stop-color:#2E2E2E"/>
				<stop  offset="0.2161" style="stop-color:#333333"/>
				<stop  offset="0.357" style="stop-color:#434343"/>
				<stop  offset="0.5126" style="stop-color:#5C5C5C"/>
				<stop  offset="0.6787" style="stop-color:#7F7F7F"/>
				<stop  offset="0.8512" style="stop-color:#ACACAC"/>
				<stop  offset="1" style="stop-color:#D9D9D9"/>
			</linearGradient>
			<path class="st2" d="M590.9,258.2c-0.2-4.4-0.8-10.4-1.7-14.7c-1.2-5.8-3-13.6-5-19.2c-1.9-5.5-5-12.6-7.7-17.7
				c-3.7-6.8-10.3-18-22.6-30.1c-4-3.9-9.8-8.7-14.3-12c-4.5-3.2-10.9-7.1-15.9-9.6c-5-2.5-11.8-5.3-17.1-7.1
				c-2.7-0.9-6.4-1.9-9.1-2.6c-2.2-0.6-5.3-1.1-7.6-1.6c-5.5-1-11.4-1.5-17.6-1.7c-3.8-0.1-9.8,0-17.1,0.8c-0.5,0.1-1,0.1-1.6,0.2
				c0,0,0,0-0.1,0c-0.2,0-0.3,0.1-0.5,0.1c-0.1,0-0.2,0-0.3,0c-3.9,0.6-9.2,1.5-15,3.1c-5.7,1.6-11.2,3.5-16.8,5.9
				c-4.4,1.9-10.1,4.8-14.1,7.3c-2.1,1.3-5,3.1-7,4.6c-2.6,1.8-6,4.4-8.4,6.5c-4.2,3.7-9.6,8.9-13.3,13.1c-1.2,1.4-2.5,2.9-3.8,4.6
				c-0.1,0.1-0.3,0.3-0.4,0.5c-1,1.3-2,2.6-3,4c-0.1,0.1-0.2,0.3-0.3,0.5c-1,1.3-1.9,2.6-2.7,3.9c-0.3,0.4-0.5,0.8-0.8,1.2
				c-0.1,0.1-0.2,0.2-0.2,0.3c-0.7,1.1-1.3,2.1-2,3.2c-0.1,0.2-0.2,0.3-0.3,0.5c-0.7,1.2-1.4,2.4-2,3.5c-0.1,0.2-0.2,0.3-0.3,0.5
				c-0.7,1.3-1.3,2.5-1.9,3.7c-0.1,0.2-0.2,0.3-0.2,0.5c-0.8,1.6-1.6,3.2-2.2,4.8c-0.5,1-0.9,2-1.3,3c-2.4,5.9-3.9,11-5,15
				c-1.5,5.6-2.9,13.2-3.5,19c-0.2,2.1-0.4,4.5-0.5,7v0c0,0.1,0,0.3,0,0.5v0.2c0,0.2,0,0.4,0,0.6c0,1-0.1,2-0.1,3c0,0.3,0,0.5,0,0.7
				v3c0,0.2,0,0.4,0,0.5c0,0.2,0,0.5,0,0.7c0,0.3,0,0.6,0,0.9c0,0.8,0,1.6,0.1,2.4c0.1,2.4,0.3,5.2,0.6,7.9c0.1,0.5,0.1,1,0.2,1.5
				c0.2,1.2,0.4,2.4,0.6,3.6c0,0.1,0.1,0.2,0.1,0.3c0.1,0.5,0.2,1,0.3,1.4c0.3,1.5,0.6,3,1,4.7c0.1,0.6,0.3,1.3,0.5,2
				c1.1,4.3,2.4,8.9,3.5,12.6c0.5,1.4,1.1,2.9,1.8,4.4c6-1.3,12.1-2.1,18.2-3.2c5.9-1.1,11.4-3.4,17.3-4.4c3.1-0.5,5.4,1.4,6.3,3.8
				c0.3-0.1,0.5-0.2,0.8-0.3c2.4-1,4.9-2,7.4-3c8-3.4,16.3-7.4,24.8-11.8c2.2-1.2,4.5-2.4,6.8-3.7c0.2-0.1,0.3-0.2,0.5-0.3
				c0.6-0.3,1.1-0.6,1.7-0.9l-1.5-2.9l5.1-2.9l1-1.1c0,0,0.5-1.5,0.8-2l2-5.2l-5,2.3c-1.3,0.6-2.5,1.2-3.7,1.8
				c-0.1,0.1-0.2,0.1-0.3,0.2c-0.2,0.1-0.3,0.2-0.5,0.3c-1,0.6-2,1.1-3.1,1.8c-1.2,0.8-2.5,1.7-3.9,2.6c-0.5,0.4-1,0.7-1.4,1
				l-6.6,4.9c1.5-4.3,3.4-9.5,3.4-9.5l0-0.3l0.2-0.3l0.1-0.2c0.2-0.7,0.5-1.4,0.7-2.1l0.3-0.9c1-2.6,2-4.9,2.9-7l0,0
				c0.2-0.5,0.5-0.9,0.6-1.3c0.2-0.4,0.4-0.7,0.5-1.1c2.6-5.3,5.5-10.3,8.9-14.9l0.5-0.5c-0.1,0-0.1,0-0.1-0.1
				c0.5-0.6,0.9-1.2,1.4-1.8c0.5-0.6,0.9-1.2,1.5-1.8c4.3-5.2,9.3-10.1,15.4-15.2c0.1-0.1,0.3-0.2,0.4-0.3c1.1-1,2.4-1.9,3.6-2.9
				c0.1-0.1,0.3-0.2,0.4-0.3c0.8-0.6,1.6-1.2,2.5-1.8c0.3-0.3,0.6-0.5,1-0.7c2.8-2.1,5.8-4.2,9-6.3l4.2-2.8l-0.3,5.1
				c-0.1,1.5-0.3,3.2-0.6,4.8c-0.1,0.4-0.1,0.8-0.2,1.2c-0.4,2.1-0.8,4.2-1.2,6.1l-1.2,6l4.5-3c9.6-6.3,19.8-11.1,29.8-13.9
				c0.3-0.1,0.6-0.2,1-0.3c2-0.6,4-1,6.1-1.4c0.3-0.1,0.5-0.1,0.8-0.1c1-0.2,2-0.3,2.9-0.5c0.6-0.1,1.3-0.2,1.9-0.3l4.9-0.6l0,0
				l0.4,0l1.5-0.2h0l0.1,0l1.4,0c2.8-0.2,5.7-0.3,8.6-0.3c0.2,0,0.4,0,0.7,0h0c0.3,0,0.5,0,0.8,0c2.8,0,5.6,0.1,8.6,0.3h0
				c0.2,0,0.4,0,0.6,0c1.3,0.1,2.7,0.1,4.2,0.3c1,0.1,2,0.2,2.9,0.3c0.2,0,0.4,0,0.6,0.1c2,0.2,3.8,0.4,5.4,0.6
				c1.3,0.2,2.3,0.3,3.3,0.4h0c0.4,0.1,0.7,0.1,1.1,0.2c-0.2,1.5-0.5,2.9-0.8,4c-0.3,1.2-0.7,2.5-1,3.6c-0.5,1.7-1,3.4-1.5,4.9
				c-2.1,6.8-4.1,12.1-5.8,16.2c-0.2,0.4-0.3,0.8-0.5,1.2c-2.3,5.4-4,8.3-4.6,8.9l-0.1,0.2l-0.1,0.2c-0.6,1.2-1.4,2.5-2.1,3.7
				c-0.5,0.8-1,1.6-1.5,2.4c-1.5,2.4-3.1,4.9-4.9,7.3c-0.1,0.2-0.2,0.3-0.3,0.5c-2.2,3.1-4.7,6.1-7.3,8.9c-0.3,0.3-0.6,0.6-0.8,0.9
				c-2,2-4,3.9-6.2,5.6h0c-0.1,0.1-0.2,0.2-0.4,0.3c-1,0.8-2.1,1.6-3.1,2.3l-0.3,0.2l-0.1,0.1c-1.1,0.8-2.3,1.6-3.4,2.3
				c-0.1,0.1-0.1,0.1-0.2,0.1l-0.6,0.4l-3.6,2.3l4.8,1.4c0.9,0.3,1.9,0.6,2.9,0.8c0.2,0.1,2.8,0.7,5.6,1.5h0l1.5,1.5l-3.9,2.2
				l-0.1,0.1c-0.7,0.6-1.3,1.1-2,1.6c-0.9,0.7-1.8,1.3-2.8,2c-0.8,0.5-1.5,1-2.3,1.5c-0.1,0-0.1-0.1-0.1-0.1v0.2
				c-7,4.2-15.1,7.2-24.6,9.2c-0.1,0-0.3,0.1-0.5,0.1c-0.7,0.2-1.4,0.3-2.1,0.5l-0.2,0l-0.3,0.1l-0.5,0.1l-0.3,0l-0.4,0.1
				c-2.2,0.5-4.5,0.9-6.8,1.2c-0.2,0.1-0.3,0.1-0.5,0.1c-4,0.5-8.3,0.9-13.3,1.1c-0.4,0-0.8,0-1.2,0c-1,0-2.1,0.1-3.1,0.1
				c-0.4,0-0.8,0-1.2,0c-1.6,0-3.2,0-4.9,0c-3.2,0-6.6,0-10.2-0.1l-8.4-0.1l1.8-1.1l0.8-0.5l1-0.7l0.7-0.4l2.5-1.6l0.4-0.2
				c0,0,0.1,0,0.1-0.1c0.3-0.2,0.6-0.3,0.8-0.5c0.3-0.2,0.7-0.4,1-0.6c0.7-0.5,1.5-0.8,2.2-1.2c0.5-0.3,1.1-0.6,1.6-0.8
				c1.7-0.8,3.3-1.6,4.8-2.2l-0.7-4.4c-0.5,0-1.1-0.1-1.6-0.1l-0.3,0l-0.7,0.1l-3.5,0.8l-3.5,1.6l-1.1-2c-1.5,0.7-3.1,1.5-4.6,2.1
				c-0.3,0.2-0.7,0.3-1,0.5c-2.2,1-4.4,2-6.5,2.9c-0.4,0.2-0.8,0.4-1.1,0.5c-0.1,0.1-0.3,0.1-0.5,0.2c-0.3,0.1-0.6,0.3-0.9,0.4
				c-0.4,0.2-0.7,0.3-1.1,0.5c-0.7,0.3-1.5,0.6-2.2,0.9c-0.7,0.3-1.3,0.6-2,0.9c-3.5,1.4-6.9,2.8-10.3,4.1c-0.2,0.1-0.3,0.1-0.5,0.2
				c-0.9,0.3-1.8,0.7-2.7,1c-2.5,0.9-4.9,1.8-7.3,2.6c-6.2,2.1-12.3,3.9-18.1,5.5c-0.2,0.1-0.3,0.1-0.5,0.1
				c-0.4,0.1-0.8,0.2-1.3,0.3c-1.3,0.3-2.6,0.7-3.9,1c-0.4,0.1-0.8,0.2-1.2,0.3c-1.6,0.4-3.1,0.7-4.6,1c-0.2,0.1-0.3,0.1-0.5,0.1
				c-2.9,0.6-5.8,1.1-8.6,1.6c-0.2,0-0.4,0.1-0.6,0.1c-0.7,0.1-1.3,0.2-2,0.3c1.2,1.8,2.5,3.6,3.7,5.1c0.7,0.9,1.5,1.9,2.4,2.9
				c0.2,0.2,0.3,0.4,0.5,0.6c1.5,1.8,3.1,3.7,4.7,5.5c0.1,0.2,0.3,0.3,0.5,0.5c1.5,1.7,3,3.2,4.4,4.5c0.1,0.1,0.1,0.1,0.2,0.2
				c0.4,0.4,0.8,0.8,1.2,1.1c1.7,1.6,3.5,3.3,5.1,4.6c0.1,0.1,0.3,0.2,0.4,0.3c0,0,0.1,0.1,0.1,0.1c4.4,3.4,10.3,7.9,15,10.8
				c3.7,2.3,8.7,5,13.1,7c0.2,0.1,0.3,0.2,0.5,0.2c1,0.5,2,0.9,3,1.2c2.6,1,6.1,2.4,9,3.3c0.4,0.1,0.8,0.3,1.2,0.4c0,0,0.1,0,0.1,0
				c4.5,1.3,10.5,2.7,15.1,3.6c0.7,0.1,1.4,0.3,2.1,0.4c0.5,0.1,1,0.1,1.5,0.2c1.7,0.2,3.4,0.4,4.9,0.6c4.6,0.5,8,0.5,9.2,0.6
				c1,0,2.2,0,3.4,0c0.2,0,0.3,0,0.5,0c0.6,0,1.1,0,1.6,0c0.7,0,2.6-0.1,3.7-0.1c1.9-0.1,3.9-0.2,6.3-0.5c0.2,0,0.4,0,0.6-0.1
				c1.1-0.1,2.2-0.3,3.5-0.4c0.7-0.1,1.4-0.2,2.1-0.3c0.5-0.1,1-0.1,1.5-0.2c3.5-0.6,6.3-1.2,7.2-1.5c2.9-0.7,3.5-0.9,6.9-1.8
				c1.1-0.3,2.6-0.8,3.8-1.2c0.2-0.1,0.3-0.1,0.5-0.2h0c1.8-0.6,3.6-1.2,5.6-2.1c0.2-0.1,0.3-0.1,0.5-0.2c1.3-0.5,2.8-1.1,4.3-1.8
				c0.4-0.2,0.8-0.4,1.2-0.6c1.1-0.5,2.2-1,3.3-1.6c0.1,0,0.1,0,0.1-0.1c0.1-0.1,0.3-0.1,0.4-0.2c0.1-0.1,0.3-0.1,0.5-0.2
				c0.1-0.1,0.2-0.1,0.3-0.2c4.5-2.3,10.3-5.7,14.4-8.7c1.3-0.9,2.8-2,4.3-3.2c0.8-0.6,1.7-1.3,2.4-1.9c0.6-0.5,1.2-1,1.7-1.4
				c2.2-1.8,4.9-4.3,6.9-6.3c4-3.9,8.8-9.7,12.3-14c3.5-4.4,7.4-10.9,10.1-15.8c2.7-5,5.5-12,7.6-17.3c2.7-6.7,5.8-20.9,6.3-28.1
				C590.8,272,591.1,264.1,590.9,258.2z"/>
		</g>
		
			<linearGradient id="SVGID_2_" gradientUnits="userSpaceOnUse" x1="346.32" y1="435.8471" x2="589.63" y2="435.8471" gradientTransform="matrix(1 0 0 -1 0 701.9915)">
			<stop  offset="0.3039" style="stop-color:#EE6C30"/>
			<stop  offset="0.3728" style="stop-color:#EF7239"/>
			<stop  offset="0.4838" style="stop-color:#F18350"/>
			<stop  offset="0.6232" style="stop-color:#F49F77"/>
			<stop  offset="0.7854" style="stop-color:#F8C5AD"/>
			<stop  offset="0.9649" style="stop-color:#FEF5F1"/>
			<stop  offset="1" style="stop-color:#FFFFFF"/>
		</linearGradient>
		<path class="st3" d="M496.1,146.4c0.1,0,0.2,0,0.3,0.1L440.8,202h-76.6c0.1-0.2,0.2-0.3,0.3-0.5h76.2l55.3-55.3
			C496,146.3,496,146.3,496.1,146.4z M491,145.3c0.5,0.1,1,0.2,1.4,0.3l-52.5,52.5h-73.3c0.3-0.4,0.5-0.8,0.8-1.2h71.9L491,145.3z
			 M485.9,144.4c0.2,0,0.4,0.1,0.6,0.1L438,193h-67.8c0.1-0.2,0.2-0.3,0.3-0.5h67.3L485.9,144.4z M474,143.2h0.5v7.7l-37.6,37.6
			h-63.3c0.1-0.2,0.3-0.3,0.4-0.5h62.8l37.3-37.3V143.2z M441.4,146c1.5-0.3,2.9-0.6,4.3-0.9v0l-23,23h-28.4
			c1.1-0.9,2.2-1.7,3.3-2.4h24.1l19.1-19.1L441.4,146z M442.3,205.6l21.2,21.2c-0.1,0.1-0.3,0.2-0.4,0.3l-21.1-21h-80.3
			c0.1-0.1,0.2-0.3,0.3-0.5H442.3z M543.8,169.9l-2.6,2.6v19.4l-29.3,29.3c-0.3,0.1-0.6,0.2-1,0.3l29.8-29.8v-19.4l2.7-2.7
			C543.6,169.7,543.7,169.8,543.8,169.9z M439.4,209.8l20.2,20.2c-0.1,0.1-0.3,0.2-0.4,0.3l-20-20h-79.6c0.1-0.1,0.2-0.3,0.3-0.5
			L439.4,209.8L439.4,209.8z M556.7,181.8l-37.9,37.9c-0.3,0-0.6,0.1-0.8,0.1l38.4-38.4C556.4,181.6,556.5,181.7,556.7,181.8z
			 M446.8,204.1l20.2,20.2c-0.3,0.3-0.7,0.5-1,0.7l-20.1-20.1l-1.5-1.5l0.9-0.8L446.8,204.1z M529.1,188.4l-1.5,1.5l-36.3,36.3
			h-12.1c0.1-0.4,0.1-0.8,0.2-1.2h11.4l37.5-37.5L529.1,188.4z M448.4,199.1h24.2v0.5h-24.2V199.1z M451.3,196.2h24.2v0.5h-24.2
			V196.2z M454.1,193.4h24.2v0.5h-24.2V193.4z M457,190.5h24.2v0.5H457V190.5z M459.9,187.7H484v0.5h-24.2V187.7z M462.7,184.8h24.2
			v0.5h-24.2V184.8z M465.6,182h24.2v0.5h-24.2V182z M505.2,148.9c0.4,0.1,0.8,0.3,1.2,0.4l-23,23l-0.9-0.9l22.6-22.6
			C505.1,148.9,505.2,148.9,505.2,148.9z M386.3,330.8v26.3c-0.4-0.4-0.8-0.8-1.2-1.2v-24.8C385.4,331,385.9,330.9,386.3,330.8z
			 M440.9,248.9c0,0,0.1,0.1,0.1,0.1l-46.7,46.7l-8.1,8.1v6.7c-0.4,0.1-0.8,0.3-1.2,0.4v-7.6l8.9-8.9l47.8-47.8l0.6,0.6
			C441.8,247.8,441.4,248.3,440.9,248.9z M437.5,223.3v0.5h-18.8l-34.4,34.4h-26.4l-11.5,11.5h0c0-0.2,0-0.5,0-0.7l11.3-11.3h26.4
			l34.4-34.4L437.5,223.3L437.5,223.3z M439.7,220.3v0.5h-21.8L383.6,255h-26.8l-10.5,10.5c0-0.3,0-0.5,0-0.7l0.1-0.1l10.2-10.2
			h26.8l34.3-34.3L439.7,220.3L439.7,220.3z M403.9,230.3l-1,1l-20,20h-26.7l-9.8,9.8c0-0.3,0-0.5,0.1-0.7c0,0,0,0,0,0l9.5-9.5h26.7
			l19.8-19.8l1-1L403.9,230.3z M403,214.6v1.2h-44l-3.3,3.3l-0.4,0.4c0.4-1,0.8-2,1.3-3l0.4-0.4l1.5-1.5L403,214.6L403,214.6z
			 M469.2,321.4v48.6l-0.2,0.2l-4.1,4.1L451.3,388c-0.5-0.1-1-0.1-1.5-0.2l18.2-18.2v-48.1C468.4,321.4,468.8,321.4,469.2,321.4z
			 M490.4,387c-0.5,0.1-1,0.2-1.5,0.3l-0.8-0.8l-10.8-10.8l-5.1-5.1v-49.3c0.4,0,0.8,0,1.2,0v48.8L490.4,387z M545.5,349.2v11.8
			c-0.8,0.6-1.6,1.3-2.4,2v-12.7l-20-20v-21.4c0.1,0,0.1,0.1,0.1,0.1c0.8-0.5,1.5-1,2.3-1.5v21.8L545.5,349.2z M391.4,329.6
			c0.2-0.1,0.3-0.1,0.5-0.1v32.5c-0.2-0.1-0.3-0.2-0.5-0.4V329.6z M431,265.5c-0.2,0.4-0.4,0.9-0.6,1.3l-27.7,27.7v0l-6.2,6.1v0
			l-4.6,4.5v3.2c-0.2,0.1-0.3,0.1-0.5,0.2v-3.5l4.8-4.8l6.2-6.2L431,265.5z M420,320.4c0.2-0.1,0.3-0.1,0.5-0.2v59.2
			c-0.2-0.1-0.3-0.1-0.5-0.2V320.4z M438.2,276.5v10.6c-0.2,0.1-0.3,0.2-0.5,0.3v-10.6C437.9,276.6,438,276.6,438.2,276.5z
			 M447.1,319.6l-0.8,0.5h-17.5v-0.5H447.1z M452.5,316.2c-0.3,0.2-0.6,0.3-0.8,0.5h-19.5v-0.5H452.5z M456,312.8v0.5h-18.6
			c0.4-0.1,0.8-0.3,1.1-0.5H456z M459.4,309.4v0.5H445c0.3-0.1,0.7-0.3,1-0.5H459.4z M514.2,356.5v23.4c-0.2,0.1-0.4,0.1-0.5,0.2
			v-23.4L498,340.9v-22.7c0.2,0,0.3-0.1,0.5-0.1v22.6L514.2,356.5z M508,361.3v21c-0.2,0.1-0.3,0.1-0.5,0.2v-21.1H508z M519.8,349.9
			v27.5c-0.4,0.2-0.8,0.4-1.2,0.6v-28H519.8z M562.5,337.3h1.2v4.7c-0.4,0.5-0.8,1-1.2,1.5V337.3z M458.4,325v20.5l-24.7,24.7v13.9
			c-0.4-0.1-0.8-0.2-1.2-0.3v-14.1l24.7-24.7v-20L458.4,325L458.4,325z M420.4,154l-0.4,0.4l-1-0.9c0.2-0.1,0.3-0.2,0.5-0.2l0.4,0.4
			L420.4,154z M537.4,165.1c0.1,0.1,0.3,0.2,0.4,0.3l-10.8,10.8h-13l-34.3,34.3H465V210h14.6l34.3-34.3h12.9L537.4,165.1z
			 M483.6,388.1c-0.2,0-0.4,0.1-0.6,0.1l-11-11l-1-1l0.4-0.3L483.6,388.1z M469.9,385.7h0.5v3.3h-0.5V385.7z M364.8,264.9l-1,1
			l-16.5,16.5c-0.1-0.5-0.1-1-0.2-1.5l0.1-0.1l15.7-15.7l1-1L364.8,264.9z M423.6,228.5l-1,1l-35.4,35.4h-13L351,288.2V300
			c-0.2-0.6-0.3-1.1-0.5-1.7v-10.3l23.5-23.5h13l36.2-36.2L423.6,228.5z M380.4,308.2v4.2c-0.2,0.1-0.3,0.1-0.5,0.2v-4.3
			L380.4,308.2L380.4,308.2z M379.9,332.2c0.1,0,0.3,0,0.5-0.1v19.3c-0.2-0.2-0.3-0.3-0.5-0.5V332.2z M361.3,314.7l1.7,1.7
			c-0.2,0.1-0.4,0.1-0.6,0.1l-1.5-1.5l-0.8-0.8l0.3-0.4L361.3,314.7z M375.3,337.7v7.9c-0.2-0.2-0.3-0.4-0.5-0.6v-7.1l-4-4
			c0.2,0,0.4-0.1,0.6-0.1L375.3,337.7z M561.4,187.2l-30.9,30.9h0l-1.5,0.2l-0.4,0l32.1-32.1C560.9,186.6,561.2,186.9,561.4,187.2z
			 M487.4,320.1v42.3h-0.5v-42.2C487.1,320.2,487.2,320.2,487.4,320.1z M554.9,321.3v30.8c-0.2,0.2-0.3,0.4-0.5,0.5v-31.1l-20-20
			l-1.5-1.5h0l-6-6h-3.7l0.6-0.4c0.1,0,0.1-0.1,0.2-0.1h3.2L554.9,321.3z M586.8,239.4h-3.3l-25.7,25.7h-7c0.5-0.8,1-1.6,1.5-2.4
			h4.5l25.7-25.7h3.8C586.4,237.8,586.6,238.6,586.8,239.4z M566,193.1l-24.7,24.7h0c-0.3,0-0.5,0-0.7,0l25.1-25.1
			C565.8,192.8,565.9,192.9,566,193.1z M572.3,329.4c-0.1,0.1-0.2,0.3-0.3,0.5l-41.2-41.2c0.1-0.1,0.3-0.2,0.4-0.3h0L572.3,329.4z
			 M570.2,199.2L551.3,218c-0.2,0-0.5,0-0.6,0l19.2-19.3C570,198.9,570.1,199,570.2,199.2z M577,320.7c-0.2,0.4-0.4,0.8-0.6,1.1
			l-39.1-39.1c0.3-0.3,0.6-0.6,0.8-0.9L577,320.7z M589.4,272.5c0,0.2,0,0.3,0,0.5h-43.9c0.1-0.2,0.2-0.3,0.3-0.5H589.4z
			 M583.8,228.3h-3.4l-21.3,21.3c0.2-0.4,0.3-0.8,0.5-1.2l20.7-20.6h3.4C583.8,228,583.8,228.2,583.8,228.3z M574.7,206.9h-4
			L559,218.6c-0.2,0-0.4,0-0.6-0.1l12.1-12.1h4C574.5,206.6,574.7,206.7,574.7,206.9z M573.9,212.1v11.7l-8.5,8.5
			c0.5-1.6,1-3.2,1.5-4.9l4.5-4.5v-10.7H573.9z M589.6,264c0,0.4,0,0.8,0,1.2h-24.9V264H589.6z M548.5,280.3l32.1,32.2
			c-0.1,0.1-0.1,0.3-0.2,0.5l-32.3-32.3l-1-1l0.4-0.3L548.5,280.3z M589,279.8c0,0.1,0,0.3,0,0.5h-33v-0.5H589z M583.7,304.4
			c-0.1,0.5-0.3,0.9-0.4,1.3L564.7,287l-1-1l0.8-0.9l1,1L583.7,304.4z M588,286.8c0,0.2-0.1,0.3-0.1,0.5h-15.2v-0.5H588z
			 M582.3,293.7l3.5,3.5c0,0.2-0.1,0.4-0.1,0.6l-3.7-3.7l-1-1l0.3-0.4L582.3,293.7z M587.9,244.8c0,0.1,0.1,0.3,0.1,0.5h-1.9
			l-11.5,11.5l-1,1l-0.4-0.4l1-1l11.7-11.6L587.9,244.8L587.9,244.8z M588.8,251.1c0,0.1,0.1,0.3,0.1,0.5h-0.4l-7.4,7.4l-0.3-0.3
			l1-1l6.6-6.6H588.8z M580.8,219.9h-1v-1.2h0.5C580.5,219.1,580.7,219.5,580.8,219.9z M381.1,307c0.5,0.5,0.5,1.5,0,2s-1.5,0.5-2,0
			s-0.5-1.5,0-2S380.6,306.5,381.1,307z M360.2,312.5c0.8,0,1.4,0.6,1.4,1.4s-0.6,1.4-1.4,1.4s-1.4-0.6-1.4-1.4
			S359.4,312.5,360.2,312.5z M429.7,318.9c0.5,0.5,0.5,1.5,0,2s-1.5,0.5-2,0s-0.5-1.5,0-2C428.3,318.3,429.2,318.3,429.7,318.9z
			 M448.8,318.5l-0.7,0.4c0,0,0-0.1,0.1-0.1C448.3,318.7,448.5,318.6,448.8,318.5z M453.5,315.6c-0.3,0.2-0.7,0.4-1,0.6
			c-0.3,0.2-0.6,0.3-0.8,0.5c0,0-0.1,0-0.1,0.1l-0.4,0.2c-0.1-0.1-0.1-0.2-0.1-0.3c-0.1-0.2,0-0.3,0-0.5c0-0.3,0.2-0.5,0.3-0.7
			C452.1,315,453,315,453.5,315.6C453.5,315.6,453.5,315.6,453.5,315.6z M457.3,313.5c-0.5,0.3-1.1,0.5-1.6,0.8
			c-0.3,0-0.5-0.2-0.7-0.4c-0.2-0.2-0.3-0.5-0.4-0.8c-0.1-0.2-0.1-0.3,0-0.5c0-0.3,0.1-0.5,0.4-0.8c0.5-0.5,1.4-0.5,2,0
			C457.4,312.4,457.5,313,457.3,313.5z M459.5,308.2c0.8,0,1.4,0.6,1.4,1.4s-0.6,1.4-1.4,1.4s-1.4-0.6-1.4-1.4
			S458.7,308.2,459.5,308.2z M506.6,360.6c0.4-0.7,1.2-0.9,1.9-0.5s0.9,1.2,0.5,1.9s-1.2,0.9-1.9,0.5
			C506.4,362.2,506.2,361.3,506.6,360.6z M471.2,374.6c0.8,0,1.4,0.6,1.4,1.4s-0.6,1.4-1.4,1.4s-1.4-0.6-1.4-1.4
			S470.4,374.6,471.2,374.6z M471.2,385c0.5,0.5,0.5,1.5,0,2s-1.5,0.5-2,0s-0.5-1.5,0-2C469.8,384.4,470.7,384.4,471.2,385z
			 M476.1,388.8c-0.6,0.1-1.2,0.1-1.8,0.1h-0.1l0,0C474.8,388.4,475.6,388.3,476.1,388.8z M517.9,349.3c0.4-0.7,1.2-0.9,1.9-0.5
			s0.9,1.2,0.5,1.9s-1.2,0.9-1.9,0.5C517.8,350.8,517.6,350,517.9,349.3z M563.1,335.9c0.8,0,1.4,0.6,1.4,1.4s-0.6,1.4-1.4,1.4
			s-1.4-0.6-1.4-1.4S562.3,335.9,563.1,335.9z M433.5,316.2c0.1,0.2,0.1,0.3,0,0.5c0,0.3-0.1,0.5-0.3,0.8c-0.6,0.6-1.5,0.6-2,0
			c-0.4-0.4-0.5-0.9-0.3-1.4c0.7-0.3,1.3-0.6,2-0.9c0.1,0.1,0.2,0.1,0.3,0.2C433.4,315.7,433.5,315.9,433.5,316.2z M436.9,313.5
			c-0.1,0.2-0.2,0.4-0.3,0.6c-0.5,0.5-1.1,0.5-1.6,0.3c0.4-0.1,0.7-0.3,1.1-0.5C436.4,313.7,436.7,313.6,436.9,313.5z M440.6,219.5
			c0.5,0.5,0.5,1.5,0,2s-1.5,0.5-2,0s-0.5-1.5,0-2S440.1,218.9,440.6,219.5z M436.6,222.2c0.8,0,1.4,0.6,1.4,1.4s-0.6,1.4-1.4,1.4
			s-1.4-0.6-1.4-1.4S435.8,222.2,436.6,222.2z M404.7,229.2c0.5,0.5,0.5,1.5,0,2s-1.5,0.5-2,0s-0.5-1.5,0-2
			C403.3,228.6,404.1,228.6,404.7,229.2z M424.4,227.3c0.5,0.5,0.5,1.5,0,2s-1.5,0.5-2,0s-0.5-1.5,0-2S423.9,226.8,424.4,227.3z
			 M364.3,263.2c0.8,0,1.4,0.6,1.4,1.4s-0.6,1.4-1.4,1.4s-1.4-0.6-1.4-1.4S363.5,263.2,364.3,263.2z M421.2,155.2
			c-0.6,0.6-1.5,0.6-2,0c-0.3-0.3-0.5-0.7-0.4-1.1c0-0.3,0.1-0.5,0.3-0.7c0.2-0.1,0.3-0.2,0.5-0.2c0,0,0.1,0,0.1-0.1
			c0.3-0.1,0.5-0.2,0.8-0.3c0.2,0,0.5,0.1,0.6,0.3c0.1,0,0.1,0.1,0.1,0.1C421.8,153.7,421.8,154.6,421.2,155.2z M466.2,209
			c0.5,0.6,0.5,1.4,0,2s-1.5,0.6-2,0s-0.5-1.4,0-2C464.7,208.5,465.6,208.5,466.2,209z M443.1,201.5c0.8-1,2.2-1.1,3.2-0.3
			c1,0.8,1.1,2.2,0.3,3.2c-0.8,1-2.2,1.1-3.2,0.3C442.4,203.9,442.3,202.4,443.1,201.5z M527.8,185.9c1.2-0.5,2.5,0.1,3,1.2
			c0.5,1.2-0.1,2.5-1.2,3s-2.5-0.1-3-1.2C526.1,187.7,526.7,186.3,527.8,185.9z M482.9,169.6c1.3,0,2.3,1,2.3,2.3s-1,2.3-2.3,2.3
			s-2.3-1-2.3-2.3S481.7,169.6,482.9,169.6z M403.1,213.1c1.3,0,2.3,1,2.3,2.3s-1,2.3-2.3,2.3s-2.3-1-2.3-2.3
			S401.9,213.1,403.1,213.1z M443.7,245.4c-0.5,0.6-1,1.2-1.5,1.8c-0.5,0.6-0.9,1.1-1.4,1.8c-0.1-0.1-0.3-0.2-0.4-0.3
			c-0.1-0.1-0.3-0.3-0.4-0.5c-0.5-0.9-0.4-2,0.4-2.7C441.4,244.5,442.9,244.5,443.7,245.4z M457.8,322.7c1.3,0,2.3,1,2.3,2.3
			s-1,2.3-2.3,2.3s-2.3-1-2.3-2.3S456.5,322.7,457.8,322.7z M566.4,263.1c0.9,0.9,0.9,2.3,0,3.2c-0.9,0.9-2.3,0.9-3.2,0
			s-0.9-2.3,0-3.2C564,262.2,565.5,262.2,566.4,263.1z M565.1,283.4c0.9,0.9,0.9,2.3,0,3.2c-0.9,0.9-2.3,0.9-3.2,0s-0.9-2.3,0-3.2
			C562.8,282.6,564.3,282.6,565.1,283.4z M581.5,221.4c-0.9,0.6-2.1,0.6-2.9-0.2c-0.9-0.9-0.9-2.3,0-3.2c0.4-0.4,0.8-0.6,1.3-0.6
			c0.2,0.5,0.4,0.9,0.6,1.3c0.2,0.4,0.3,0.8,0.5,1.2C581,220.4,581.3,220.9,581.5,221.4z M567.6,219.6c-1-0.1-2-0.3-3.3-0.4
			c0.9-0.8,2.2-0.7,3.1,0.1C567.5,219.4,567.6,219.5,567.6,219.6z M528.3,305.4c0,1-0.3,1.9-1.1,2.6c-0.5,0.5-1.1,0.8-1.7,1
			c-0.8,0.2-1.5,0.1-2.3-0.2c0.8-0.5,1.5-1,2.3-1.5C526.4,306.7,527.4,306.1,528.3,305.4z M569.8,211.8c1.1-1.7,3.4-2.1,5-1
			c1.7,1.1,2.1,3.4,1,5c-1.1,1.7-3.4,2.1-5,1C569.1,215.7,568.7,213.5,569.8,211.8z M449.6,198.2c0.5,0.6,0.5,1.4,0,2s-1.5,0.6-2,0
			s-0.5-1.4,0-2S449,197.6,449.6,198.2z M451.4,194.9c0.8,0,1.4,0.6,1.4,1.4s-0.6,1.4-1.4,1.4s-1.4-0.6-1.4-1.4
			S450.7,194.9,451.4,194.9z M455.1,192.6c0.5,0.6,0.5,1.4,0,2s-1.5,0.6-2,0s-0.5-1.4,0-2C453.7,192.1,454.6,192.1,455.1,192.6z
			 M457,189.3c0.8,0,1.4,0.6,1.4,1.4s-0.6,1.4-1.4,1.4s-1.4-0.6-1.4-1.4S456.2,189.3,457,189.3z M459.9,186.5c0.8,0,1.4,0.6,1.4,1.4
			s-0.6,1.4-1.4,1.4s-1.4-0.6-1.4-1.4S459.1,186.5,459.9,186.5z M462.7,183.6c0.8,0,1.4,0.6,1.4,1.4s-0.6,1.4-1.4,1.4
			s-1.4-0.6-1.4-1.4S461.9,183.6,462.7,183.6z M466.6,181.2c0.5,0.6,0.5,1.4,0,2s-1.5,0.6-2,0s-0.5-1.4,0-2
			C465.1,180.6,466,180.6,466.6,181.2z M473.6,198.3c0.5,0.6,0.5,1.4,0,2s-1.5,0.6-2,0s-0.5-1.4,0-2S473.1,197.8,473.6,198.3z
			 M476.5,195.5c0.5,0.6,0.5,1.4,0,2s-1.5,0.6-2,0s-0.5-1.4,0-2C475,194.9,475.9,194.9,476.5,195.5z M479.3,192.6
			c0.5,0.6,0.5,1.4,0,2s-1.5,0.6-2,0s-0.5-1.4,0-2C477.9,192.1,478.8,192.1,479.3,192.6z M482.2,189.8c0.5,0.6,0.5,1.4,0,2
			s-1.5,0.6-2,0s-0.5-1.4,0-2S481.6,189.2,482.2,189.8z M485,186.9c0.5,0.6,0.5,1.4,0,2s-1.5,0.6-2,0s-0.5-1.4,0-2
			C483.6,186.3,484.5,186.3,485,186.9z M487.9,184c0.5,0.6,0.5,1.4,0,2s-1.5,0.6-2,0s-0.5-1.4,0-2S487.3,183.5,487.9,184z
			 M490.7,181.2c0.5,0.6,0.5,1.4,0,2s-1.5,0.6-2,0s-0.5-1.4,0-2C489.3,180.6,490.2,180.6,490.7,181.2z M487.3,361.3
			c0.8,0,1.4,0.6,1.4,1.4s-0.6,1.4-1.4,1.4s-1.4-0.6-1.4-1.4S486.5,361.3,487.3,361.3z M546.3,278.5c0.5-0.5,1.4-0.5,2,0
			s0.5,1.4,0,2s-1.4,0.5-2,0C545.8,280,545.8,279.1,546.3,278.5z M579.9,292.2c0.4-0.7,1.2-0.9,1.9-0.5s0.9,1.2,0.5,1.9
			c-0.4,0.7-1.2,0.9-1.9,0.5S579.5,292.9,579.9,292.2z M586.6,292c0.1-0.1,0.3-0.2,0.4-0.3c-0.2,0.7-0.3,1.5-0.5,2.2
			C586.1,293.3,586.1,292.5,586.6,292z M571.7,286c0.5-0.5,1.4-0.5,2,0s0.5,1.4,0,2s-1.4,0.5-2,0C571.1,287.5,571.1,286.6,571.7,286
			z M556,278.6c0.8,0,1.4,0.6,1.4,1.4s-0.6,1.4-1.4,1.4s-1.4-0.6-1.4-1.4S555.2,278.6,556,278.6z M579.9,257.8c0.5-0.5,1.4-0.5,2,0
			s0.5,1.4,0,2s-1.4,0.5-2,0S579.3,258.4,579.9,257.8z M574.4,256.6c0.5,0.5,0.5,1.5,0,2s-1.5,0.5-2,0s-0.5-1.5,0-2
			C573,256,573.9,256,574.4,256.6z M362.4,301.3c1.5,0,2.8,1.2,2.8,2.8s-1.2,2.8-2.8,2.8s-2.8-1.2-2.8-2.8S360.9,301.3,362.4,301.3z
			 M377.7,288.8c1.1,1.1,1.1,2.8,0,3.9s-2.8,1.1-3.9,0s-1.1-2.8,0-3.9C374.9,287.7,376.6,287.7,377.7,288.8z M389.1,274.6
			c1.5,0,2.8,1.2,2.8,2.8s-1.2,2.8-2.8,2.8s-2.8-1.2-2.8-2.8S387.6,274.6,389.1,274.6z M402.4,261.3c1.5,0,2.8,1.2,2.8,2.8
			s-1.2,2.8-2.8,2.8s-2.8-1.2-2.8-2.8S400.9,261.3,402.4,261.3z M415.8,247.9c1.5,0,2.8,1.2,2.8,2.8s-1.2,2.8-2.8,2.8
			s-2.8-1.2-2.8-2.8S414.2,247.9,415.8,247.9z"/>
		<g>
			
				<radialGradient id="SVGID_3_" cx="-165.3297" cy="646.1125" r="18.9895" gradientTransform="matrix(0 1.0396 0.9999 0 -75.0529 330.9261)" gradientUnits="userSpaceOnUse">
				<stop  offset="5.487623e-07" style="stop-color:#EE6C30"/>
				<stop  offset="1" style="stop-color:#FFFFFF"/>
			</radialGradient>
			<polygon class="st4" points="570.7,131.5 566.5,158.3 570.7,186.6 575.5,158.3 			"/>
			
				<radialGradient id="SVGID_4_" cx="-165.2191" cy="645.8925" r="19.412" gradientTransform="matrix(0 1.0396 0.9999 0 -75.0529 330.9261)" gradientUnits="userSpaceOnUse">
				<stop  offset="5.487623e-07" style="stop-color:#EE6C30"/>
				<stop  offset="1" style="stop-color:#FFFFFF"/>
			</radialGradient>
			<polygon class="st5" points="597.9,158.9 571.8,154.6 543.7,158.9 571.3,163.7 			"/>
		</g>
		<g>
			<g>
				
					<radialGradient id="SVGID_5_" cx="25.739" cy="421.5651" r="11.5776" gradientTransform="matrix(0 1.0396 0.9999 0 -75.0529 330.9261)" gradientUnits="userSpaceOnUse">
					<stop  offset="5.487623e-07" style="stop-color:#EE6C30"/>
					<stop  offset="1" style="stop-color:#FFFFFF"/>
				</radialGradient>
				<polygon class="st6" points="346.3,340.9 343.8,357.2 346.3,374.5 349.2,357.2 				"/>
				
					<radialGradient id="SVGID_6_" cx="25.8063" cy="421.4251" r="11.8352" gradientTransform="matrix(0 1.0396 0.9999 0 -75.0529 330.9261)" gradientUnits="userSpaceOnUse">
					<stop  offset="5.487623e-07" style="stop-color:#EE6C30"/>
					<stop  offset="1" style="stop-color:#FFFFFF"/>
				</radialGradient>
				<polygon class="st7" points="362.9,357.6 346.9,355 329.8,357.6 346.7,360.5 				"/>
			</g>
		</g>
		<g>
			
				<radialGradient id="SVGID_7_" cx="322.595" cy="445.8371" r="8.4867" gradientTransform="matrix(1 0 0 -1 0 701.9915)" gradientUnits="userSpaceOnUse">
				<stop  offset="5.487623e-07" style="stop-color:#EE6C30"/>
				<stop  offset="1" style="stop-color:#FFFFFF"/>
			</radialGradient>
			<polygon class="st8" points="322.6,244.3 320.7,255.9 322.6,268 324.5,255.9 			"/>
			
				<radialGradient id="SVGID_8_" cx="322.555" cy="445.8821" r="8.1553" gradientTransform="matrix(1 0 0 -1 0 701.9915)" gradientUnits="userSpaceOnUse">
				<stop  offset="5.487623e-07" style="stop-color:#EE6C30"/>
				<stop  offset="1" style="stop-color:#FFFFFF"/>
			</radialGradient>
			<polygon class="st9" points="333.9,255.9 322.8,254.1 311.2,255.9 322.8,258.1 			"/>
		</g>
		<g>
			<g>
				<path class="st10" d="M355.8,417.2c12.6,0,17.5,5.8,17.5,16.5v4.9c0,8.8-3.3,14.2-11.3,15.9l12.9,16.3c0.6,0.7,0.5,2.3-1.2,2.3
					h-12.3c-1.5,0-2-0.4-2.6-1.1l-11.8-16h-22.4v15c0,1.4-0.7,2.1-2.1,2.1h-10.4c-1.4,0-2.1-0.7-2.1-2.1v-51.5
					c0-1.6,0.8-2.4,2.4-2.4L355.8,417.2L355.8,417.2L355.8,417.2z M324.7,444.7h28.2c4.4,0,5.8-1.8,5.8-5.5v-3.4
					c0-3.8-1.4-5.5-5.8-5.5h-27.3c-0.6,0-1,0.3-1,1L324.7,444.7L324.7,444.7z"/>
				<path class="st10" d="M428.3,417.2c16.4,0,22.6,5.8,22.6,21.1v13.8c0,15.4-6.2,21.1-22.6,21.1h-24.9c-16.4,0-22.6-5.8-22.6-21.1
					v-13.8c0-15.4,6.2-21.1,22.6-21.1H428.3z M395.3,451c0,7.3,1.7,9.1,8.6,9.1h23.8c7,0,8.6-1.8,8.6-9.1v-11.5c0-7.3-1.7-9-8.6-9
					h-23.8c-7,0-8.6,1.8-8.6,9V451z"/>
				<path class="st10" d="M518.7,417.2c1.4,0,2.1,0.7,2.1,2.1v9.4c0,1.4-0.7,2.1-2.1,2.1h-35.6c-7,0-8.6,1.8-8.6,9v10.9
					c0,7.2,1.7,9,8.6,9h35.6c1.4,0,2.1,0.7,2.1,2.1v9.4c0,1.4-0.7,2.1-2.1,2.1h-36.1c-16.4,0-22.6-5.8-22.6-21.1v-13.8
					c0-15.4,6.2-21.1,22.6-21.1L518.7,417.2L518.7,417.2z"/>
				<path class="st10" d="M541.5,417.2c1.4,0,2.1,0.7,2.1,2.1v20.1h9.8c3.9,0,5.2-0.4,7-3l13.4-18.1c0.6-0.8,1-1.1,2.6-1.1h12
					c1.5,0,1.8,1.4,1.2,2.2l-15.4,20.1c-1.6,2.1-2.9,3.8-4.2,5c2,1.4,3.8,3.3,5.8,5.8l16.1,20.6c0.5,0.6,0.6,2.4-1.3,2.4h-12.2
					c-1.5,0-2-0.3-2.6-1.1l-14.2-18.8c-1.8-2.3-3.1-3-7-3h-10.9v20.8c0,1.4-0.7,2.1-2.1,2.1h-10.4c-1.4,0-2.1-0.7-2.1-2.1v-51.8
					c0-1.4,0.7-2.1,2.1-2.1L541.5,417.2L541.5,417.2z"/>
				<path class="st10" d="M653.1,417.2c1.4,0,2.1,0.7,2.1,2.1v9c0,1.4-0.6,2.2-2.1,2.2h-35c-6.9,0-8.7,1.8-8.7,8.8h43.3
					c1.4,0,2.1,0.6,2.1,2.1v7.4c0,1.4-0.6,2.1-2.1,2.1h-43.3c0,7.5,1.8,9.4,8.7,9.4h35c1.4,0,2.1,0.6,2.1,2.1v9
					c0,1.4-0.6,2.1-2.1,2.1h-35.3c-16.4,0-22.6-5.8-22.6-21.1v-13.8c0-15.4,6.2-21.1,22.6-21.1L653.1,417.2L653.1,417.2z"/>
				<path class="st10" d="M725.4,417.2c1.4,0,2.1,0.7,2.1,2.1v9.4c0,1.4-0.7,2.1-2.1,2.1h-24.1v40.4c0,1.4-0.7,2.1-2.1,2.1h-10.3
					c-1.4,0-2.2-0.7-2.2-2.1v-40.4h-24c-1.4,0-2.1-0.7-2.1-2.1v-9.4c0-1.4,0.6-2.1,2.1-2.1H725.4z"/>
			</g>
		</g>
		<g>
			<g>
				<path class="st11" d="M321.7,496.9c0-0.5-0.2-1-0.6-1.3c-0.4-0.3-1.1-0.6-2.1-0.9s-1.8-0.7-2.4-1c-1.1-0.7-1.7-1.7-1.7-2.8
					c0-1,0.4-1.8,1.2-2.5s1.9-1,3.2-1c0.9,0,1.7,0.2,2.4,0.5s1.2,0.8,1.6,1.4s0.6,1.3,0.6,2h-2.2c0-0.7-0.2-1.2-0.6-1.5
					c-0.4-0.4-1-0.5-1.8-0.5c-0.7,0-1.3,0.2-1.7,0.5c-0.4,0.3-0.6,0.7-0.6,1.3c0,0.5,0.2,0.8,0.6,1.2s1.1,0.6,2.1,0.9
					c1,0.3,1.8,0.6,2.4,1s1,0.8,1.3,1.3c0.3,0.5,0.4,1,0.4,1.7c0,1-0.4,1.9-1.2,2.5s-1.9,0.9-3.3,0.9c-0.9,0-1.8-0.2-2.5-0.5
					s-1.4-0.8-1.8-1.4c-0.4-0.6-0.6-1.3-0.6-2.1h2.2c0,0.7,0.2,1.3,0.7,1.7c0.5,0.4,1.1,0.6,2,0.6c0.8,0,1.3-0.2,1.7-0.5
					C321.5,497.8,321.7,497.4,321.7,496.9z"/>
				<path class="st11" d="M336.6,497l1.9-9.5h2.2l-2.9,12.6h-2.1l-2.4-9.2l-2.5,9.2h-2.1l-2.9-12.6h2.2l2,9.5l2.4-9.5h1.8L336.6,497
					z"/>
				<path class="st11" d="M349.9,497.2H345l-1,2.9h-2.3l4.8-12.6h2l4.8,12.6h-2.3L349.9,497.2z M345.6,495.5h3.7l-1.8-5.2
					L345.6,495.5z"/>
				<path class="st11" d="M357.7,495.5v4.7h-2.2v-12.6h4.8c1.4,0,2.5,0.4,3.4,1.1s1.2,1.7,1.2,2.9c0,1.2-0.4,2.2-1.2,2.9s-2,1-3.4,1
					H357.7z M357.7,493.7h2.6c0.8,0,1.4-0.2,1.8-0.5s0.6-0.9,0.6-1.6c0-0.7-0.2-1.2-0.6-1.6c-0.4-0.4-1-0.6-1.7-0.6h-2.7V493.7z"/>
				<path class="st11" d="M380.3,494.8h-5.1v5.3h-2.2v-12.6h8v1.8h-5.8v3.8h5.1V494.8z"/>
				<path class="st11" d="M389.1,497.2h-4.9l-1,2.9h-2.3l4.8-12.6h2l4.8,12.6h-2.3L389.1,497.2z M384.8,495.5h3.7l-1.8-5.2
					L384.8,495.5z"/>
				<path class="st11" d="M401.3,496.9c0-0.5-0.2-1-0.6-1.3c-0.4-0.3-1.1-0.6-2.1-0.9s-1.8-0.7-2.4-1c-1.1-0.7-1.7-1.7-1.7-2.8
					c0-1,0.4-1.8,1.2-2.5s1.9-1,3.2-1c0.9,0,1.7,0.2,2.4,0.5s1.2,0.8,1.6,1.4s0.6,1.3,0.6,2h-2.2c0-0.7-0.2-1.2-0.6-1.5
					c-0.4-0.4-1-0.5-1.8-0.5c-0.7,0-1.3,0.2-1.7,0.5c-0.4,0.3-0.6,0.7-0.6,1.3c0,0.5,0.2,0.8,0.6,1.2s1.1,0.6,2.1,0.9
					c1,0.3,1.8,0.6,2.4,1s1,0.8,1.3,1.3c0.3,0.5,0.4,1,0.4,1.7c0,1-0.4,1.9-1.2,2.5s-1.9,0.9-3.3,0.9c-0.9,0-1.8-0.2-2.5-0.5
					s-1.4-0.8-1.8-1.4c-0.4-0.6-0.6-1.3-0.6-2.1h2.2c0,0.7,0.2,1.3,0.7,1.7c0.5,0.4,1.1,0.6,2,0.6c0.8,0,1.3-0.2,1.7-0.5
					C401.1,497.8,401.3,497.4,401.3,496.9z"/>
				<path class="st11" d="M415.4,489.3h-3.9v10.8h-2.2v-10.8h-3.9v-1.8h10V489.3z"/>
				<path class="st11" d="M425.3,494.5h-5.2v3.9h6v1.8h-8.3v-12.6h8.2v1.8h-6v3.5h5.2V494.5z"/>
				<path class="st11" d="M433.5,495.3h-2.4v4.8h-2.2v-12.6h4.4c1.5,0,2.6,0.3,3.4,1c0.8,0.7,1.2,1.6,1.2,2.8c0,0.8-0.2,1.5-0.6,2.1
					c-0.4,0.6-1,1-1.7,1.3l2.8,5.3v0.1H436L433.5,495.3z M431.1,493.5h2.3c0.7,0,1.3-0.2,1.7-0.6c0.4-0.4,0.6-0.9,0.6-1.5
					c0-0.7-0.2-1.2-0.6-1.6c-0.4-0.4-1-0.6-1.7-0.6h-2.3L431.1,493.5L431.1,493.5z"/>
				<path class="st11" d="M440.9,503l-1.1-0.7c0.3-0.5,0.6-1,0.7-1.4c0.1-0.4,0.2-0.8,0.2-1.2v-1.6h1.9l0,1.5c0,0.6-0.2,1.2-0.5,1.8
					C441.8,502.1,441.4,502.6,440.9,503z"/>
				<path class="st11" d="M458.2,494.8h-5.1v5.3h-2.2v-12.6h8v1.8h-5.8v3.8h5.1V494.8z"/>
				<path class="st11" d="M468.9,494.5h-5.2v3.9h6v1.8h-8.3v-12.6h8.2v1.8h-6v3.5h5.2L468.9,494.5L468.9,494.5z"/>
				<path class="st11" d="M479.8,494.5h-5.2v3.9h6v1.8h-8.3v-12.6h8.2v1.8h-6v3.5h5.2V494.5z"/>
				<path class="st11" d="M490,496.9c0-0.5-0.2-1-0.6-1.3c-0.4-0.3-1.1-0.6-2.1-0.9s-1.8-0.7-2.4-1c-1.1-0.7-1.7-1.7-1.7-2.8
					c0-1,0.4-1.8,1.2-2.5c0.8-0.7,1.9-1,3.2-1c0.9,0,1.7,0.2,2.4,0.5c0.7,0.3,1.2,0.8,1.6,1.4s0.6,1.3,0.6,2H490
					c0-0.7-0.2-1.2-0.6-1.5s-1-0.5-1.8-0.5c-0.7,0-1.3,0.2-1.7,0.5c-0.4,0.3-0.6,0.7-0.6,1.3c0,0.5,0.2,0.8,0.6,1.2
					c0.4,0.3,1.1,0.6,2.1,0.9c1,0.3,1.8,0.6,2.4,1s1,0.8,1.3,1.3c0.3,0.5,0.4,1,0.4,1.7c0,1-0.4,1.9-1.2,2.5s-1.9,0.9-3.3,0.9
					c-0.9,0-1.8-0.2-2.5-0.5s-1.4-0.8-1.8-1.4c-0.4-0.6-0.6-1.3-0.6-2.1h2.2c0,0.7,0.2,1.3,0.7,1.7c0.5,0.4,1.1,0.6,2,0.6
					c0.8,0,1.3-0.2,1.7-0.5C489.8,497.8,490,497.4,490,496.9z"/>
				<path class="st11" d="M502.5,498.4h5.7v1.8h-7.9v-12.6h2.2L502.5,498.4L502.5,498.4L502.5,498.4z"/>
				<path class="st11" d="M520.3,494.2c0,1.2-0.2,2.3-0.6,3.3s-1,1.7-1.8,2.2c-0.8,0.5-1.7,0.8-2.7,0.8c-1,0-1.9-0.3-2.7-0.8
					s-1.4-1.2-1.8-2.1c-0.4-0.9-0.7-2-0.7-3.2v-0.7c0-1.2,0.2-2.3,0.7-3.3s1-1.7,1.8-2.2c0.8-0.5,1.7-0.8,2.7-0.8
					c1,0,1.9,0.3,2.7,0.7s1.4,1.2,1.8,2.1c0.4,0.9,0.7,2,0.7,3.2L520.3,494.2L520.3,494.2z M518.1,493.5c0-1.4-0.3-2.5-0.8-3.2
					s-1.3-1.1-2.3-1.1c-1,0-1.7,0.4-2.2,1.1c-0.5,0.7-0.8,1.8-0.8,3.2v0.7c0,1.4,0.3,2.5,0.8,3.2c0.5,0.8,1.3,1.1,2.3,1.1
					c1,0,1.7-0.4,2.2-1.1s0.8-1.8,0.8-3.2L518.1,493.5L518.1,493.5z"/>
				<path class="st11" d="M533.2,497l1.9-9.5h2.2l-2.9,12.6h-2.1l-2.4-9.2l-2.5,9.2h-2.1l-2.9-12.6h2.2l2,9.5l2.4-9.5h1.8L533.2,497
					z"/>
				<path class="st11" d="M547.2,494.5H542v3.9h6v1.8h-8.3v-12.6h8.2v1.8h-6v3.5h5.2V494.5z"/>
				<path class="st11" d="M555.4,495.3H553v4.8h-2.2v-12.6h4.4c1.5,0,2.6,0.3,3.4,1c0.8,0.7,1.2,1.6,1.2,2.8c0,0.8-0.2,1.5-0.6,2.1
					s-1,1-1.7,1.3l2.8,5.3v0.1h-2.3L555.4,495.3z M552.9,493.5h2.3c0.7,0,1.3-0.2,1.7-0.6c0.4-0.4,0.6-0.9,0.6-1.5
					c0-0.7-0.2-1.2-0.6-1.6c-0.4-0.4-1-0.6-1.7-0.6h-2.3L552.9,493.5L552.9,493.5L552.9,493.5z"/>
				<path class="st11" d="M567.5,496.8c0-0.6,0.2-1.1,0.5-1.6s0.9-1.1,1.9-1.7c-0.5-0.6-0.8-1.1-1-1.6c-0.2-0.4-0.3-0.8-0.3-1.3
					c0-1,0.3-1.8,0.9-2.3c0.6-0.6,1.4-0.9,2.4-0.9c0.9,0,1.7,0.3,2.3,0.8s0.9,1.2,0.9,2c0,0.5-0.1,1-0.4,1.5s-0.7,0.9-1.3,1.3
					l-0.9,0.6l2.4,2.9c0.3-0.7,0.5-1.5,0.5-2.3h1.8c0,1.5-0.4,2.8-1.1,3.8l1.8,2.2h-2.4l-0.7-0.8c-0.9,0.7-2,1-3.2,1s-2.2-0.3-3-1
					S567.5,497.8,567.5,496.8z M571.6,498.7c0.7,0,1.4-0.2,2-0.7l-2.8-3.3l-0.3,0.2c-0.7,0.5-1,1.1-1,1.8c0,0.6,0.2,1.1,0.6,1.4
					C570.5,498.5,571,498.7,571.6,498.7z M570.5,490.5c0,0.5,0.3,1.1,0.9,1.8l1-0.7l0.3-0.2c0.4-0.3,0.5-0.7,0.5-1.2
					c0-0.3-0.1-0.6-0.4-0.8c-0.3-0.2-0.6-0.3-0.9-0.3c-0.4,0-0.7,0.1-1,0.4C570.6,489.8,570.5,490.1,570.5,490.5z"/>
				<path class="st11" d="M595.5,500.2h-2.2v-5.6h-5.6v5.6h-2.2v-12.6h2.2v5.3h5.6v-5.3h2.2V500.2z"/>
				<path class="st11" d="M601.3,500.2h-2.2v-12.6h2.2V500.2z"/>
				<path class="st11" d="M614.6,498.5c-0.5,0.6-1.1,1-1.9,1.3s-1.7,0.5-2.8,0.5c-1.1,0-2-0.2-2.8-0.7c-0.8-0.5-1.4-1.2-1.9-2.1
					s-0.7-1.9-0.7-3.1v-1c0-1.9,0.5-3.4,1.4-4.5s2.2-1.6,3.8-1.6c1.4,0,2.5,0.3,3.3,1c0.8,0.7,1.3,1.7,1.5,3h-2.2
					c-0.2-1.5-1.1-2.3-2.6-2.3c-1,0-1.7,0.3-2.2,1.1s-0.8,1.7-0.8,3.1v1c0,1.4,0.3,2.4,0.9,3.2c0.6,0.8,1.4,1.1,2.4,1.1
					c1.1,0,1.9-0.3,2.4-0.8v-2.5h-2.6v-1.7h4.8L614.6,498.5L614.6,498.5z"/>
				<path class="st11" d="M627.9,500.2h-2.2v-5.6h-5.6v5.6h-2.2v-12.6h2.2v5.3h5.6v-5.3h2.2V500.2z"/>
				<path class="st11" d="M641.3,495.3h-2.4v4.8h-2.2v-12.6h4.4c1.5,0,2.6,0.3,3.4,1c0.8,0.7,1.2,1.6,1.2,2.8c0,0.8-0.2,1.5-0.6,2.1
					s-1,1-1.7,1.3l2.8,5.3v0.1h-2.3L641.3,495.3z M638.9,493.5h2.3c0.7,0,1.3-0.2,1.7-0.6s0.6-0.9,0.6-1.5c0-0.7-0.2-1.2-0.6-1.6
					c-0.4-0.4-1-0.6-1.7-0.6h-2.3L638.9,493.5L638.9,493.5L638.9,493.5z"/>
				<path class="st11" d="M656,494.5h-5.2v3.9h6v1.8h-8.3v-12.6h8.2v1.8h-6v3.5h5.2V494.5z"/>
				<path class="st11" d="M668.8,489.3h-3.9v10.8h-2.2v-10.8h-3.9v-1.8h10V489.3z"/>
				<path class="st11" d="M680.6,487.5v8.4c0,1.3-0.4,2.4-1.3,3.2c-0.9,0.8-2,1.2-3.4,1.2c-1.4,0-2.6-0.4-3.4-1.2
					c-0.8-0.8-1.3-1.8-1.3-3.2v-8.4h2.2v8.4c0,0.8,0.2,1.5,0.6,1.9s1.1,0.7,1.9,0.7c1.7,0,2.5-0.9,2.5-2.7v-8.3H680.6z"/>
				<path class="st11" d="M688.5,495.3H686v4.8h-2.2v-12.6h4.4c1.5,0,2.6,0.3,3.4,1c0.8,0.7,1.2,1.6,1.2,2.8c0,0.8-0.2,1.5-0.6,2.1
					s-1,1-1.7,1.3l2.8,5.3v0.1H691L688.5,495.3z M686,493.5h2.3c0.7,0,1.3-0.2,1.7-0.6s0.6-0.9,0.6-1.5c0-0.7-0.2-1.2-0.6-1.6
					c-0.4-0.4-1-0.6-1.7-0.6H686L686,493.5L686,493.5L686,493.5z"/>
				<path class="st11" d="M705.8,500.2h-2.2l-5.6-9v9h-2.2v-12.6h2.2l5.6,9v-9h2.2V500.2z"/>
				<path class="st11" d="M715.8,496.9c0-0.5-0.2-1-0.6-1.3c-0.4-0.3-1.1-0.6-2.1-0.9c-1-0.3-1.8-0.7-2.4-1
					c-1.2-0.7-1.7-1.7-1.7-2.8c0-1,0.4-1.8,1.2-2.5c0.8-0.7,1.9-1,3.2-1c0.9,0,1.7,0.2,2.3,0.5c0.7,0.3,1.2,0.8,1.6,1.4
					s0.6,1.3,0.6,2h-2.2c0-0.7-0.2-1.2-0.6-1.5c-0.4-0.4-1-0.5-1.8-0.5c-0.7,0-1.3,0.2-1.7,0.5c-0.4,0.3-0.6,0.7-0.6,1.3
					c0,0.5,0.2,0.8,0.6,1.2s1.1,0.6,2.1,0.9c1,0.3,1.8,0.6,2.4,1c0.6,0.4,1,0.8,1.3,1.3c0.3,0.5,0.4,1,0.4,1.7c0,1-0.4,1.9-1.2,2.5
					c-0.8,0.6-1.9,0.9-3.3,0.9c-0.9,0-1.8-0.2-2.5-0.5s-1.4-0.8-1.8-1.4s-0.6-1.3-0.6-2.1h2.2c0,0.7,0.2,1.3,0.7,1.7
					c0.5,0.4,1.2,0.6,2,0.6c0.8,0,1.3-0.2,1.7-0.5S715.8,497.4,715.8,496.9z"/>
			</g>
		</g>
		<path class="st12" d="M487.7,144.6c0,0-0.1,0-0.1,0c-0.5,0.1-1,0.1-1.5,0.3c-0.3,0-0.6,0.1-0.9,0.2c-1.6,0.3-3.1,0.6-4.6,0.9
			c-2.1,0.4-4.1,1-6.1,1.6c-0.2,0-0.3,0.1-0.5,0.1c-23.1,6.8-43.1,21.2-57.1,40.3c-0.1,0.1-0.2,0.3-0.3,0.5c-1,1.3-1.9,2.6-2.8,4
			c-0.1,0.1-0.2,0.3-0.3,0.5c-0.8,1.3-1.6,2.5-2.4,3.9c-0.3,0.4-0.5,0.8-0.7,1.2c-0.7,1.1-1.3,2.3-2,3.5c-0.1,0.2-0.1,0.3-0.3,0.5
			c-0.6,1.1-1.2,2.4-1.8,3.5c-0.1,0.2-0.2,0.3-0.2,0.5c-0.6,1.2-1.1,2.5-1.7,3.7c-0.1,0.2-0.1,0.3-0.2,0.5c-0.4,0.9-0.8,1.9-1.2,2.8
			c-0.2,0.5-0.4,1-0.6,1.5c-0.2,0.4-0.3,0.8-0.5,1.2c-0.2,0.4-0.3,0.8-0.5,1.2c-2.2,6.4-3.9,13-5,19.9c0,0.3-0.1,0.5-0.1,0.8
			c-0.2,1.4-0.4,2.8-0.5,4.2v0c-0.1,0.3-0.1,0.5-0.1,0.8c-0.1,1.1-0.3,2.3-0.3,3.5c0,0.2,0,0.5-0.1,0.7c-0.1,2.5-0.2,4.9-0.2,7.5
			c0,0.6,0,1.2,0,1.8v0.7c0.2,10.8,2,21.3,5.1,31.1c0.1,0.5,0.3,0.9,0.4,1.3c0.5,1.6,1.1,3.2,1.7,4.8c0.1,0.2,0.1,0.3,0.2,0.5v0
			c1.1,2.8,2.2,5.6,3.5,8.2c-2.5,1.1-5,2.1-7.4,3c-2.4,1-4.7,1.8-6.9,2.6c-0.2,0.1-0.3,0.1-0.5,0.2c-1.7,0.6-3.4,1.2-5.1,1.8
			c-0.4,0.1-0.8,0.3-1.2,0.4c-1.6,0.5-3.1,1-4.6,1.5c-0.2,0.1-0.3,0.1-0.5,0.2c-0.3,0.1-0.5,0.1-0.8,0.2c-5.8,1.7-11.2,2.9-16.1,3.7
			c-0.2,0.1-0.4,0.1-0.6,0.1c-1.1,0.2-2.2,0.3-3.3,0.4c-2.1,0.3-4,0.4-5.9,0.4l-1.1,0h-0.6c-7.1-15.6-11-32.9-11-51.1
			c0-34.2,13.9-65.1,36.3-87.6c2.4-2.4,4.9-4.8,7.6-7c0.8-0.7,1.7-1.4,2.6-2.1c1.8-1.4,3.6-2.8,5.4-4.1c1.1-0.8,2.1-1.5,3.2-2.2
			c0.3-0.2,0.6-0.4,0.9-0.6c0.8-0.6,1.7-1.1,2.5-1.6c0.8-0.5,1.6-1,2.4-1.4c0.5-0.3,0.9-0.6,1.4-0.8c1-0.6,2-1.1,3-1.7
			c0.7-0.4,1.3-0.7,2-1c0.8-0.4,1.6-0.9,2.5-1.3c0.9-0.5,1.9-0.9,2.9-1.3c1-0.4,2-0.9,2.9-1.3c1.6-0.7,3.3-1.4,5-2
			c0.8-0.3,1.7-0.6,2.5-0.9c0.2-0.1,0.5-0.2,0.7-0.3c0.8-0.3,1.7-0.6,2.6-0.8c1.5-0.5,3-0.9,4.5-1.3c0.9-0.3,1.8-0.5,2.6-0.7
			c0.9-0.2,1.8-0.4,2.7-0.6c1.8-0.4,3.5-0.8,5.4-1.1c2.7-0.5,5.5-0.9,8.2-1.2c1.1-0.2,2.2-0.3,3.3-0.4c0,0,0.1,0,0.1,0
			c3.5-0.3,7.1-0.5,10.7-0.5c2.6,0,5.2,0.1,7.7,0.3c1.3,0.1,2.5,0.2,3.8,0.3c0.7,0.1,1.4,0.1,2.1,0.2c0.6,0.1,1.1,0.1,1.7,0.2
			c0.8,0.1,1.6,0.2,2.4,0.3c0.8,0.1,1.6,0.2,2.4,0.3C485.5,144.2,486.6,144.4,487.7,144.6z"/>
		<path class="st12" d="M549.9,355.4l-0.3,0.7v0c-1.3,1.3-2.7,2.5-4.1,3.7c-0.1,0.1-0.1,0.1-0.2,0.1c-0.8,0.6-1.5,1.3-2.3,1.9
			c-0.7,0.6-1.4,1.2-2.2,1.8c-1.4,1.1-2.8,2.1-4.2,3.2c-1.4,1-2.9,2-4.4,3c-2.9,1.9-6,3.7-9.1,5.4c-0.1,0.1-0.1,0.1-0.1,0.1
			c-1.1,0.6-2.2,1.2-3.3,1.8c-0.4,0.2-0.8,0.4-1.2,0.6c-1.4,0.7-2.9,1.4-4.3,2c-0.2,0.1-0.3,0.1-0.5,0.2c-1.8,0.8-3.7,1.6-5.7,2.3
			c-0.2,0.1-0.3,0.1-0.5,0.2c-13.4,5-28,7.7-43.2,7.7c-15.2,0-29.8-2.7-43.3-7.8c-4.5-1.7-8.9-3.6-13.1-5.8
			c-2.7-1.4-5.3-2.8-7.8-4.4h0c-2.5-1.6-5-3.2-7.5-4.9c-1.6-1.1-3.2-2.4-4.8-3.6c-2.4-1.8-4.6-3.8-6.8-5.8c-1.5-1.3-2.9-2.7-4.3-4.1
			c-5.8-5.8-11-12.1-15.5-18.9c2.4-0.2,4.8-0.5,7.4-0.8c0.7-0.1,1.3-0.2,2-0.3c0.2,0,0.4-0.1,0.6-0.1c2.8-0.4,5.6-1,8.6-1.6
			c0.1,0,0.3,0,0.5-0.1c1.5-0.3,3.1-0.6,4.6-1c0.4-0.1,0.8-0.2,1.2-0.3c1.3-0.3,2.6-0.6,3.9-1c0.4-0.1,0.8-0.2,1.3-0.3
			c0.2-0.1,0.3-0.1,0.5-0.1c5.8-1.5,11.9-3.4,18.1-5.5c2.4-0.8,4.8-1.7,7.3-2.6c0.9,1.2,1.8,2.3,2.7,3.5c0.1,0.2,0.3,0.4,0.5,0.6
			c8.5,10.4,18.8,19.1,30.4,25.8c0.4,0.2,0.7,0.5,1.1,0.6c5.1,2.9,10.5,5.3,16,7.3c0.4,0.2,0.8,0.3,1.2,0.5c1,0.4,2.1,0.7,3.1,1
			c0.4,0.1,0.8,0.3,1.2,0.4c4.3,1.3,8.7,2.3,13.2,3h0c0.2,0.1,0.5,0.1,0.7,0.1c5.5,0.9,11.2,1.3,17,1.3c1.1,0,2.1,0,3.2,0
			c0.1,0,0.3,0,0.5,0c1.9-0.1,3.8-0.2,5.7-0.3c0.2,0,0.3,0,0.5-0.1c1.5-0.1,2.9-0.3,4.3-0.5c0.4-0.1,0.8-0.1,1.2-0.2
			c8.1-1.2,15.9-3.2,23.3-6.1c0.8-0.3,1.6-0.6,2.4-1C547,356.7,548.5,356,549.9,355.4z"/>
		<g>
			<g>
				<g>
					<path class="st13" d="M489.1,144.9c-1.1,0.1-2.3,0.2-3.4,0.4c-0.3,0-0.5,0.1-0.8,0.1c-1.5,0.2-2.9,0.4-4.3,0.6
						c-2.1,0.4-4.1,0.8-6.1,1.2c-0.2,0-0.3,0.1-0.5,0.1c-25.7,5.9-48,20.6-63.5,40.7c-0.1,0.2-0.2,0.3-0.4,0.5c-1,1.3-2,2.6-2.9,4
						c-0.1,0.2-0.2,0.3-0.3,0.5c-0.9,1.3-1.7,2.5-2.5,3.9c-0.3,0.4-0.5,0.8-0.8,1.2c-0.7,1.1-1.4,2.3-2,3.5
						c-0.1,0.1-0.2,0.3-0.3,0.5c-0.6,1.1-1.3,2.3-1.9,3.5c-0.1,0.2-0.2,0.3-0.3,0.5c-0.6,1.2-1.2,2.5-1.8,3.7
						c-0.1,0.1-0.2,0.3-0.2,0.5c-0.7,1.4-1.3,2.9-1.9,4.4c-0.2,0.4-0.3,0.8-0.5,1.2c-3.7,9.4-6.1,19.5-7.1,30c0,0.3-0.1,0.5-0.1,0.8
						c-0.1,1.3-0.2,2.6-0.3,4c0,0.3-0.1,0.5-0.1,0.8c-0.1,1.1-0.1,2.1-0.1,3.2c0,0.2,0,0.5,0,0.7v1.1c0,2.6,0.1,5.1,0.3,7.6
						c0,0.2,0,0.5,0,0.6c0.3,3.4,0.6,6.8,1.2,10.1c0.3,1.8,0.6,3.6,1,5.4c1.1,4.9,2.5,9.7,4.1,14.3c0.1,0.4,0.3,0.8,0.5,1.3
						c0.6,1.6,1.2,3.1,1.9,4.7c0.1,0.2,0.1,0.3,0.2,0.5v0c0.7,1.7,1.5,3.4,2.4,5.1c-2.4,1-4.7,1.8-6.9,2.6c-0.2,0.1-0.3,0.1-0.5,0.2
						c-1.7,0.6-3.4,1.2-5.1,1.8c-0.4,0.1-0.8,0.3-1.2,0.4c-1.6,0.5-3.1,1-4.6,1.5c-0.2,0.1-0.3,0.1-0.5,0.2
						c-0.3,0.1-0.5,0.1-0.8,0.2c-5.8,1.7-11.2,2.9-16.1,3.7c-0.2,0.1-0.4,0.1-0.6,0.1c-1.1,0.2-2.2,0.3-3.3,0.4
						c-2.1,0.3-4,0.4-5.9,0.4l-1.1,0h-0.6c-7.1-15.6-11-32.9-11-51.1c0-34.2,13.9-65.1,36.3-87.6c2.4-2.4,4.9-4.8,7.6-7
						c0.8-0.7,1.7-1.4,2.6-2.1c1.8-1.4,3.6-2.8,5.4-4.1c1.1-0.8,2.1-1.5,3.2-2.2c0.3-0.2,0.6-0.4,0.9-0.6c0.8-0.6,1.7-1.1,2.5-1.6
						c0.8-0.5,1.6-1,2.4-1.4c0.5-0.3,0.9-0.6,1.4-0.8c1-0.6,2-1.1,3-1.7c0.7-0.4,1.3-0.7,2-1c0.8-0.4,1.6-0.9,2.5-1.3
						c0.9-0.5,1.9-0.9,2.9-1.3c1-0.4,2-0.9,2.9-1.3c1.6-0.7,3.3-1.4,5-2c0.8-0.3,1.7-0.6,2.5-0.9c0.2-0.1,0.5-0.2,0.7-0.3
						c0.8-0.3,1.7-0.6,2.6-0.8c1.5-0.5,3-0.9,4.5-1.3c0.9-0.3,1.8-0.5,2.6-0.7c0.9-0.2,1.8-0.4,2.7-0.6c1.8-0.4,3.5-0.8,5.4-1.1
						c2.7-0.5,5.5-0.9,8.2-1.2c0.8-0.1,1.6-0.2,2.4-0.3c0.1,0,0.2,0,0.3,0c3.7-0.4,7.5-0.5,11.3-0.5c2.6,0,5.1,0.1,7.7,0.2
						c1.3,0.1,2.5,0.2,3.8,0.3c0.7,0.1,1.4,0.1,2.1,0.2c0.6,0.1,1.1,0.1,1.7,0.2c0.8,0.1,1.6,0.2,2.4,0.3c0.8,0.1,1.6,0.2,2.4,0.3
						c1.1,0.2,2.1,0.4,3.2,0.6C488.1,144.7,488.6,144.8,489.1,144.9z"/>
				</g>
				<g>
					<path class="st13" d="M549.6,356.1c-1.3,1.3-2.7,2.5-4.1,3.7c-0.1,0.1-0.1,0.1-0.2,0.1c-0.8,0.6-1.5,1.3-2.3,1.9v0
						c-0.7,0.6-1.4,1.2-2.2,1.7c-1.4,1.1-2.8,2.1-4.2,3.2c-1.4,1-2.9,2-4.4,3c-2.7,1.8-5.4,3.4-8.2,5c-0.1,0.1-0.3,0.2-0.5,0.2
						c-1.3,0.7-2.6,1.4-3.9,2v0c-0.4,0.2-0.8,0.4-1.2,0.6v0c-1.4,0.7-2.9,1.4-4.3,2c-0.2,0.1-0.3,0.1-0.5,0.2
						c-1.8,0.8-3.7,1.6-5.7,2.3v0c-0.2,0.1-0.3,0.1-0.5,0.2c-13.4,5-28,7.7-43.2,7.7c-15.2,0-29.8-2.7-43.3-7.8
						c-4.5-1.7-8.9-3.6-13.1-5.8c-2.7-1.4-5.3-2.8-7.8-4.4h0c-2.5-1.5-5.1-3.2-7.5-4.9c-1.6-1.1-3.2-2.4-4.8-3.6
						c-2.4-1.8-4.6-3.7-6.8-5.8c-1.5-1.3-2.9-2.7-4.3-4.1c-5.8-5.8-11-12.1-15.5-18.9c2.4-0.2,4.8-0.5,7.4-0.8
						c0.7-0.1,1.3-0.2,2-0.3c0.2,0,0.4-0.1,0.6-0.1c2.8-0.4,5.6-1,8.6-1.6c0.1,0,0.3,0,0.5-0.1c1.5-0.3,3.1-0.6,4.6-1
						c0.4-0.1,0.8-0.2,1.2-0.3c1.3-0.3,2.6-0.6,3.9-1c0.4-0.1,0.8-0.2,1.3-0.3c0.2-0.1,0.3-0.1,0.5-0.1c5.8-1.5,11.9-3.4,18.1-5.5
						c3.1,4,6.4,7.9,10,11.5c0.2,0.2,0.3,0.3,0.5,0.5c7.8,7.7,16.6,14.2,26.4,19.3c0.4,0.2,0.7,0.4,1.1,0.6c6.3,3.2,13,5.9,20,7.9
						c0.4,0.1,0.8,0.3,1.2,0.3c1,0.3,2.1,0.6,3.1,0.8c0.4,0.1,0.8,0.2,1.2,0.3c8.2,1.9,16.7,2.9,25.5,2.9c2.9,0,5.7-0.1,8.5-0.3
						c0.2,0,0.3,0,0.5,0c1.9-0.1,3.8-0.3,5.7-0.6c0.2,0,0.3,0,0.5-0.1c1.5-0.2,2.9-0.4,4.3-0.6c0.4-0.1,0.8-0.2,1.2-0.3
						c8.1-1.5,15.9-3.9,23.3-7.1c0.8-0.3,1.6-0.7,2.4-1.1c1.3-0.6,2.6-1.2,3.9-1.9C549.5,356.2,549.5,356.1,549.6,356.1z"/>
				</g>
			</g>
		</g>
		<path class="st10" d="M362.4,316.5c-1.1,0.2-2.2,0.3-3.3,0.4c-2.1,0.3-4,0.4-5.9,0.4l-1.1,0h-0.6c-7.1-15.6-11-32.9-11-51.1
			c0-34.2,13.9-65.1,36.3-87.6c2.4-2.4,4.9-4.8,7.6-7c0.8-0.7,1.7-1.4,2.6-2.1c1.8-1.4,3.6-2.8,5.4-4.1c1.1-0.8,2.1-1.5,3.2-2.2
			c0.3-0.2,0.6-0.4,0.9-0.6c0.8-0.6,1.7-1.1,2.5-1.6c0.8-0.5,1.6-1,2.4-1.4c0.5-0.3,0.9-0.6,1.4-0.8c1-0.6,2-1.1,3-1.7
			c0.7-0.4,1.3-0.7,2-1c0.8-0.4,1.6-0.9,2.5-1.3c0.9-0.5,1.9-0.9,2.9-1.3c1-0.4,2-0.9,2.9-1.3c1.6-0.7,3.3-1.4,5-2
			c0.8-0.3,1.7-0.6,2.5-0.9c0.2-0.1,0.5-0.2,0.7-0.3c0.8-0.3,1.7-0.6,2.6-0.8c1.5-0.5,3-0.9,4.5-1.3c0.9-0.3,1.8-0.5,2.6-0.7
			c0.9-0.2,1.8-0.4,2.7-0.6c1.8-0.4,3.5-0.8,5.4-1.1c2.7-0.5,5.5-0.9,8.2-1.2c0.8-0.1,1.6-0.2,2.4-0.3c0.1,0,0.2,0,0.3,0
			c3.7-0.4,7.5-0.5,11.3-0.5c2.6,0,5.1,0.1,7.7,0.2c1.3,0.1,2.5,0.2,3.8,0.3c1.3,0.1,2.5,0.3,3.8,0.4c-1.7,0.1-3.5,0.2-5.2,0.3
			c-0.2,0-0.3,0-0.5,0c-12.5,1-24.4,4-35.4,8.6c-2.1,0.8-4.2,1.8-6.2,2.8c-6.4,3.1-12.4,6.6-18,10.8c-1.1,0.8-2.2,1.6-3.3,2.4
			c-7.4,5.8-14.1,12.5-20,19.8c-0.1,0.2-0.3,0.3-0.4,0.5c-1,1.3-2,2.6-3,4c-0.1,0.1-0.2,0.3-0.3,0.5c-0.9,1.3-1.8,2.5-2.6,3.9
			c-0.3,0.4-0.5,0.8-0.8,1.2c-0.7,1.1-1.5,2.3-2.1,3.5c-0.1,0.2-0.2,0.3-0.3,0.5c-0.7,1.1-1.3,2.3-2,3.5c-0.1,0.2-0.2,0.3-0.3,0.5
			c-0.6,1.2-1.3,2.5-1.8,3.7c-0.1,0.1-0.2,0.3-0.2,0.5c-0.7,1.4-1.4,2.9-2,4.4c-0.2,0.4-0.3,0.8-0.5,1.2c-4.5,10.9-7.4,22.7-8.3,35
			c0,0.2,0,0.3,0,0.5c-0.1,1.1-0.1,2.1-0.2,3.2c0,0.2,0,0.3,0,0.5c0,0.9-0.1,1.7-0.1,2.6c0,0.2,0,0.3,0,0.5v1.5
			c0,4.1,0.2,8.1,0.6,12.1c0,0.2,0,0.5,0.1,0.6c1.6,14.4,5.9,28,12.3,40.4c-5.8,1.7-11.2,2.9-16.1,3.7
			C362.8,316.5,362.6,316.5,362.4,316.5z"/>
		<path class="st10" d="M549.6,356.1c-1.3,1.3-2.7,2.5-4.1,3.7c-0.1,0.1-0.1,0.1-0.2,0.1c-0.8,0.6-1.5,1.3-2.3,1.9v0
			c-0.7,0.6-1.4,1.2-2.2,1.7c-1.4,1.1-2.8,2.1-4.2,3.2c-1.4,1-2.9,2-4.4,3c-2.7,1.8-5.4,3.4-8.2,5c-0.1,0.1-0.3,0.2-0.5,0.2
			c-1.3,0.7-2.6,1.4-3.9,2v0c-0.4,0.2-0.8,0.4-1.2,0.6v0c-1.4,0.7-2.9,1.4-4.3,2c-0.2,0.1-0.3,0.1-0.5,0.2c-1.8,0.8-3.7,1.6-5.7,2.3
			v0c-0.2,0.1-0.3,0.1-0.5,0.2c-13.4,5-28,7.7-43.2,7.7c-15.2,0-29.8-2.7-43.3-7.8c-4.5-1.7-8.9-3.6-13.1-5.8
			c-2.7-1.4-5.3-2.8-7.8-4.4h0c-2.5-1.5-5.1-3.2-7.5-4.9c-1.6-1.1-3.2-2.4-4.8-3.6c-2.4-1.8-4.6-3.7-6.8-5.8
			c-1.5-1.3-2.9-2.7-4.3-4.1c-5.8-5.8-11-12.1-15.5-18.9c2.4-0.2,4.8-0.5,7.4-0.8c0.7-0.1,1.3-0.2,2-0.3c0.2,0,0.4-0.1,0.6-0.1
			c2.8-0.4,5.6-1,8.6-1.6c0.1,0,0.3,0,0.5-0.1c1.5-0.3,3.1-0.6,4.6-1c0.4-0.1,0.8-0.2,1.2-0.3c1.3-0.3,2.6-0.6,3.9-1
			c0.4,0.6,0.8,1.1,1.3,1.6c0.2,0.2,0.3,0.4,0.5,0.6c7.9,9.8,17.4,18.3,28.1,25.1c0.1,0.1,0.3,0.2,0.5,0.3c5,3.2,10.2,6,15.7,8.4
			c0.4,0.2,0.8,0.3,1.2,0.5c8.2,3.5,17,6.1,26.1,7.7c0.5,0.1,1,0.2,1.5,0.3c1.7,0.3,3.4,0.5,5.1,0.7h0c0.8,0.1,1.5,0.2,2.3,0.2
			c1.7,0.2,3.4,0.3,5,0.4c0.6,0,1.2,0.1,1.8,0.1c1.6,0.1,3.1,0.1,4.7,0.1c8.1,0,16-0.8,23.6-2.4c0.2,0,0.3,0,0.5-0.1
			c1.9-0.4,3.8-0.8,5.7-1.3c0.2,0,0.3-0.1,0.5-0.1c1.5-0.4,2.9-0.8,4.3-1.2c0.4-0.1,0.8-0.3,1.2-0.4c8.2-2.6,16-6,23.3-10.2
			c0.8-0.5,1.6-1,2.4-1.4c1.3-0.8,2.6-1.6,3.9-2.5C549.5,356.2,549.5,356.1,549.6,356.1z"/>
		<g>
			<g>
				<g>
					<circle class="st14" cx="364.4" cy="251.6" r="11.3"/>
				</g>
				<g>
					<circle class="st14" cx="377.5" cy="269.6" r="3.8"/>
				</g>
				<g>
					<circle class="st14" cx="466.5" cy="368.8" r="3.8"/>
				</g>
				<g>
					<circle class="st14" cx="415.6" cy="162.8" r="3.8"/>
				</g>
				<g>
					<circle class="st14" cx="382.5" cy="199.1" r="6.7"/>
				</g>
				<g>
					<circle class="st14" cx="377.5" cy="306.6" r="5"/>
				</g>
				<g>
					<circle class="st14" cx="407.6" cy="345.6" r="5.9"/>
				</g>
			</g>
		</g>
		<g>
			<g>
				<g>
					<circle class="st10" cx="364.4" cy="251.6" r="10"/>
				</g>
				<g>
					<circle class="st10" cx="377.5" cy="269.6" r="3.3"/>
				</g>
				<g>
					<circle class="st10" cx="466.5" cy="368.8" r="3.3"/>
				</g>
				<g>
					<circle class="st10" cx="415.6" cy="162.8" r="3.3"/>
				</g>
				<g>
					<circle class="st10" cx="382.5" cy="199.1" r="5.9"/>
				</g>
				<g>
					<circle class="st10" cx="377.5" cy="306.6" r="4.4"/>
				</g>
				<g>
					<circle class="st10" cx="407.6" cy="345.6" r="5.2"/>
				</g>
			</g>
		</g>
		<path class="st15" d="M434.7,288"/>
		<path class="st13" d="M441,249l-0.5,0.5l0.4-0.6C440.9,249,441,249,441,249z"/>
		<path class="st13" d="M523.2,308.8c-0.1,0-0.1,0.1-0.1,0.1v-0.2C523.1,308.8,523.2,308.8,523.2,308.8z"/>
		<polygon class="st13" points="528.5,218.3 528.5,218.4 528.5,218.3 		"/>
		<path class="st13" d="M533.8,300.2c0.6,0.2,1.3,0.3,1.9,0.5l-0.9,0.5l-0.5,0.3l-1.5-1.5C533.2,300.1,533.5,300.2,533.8,300.2z"/>
		<g>
			<path class="st16" d="M471.3,293.7c-1.8,1-3.6,2-5.4,2.9c-10.4,5.6-20.7,10.5-30.8,14.9c-28.4,12.3-54.7,19.5-74.5,21
				c-18.3,1.3-31.3-2.3-35.5-11.3c-4.7-9.9,1.8-24.7,16.2-41.3c0.1,1.1,0.3,2.1,0.4,3.2v0c0.1,0.9,0.3,1.8,0.5,2.8
				c-8.3,11.8-11.1,21.7-7,27.8c3,4.4,9.3,6.5,18.2,6.3c18.2-0.4,47.1-10,78.8-26.6c9-4.7,18.2-10,27.5-15.8l8.3,11.6L471.3,293.7z"
				/>
			<path class="st11" d="M464.2,283.1c-0.4-0.4-7.5,6.5-8.3,6.9c-23.5,14-50,24.4-75.9,30.8c-9.2,2.3-18.6,3.9-28.2,3.7
				c-7.6-0.1-16.1-1.9-20.3-8.9c-4.5-7.6-0.5-19.1,10.1-32.5c0.1,0.9,0.3,1.8,0.5,2.8c-8.3,11.8-11.1,21.7-7,27.8
				c3,4.4,9.3,6.5,18.2,6.3c18.2-0.4,47.1-10,78.8-26.6c9-4.7,18.2-10,27.5-15.8C459.6,277.4,464.2,283.1,464.2,283.1z"/>
			<polygon class="st15" points="459.1,304.2 454.4,305.2 452.8,305.9 441.7,284.3 443.2,283.4 445,282.4 447.1,280.1 			"/>
			
				<linearGradient id="SVGID_9_" gradientUnits="userSpaceOnUse" x1="443.18" y1="409.3221" x2="459.14" y2="409.3221" gradientTransform="matrix(1 0 0 -1 0 701.9915)">
				<stop  offset="1.619648e-06" style="stop-color:#6B6D70"/>
				<stop  offset="0.1419" style="stop-color:#787A7D"/>
				<stop  offset="0.4069" style="stop-color:#9C9D9F"/>
				<stop  offset="0.7635" style="stop-color:#D5D5D6"/>
				<stop  offset="1" style="stop-color:#FEFEFE"/>
			</linearGradient>
			<polygon class="st17" points="459.1,304.2 454.4,305.2 443.2,283.4 445,282.4 447.1,280.1 			"/>
			
				<linearGradient id="SVGID_10_" gradientUnits="userSpaceOnUse" x1="407.3863" y1="394.2477" x2="449.2548" y2="407.0482" gradientTransform="matrix(1 0 0 -1 0 701.9915)">
				<stop  offset="6.819570e-07" style="stop-color:#FFFFFF;stop-opacity:0.1"/>
				<stop  offset="1" style="stop-color:#FEFEFE"/>
			</linearGradient>
			<path class="st18" d="M444.8,290.1c0,0-6,4.6-21.1,10.6l18.4-2.8c0,0-17.8,8.7-33.7,13.5c0.5-0.2,27.1-4.5,42.3-11.5L444.8,290.1
				z"/>
			<path class="st15" d="M474.6,236.3l0,0.2c-0.4,2.5-0.7,5-0.9,7.5c0,0.8-0.1,1.8-0.2,2.8l0,0.1c-1,1.5-2,3-2.9,4.5
				c-1.5,2.3-2.8,4.6-4.1,7c-0.9,1.6-1.8,3.3-2.7,4.9c-0.4,0.7-0.7,1.3-1,2c-0.6,0-1.1,0.1-1.7,0.2c-0.9,0.1-1.8,0.3-2.8,0.5
				c-1.8,0.4-3.7,0.9-5.3,1.4c-1.1,0.4-2.2,0.7-3,1.1c-5.5,2.3-9.1,3.8-12.7,5.7c-1.3,0.7-2.6,1.5-4,2.4c-1.3,0.8-2.6,1.8-4.1,2.8
				c-0.5,0.4-0.9,0.7-1.4,1c0.3-0.7,0.5-1.4,0.7-2c0-0.1,0-0.1,0.1-0.2c0.4-1.1,0.8-2.2,1.2-3.3c1.3-3.3,2.5-6.3,4-9.2
				c8.7-18.1,21.3-30.7,43.6-45.5C477,225.1,475.4,231.8,474.6,236.3z"/>
			
				<linearGradient id="SVGID_11_" gradientUnits="userSpaceOnUse" x1="427.83" y1="451.8521" x2="477.39" y2="451.8521" gradientTransform="matrix(1 0 0 -1 0 701.9915)">
				<stop  offset="0.3352" style="stop-color:#FEFEFE;stop-opacity:0"/>
				<stop  offset="0.5538" style="stop-color:#C3C4C5;stop-opacity:0.3288"/>
				<stop  offset="0.7572" style="stop-color:#939597;stop-opacity:0.6347"/>
				<stop  offset="0.912" style="stop-color:#76787B;stop-opacity:0.8676"/>
				<stop  offset="1" style="stop-color:#6B6D70"/>
			</linearGradient>
			<path class="st19" d="M474.6,236.3l0,0.2c-0.4,2.5-0.7,5-0.9,7.5c0,0.8-0.1,1.8-0.2,2.8l0,0.1c-1,1.5-2,3-2.9,4.5
				c-1.5,2.3-2.8,4.6-4.1,7c-0.9,1.6-1.8,3.3-2.7,4.9c-0.4,0.7-0.7,1.3-1,2c-0.6,0-1.1,0.1-1.7,0.2c-0.9,0.1-1.8,0.3-2.8,0.5
				c-1.8,0.4-3.7,0.9-5.3,1.4c-1.1,0.4-2.2,0.7-3,1.1c-5.5,2.3-9.1,3.8-12.7,5.7c-1.3,0.7-2.6,1.5-4,2.4c-1.3,0.8-2.6,1.8-4.1,2.8
				c-0.5,0.4-0.9,0.7-1.4,1c0.3-0.7,0.5-1.4,0.7-2c0-0.1,0-0.1,0.1-0.2c0.4-1.1,0.8-2.2,1.2-3.3c1.3-3.3,2.5-6.3,4-9.2
				c8.7-18.1,21.3-30.7,43.6-45.5C477,225.1,475.4,231.8,474.6,236.3z"/>
			<path class="st20" d="M473.5,246.9c-4,5.9-7.6,12-10.7,18.4c-4.6,0.3-8.8,1.4-13,3.1c5.5-13.6,13.5-22.7,24.8-31.9
				C474,240,473.6,243.5,473.5,246.9z"/>
			<path class="st21" d="M483.9,261.5c-6.8-0.8-12.6,3.8-13.2,10.7c-0.6,6.9,4.1,12.5,10.9,13.3c2.4,0.3,4.6-0.1,6.6-1
				c1.1-0.7,2.2-1.4,3.3-2.2c0,0,0,0,0,0c2-1.9,3.3-4.5,3.5-7.5C495.6,267.8,490.7,262.3,483.9,261.5z"/>
			<path class="st21" d="M514.2,249.1c-3.6-0.4-6.7,1.8-7.1,5.5c-0.3,3.7,2.6,6.7,6.2,7.3c0.9,0.1,1.8,0.1,2.5-0.1c0,0,0,0,0,0
				c2.3-0.6,4.1-2.4,4.4-5l0-0.4C520.6,252.5,517.8,249.5,514.2,249.1z M513.5,259.9c-2.6-0.4-4.5-2.5-4.3-5
				c0.2-2.6,2.3-4.2,4.9-3.8c2.5,0.3,4.5,2.4,4.3,5C518.3,258.6,516.1,260.2,513.5,259.9z"/>
			<path class="st15" d="M532.9,237.6c-0.3-0.6-0.6-1.1-0.9-1.7c-2.2-4.5-3.7-9.5-4.4-15c-1.1,0.1-2.2,0.3-3.3,0.4
				c-0.7,0.1-1.5,0.2-2.3,0.3c-15.5,2.1-33.5,10.1-48.4,22.3c-5.8,4.7-11,10-15.5,15.8c0,0,0,0,0,0l0,0.1c-0.8,1.1-1.6,2.1-2.4,3.3
				c-1,1.3-1.8,2.7-2.6,4.1c-0.1,0-0.1,0.1-0.1,0.1c-2.7,4.4-4.9,9-6.5,13.8c2,4.2,6.5,12.2,9.4,17.3c0.8,1.5,1.5,2.7,2,3.6
				c0.2,0.3,0.3,0.6,0.4,0.8c0.2,0.3,0.3,0.5,0.5,0.8c0,0,0.1,0.1,0.2,0.3c0.1,0.1,0.1,0.2,0.2,0.3c0,0,0,0,0.1,0.1
				c0.1,0,0.3,0.1,0.4,0.1c0.6,0.1,1.2,0.1,1.8,0.1c1.5,0.1,3.1,0,4.8-0.1c0.1,0,0.1,0,0.2,0c1.1-0.1,2.1-0.2,3.2-0.2
				c3-0.2,5.9-0.4,8-0.2l0.4,0c0,0,0,0,0,0l0,0c3.3,0.5,7.3,0,11.5-0.8c0,0,0.1,0,0.1,0c0.1,0,0.1,0,0.1,0c3.4-0.7,6.8-1.6,10-2.6
				c0.1,0,0.1,0,0.2-0.1c3.5-1.1,6.7-2.2,9.2-3c0.2-0.1,0.5-0.2,0.8-0.3c0.8-0.3,1.5-0.5,2-0.7c0.3-0.1,0.5-0.1,0.7-0.2c0,0,0,0,0,0
				h0.1c0.2-0.1,0.3-0.1,0.5-0.2c0.2-0.1,0.4-0.2,0.6-0.3c0.1,0,0.1,0,0.1,0c0.1,0,0.1-0.1,0.2-0.1c4.2-1.6,8.1-3.8,11.8-6.5
				c0-0.1,0.1-0.1,0.1-0.1c11-8.2,20-20.6,26.5-32.6C544.1,252.3,537.3,245.8,532.9,237.6z"/>
			<path class="st15" d="M529.1,301.6c-27.5,16.8-43.8,17.9-76.1,17.3c9.8-6.2,17-6.6,25.2-15c0,0,0,0,0,0c0.1-0.1,0.1-0.1,0.2-0.2
				c1.9-2,4.4-6.2,5.6-9c7.8-0.3,15.7-0.3,23.3-0.9c3.2,1.4,1.8,0.8,5.1,2.2c0.1,0,0.2,0.1,0.3,0.1c0,0,0,0,0,0h0
				c0,0,0.1,0.1,0.1,0.1c0.3,0.1,0.5,0.2,0.7,0.3c0.6,0.3,1.2,0.5,1.8,0.7C519.5,298.9,523.4,300.1,529.1,301.6z"/>
			<path class="st22" d="M565.7,221.9c0,0,0,0.1,0,0.1l0,0.4c0,0,0,0.1,0,0.1c0,0,0,0.2-0.1,0.3c0,0,0,0.1,0,0.1c0,0.1,0,0.1,0,0.2
				l0,0.1c0,0.1,0,0.2-0.1,0.3c0,0.1,0,0.1-0.1,0.2c0,0.4-0.1,0.9-0.3,1.3c-0.1,0.2-0.1,0.5-0.1,0.7c0,0.2-0.1,0.3-0.1,0.5
				c0,0.1,0,0.3-0.1,0.5l0,0.1c-0.1,0.2-0.1,0.5-0.2,0.7c0,0.1,0,0.2-0.1,0.3c-0.2,1.2-0.6,2.3-0.9,3.4c-0.4,1.3-0.8,2.6-1.2,4
				c-1.9,6.2-5.9,15.5-7.8,18.6c-0.4-0.2-0.7-0.3-1.1-0.5c-0.1,0-0.1,0-0.2,0c-12.8-6.1-20.6-17.6-22.6-32.6
				c1.8-0.1,3.5-0.2,5.3-0.2c0.4,0,0.8-0.1,1.1,0c3.3-0.1,6.6-0.1,9.9-0.1c0.9,0,1.7,0,2.6,0c0.7,0,1.3,0,2,0.1
				c1.1,0.1,2.2,0.1,3.2,0.2c0.7,0,1.4,0.1,2.1,0.2C559.8,221.1,562.8,221.4,565.7,221.9z"/>
			
				<linearGradient id="SVGID_12_" gradientUnits="userSpaceOnUse" x1="538.3511" y1="487.4392" x2="564.0242" y2="455.7355" gradientTransform="matrix(1 0 0 -1 0 701.9915)">
				<stop  offset="0" style="stop-color:#F8931D;stop-opacity:0"/>
				<stop  offset="0.2677" style="stop-color:#F48225;stop-opacity:0.3028"/>
				<stop  offset="0.6144" style="stop-color:#EF722D;stop-opacity:0.6952"/>
				<stop  offset="0.8838" style="stop-color:#EE6C30"/>
			</linearGradient>
			<path class="st23" d="M565.7,221.9c0,0,0,0.1,0,0.1l0,0.4c0,0,0,0.1,0,0.1c0,0,0,0.2-0.1,0.3c0,0,0,0.1,0,0.1c0,0.1,0,0.1,0,0.2
				l0,0.1c0,0.1,0,0.2-0.1,0.3c0,0.1,0,0.1-0.1,0.2c0,0.4-0.1,0.9-0.3,1.3c-0.1,0.2-0.1,0.5-0.1,0.7c0,0.2-0.1,0.3-0.1,0.5
				c0,0.1,0,0.3-0.1,0.5l0,0.1c-0.1,0.2-0.1,0.5-0.2,0.7c0,0.1,0,0.2-0.1,0.3c-0.2,1.2-0.6,2.3-0.9,3.4c-0.4,1.3-0.8,2.6-1.2,4
				c-1.9,6.2-5.9,15.5-7.8,18.6c-0.4-0.2-0.7-0.3-1.1-0.5c-0.1,0-0.1,0-0.2,0c-12.8-6.1-20.6-17.6-22.6-32.6
				c1.8-0.1,3.5-0.2,5.3-0.2c0.4,0,0.8-0.1,1.1,0c3.3-0.1,6.6-0.1,9.9-0.1c0.9,0,1.7,0,2.6,0c0.7,0,1.3,0,2,0.1
				c1.1,0.1,2.2,0.1,3.2,0.2c0.7,0,1.4,0.1,2.1,0.2C559.8,221.1,562.8,221.4,565.7,221.9z"/>
			
				<linearGradient id="SVGID_13_" gradientUnits="userSpaceOnUse" x1="452.9599" y1="424.5179" x2="552.5699" y2="424.5179" gradientTransform="matrix(1 0 0 -1 0 701.9915)">
				<stop  offset="1.619648e-06" style="stop-color:#6B6D70"/>
				<stop  offset="0.1419" style="stop-color:#787A7D"/>
				<stop  offset="0.4069" style="stop-color:#9C9D9F"/>
				<stop  offset="0.7635" style="stop-color:#D5D5D6"/>
				<stop  offset="1" style="stop-color:#FEFEFE"/>
			</linearGradient>
			<path class="st24" d="M513.3,296c-0.1,0.1-0.3,0.2-0.5,0.3c0.3,0.1,0.5,0.2,0.7,0.3c0.6,0.3,1.2,0.5,1.8,0.7
				c4.1,1.6,8.1,2.8,13.7,4.3c-27.5,16.8-43.8,17.9-76.1,17.3c9.8-6.2,17-6.6,25.2-15l-0.4,0c-2.1-0.2-5.1,0-8,0.2
				c-1.1,0.1-2.1,0.2-3.2,0.2c-0.1,0-0.1,0-0.2,0c-1.7,0.1-3.4,0.2-4.8,0.1c-0.6,0-1.2,0-1.8-0.1c-0.1,0-0.3,0-0.4-0.1
				c0,0,0-0.1-0.1-0.1c-0.1-0.1-0.1-0.3-0.2-0.3c34.2-8,61.8-34,73-67.9c0.3,0.6,0.6,1.1,0.9,1.7c4.4,8.2,11.2,14.6,19.7,18.8
				c-6.5,12-15.5,24.5-26.5,32.6c-0.1,0-0.1,0-0.1,0.1c-3.7,2.7-7.6,5-11.8,6.5c-0.1,0-0.1,0.1-0.2,0.1c0,0-0.1,0-0.1,0
				C513.7,295.8,513.5,295.9,513.3,296z"/>
			<path class="st25" d="M515.3,297.3c0.3,0.1,0.6,0.3,0.9,0.4c-8.8,2.9-17.5,4.6-26.5,5.5c0,0,0,0-0.1,0c-2.3,0.3-4.7,0.4-7.1,0.6
				c6-0.6,11.7-1.7,17.2-3.2c0.1,0,0.1,0,0.2-0.1c3.1-0.8,6.2-1.8,9.2-3c0.2-0.1,0.5-0.2,0.8-0.3c0.8-0.3,1.6-0.7,2.5-1
				c1.9-0.8,3.9-1.7,5.8-2.7c-1.4,0.8-2.9,1.6-4.4,2.4c-0.2,0.1-0.4,0.2-0.6,0.3c-0.1,0.1-0.3,0.2-0.5,0.3c0.3,0.1,0.5,0.2,0.7,0.3
				C514.1,296.8,514.8,297.1,515.3,297.3z"/>
			<circle class="st10" cx="482.3" cy="274.6" r="11.8"/>
			<circle class="st22" cx="482.3" cy="274.6" r="8.4"/>
			
				<linearGradient id="SVGID_14_" gradientUnits="userSpaceOnUse" x1="488.1121" y1="421.2925" x2="476.4279" y2="433.3918" gradientTransform="matrix(1 0 0 -1 0 701.9915)">
				<stop  offset="0.1162" style="stop-color:#EE6C30"/>
				<stop  offset="0.3856" style="stop-color:#EF722D;stop-opacity:0.6952"/>
				<stop  offset="0.7323" style="stop-color:#F48225;stop-opacity:0.3028"/>
				<stop  offset="1" style="stop-color:#F8931D;stop-opacity:0"/>
			</linearGradient>
			<circle class="st26" cx="482.3" cy="274.6" r="8.4"/>
			<circle class="st10" cx="512.8" cy="254.2" r="8.3"/>
			<circle class="st22" cx="512.8" cy="254.2" r="5.9"/>
			
				<linearGradient id="SVGID_15_" gradientUnits="userSpaceOnUse" x1="506.89" y1="447.7921" x2="518.63" y2="447.7921" gradientTransform="matrix(1 0 0 -1 0 701.9915)">
				<stop  offset="0" style="stop-color:#F8931D;stop-opacity:0"/>
				<stop  offset="0.2677" style="stop-color:#F48225;stop-opacity:0.3028"/>
				<stop  offset="0.6144" style="stop-color:#EF722D;stop-opacity:0.6952"/>
				<stop  offset="0.8838" style="stop-color:#EE6C30"/>
			</linearGradient>
			<circle class="st27" cx="512.8" cy="254.2" r="5.9"/>
			<g>
				<g>
					<path class="st28" d="M473.7,244c0-2,0.3-4,0.5-6c0.2-2,0.6-4,1-6c0.4-2,0.7-4,1-6c0.3-2,0.6-4,0.7-6l0.7,0.4
						c-5.3,3.6-10.5,7.5-15.5,11.5c-5,4.1-9.7,8.4-13.9,13.2c-4.2,4.8-8,10-11.1,15.6c-0.8,1.4-1.5,2.8-2.3,4.2
						c-0.7,1.4-1.4,2.9-2.1,4.3c-1.3,2.9-2.5,5.9-3.6,8.9l-0.1,0.1c0,0,0-0.1,0,0l0,0.1l0,0.1l-0.8,2l-0.7-0.5l1.4-1l1.5-1
						c1-0.6,2-1.4,3-2c2.1-1.2,4.1-2.4,6.3-3.4c2.2-1,4.4-1.9,6.6-2.8l3.3-1.3c1.1-0.4,2.3-0.7,3.4-1.1c-1.1,0.4-2.2,0.8-3.3,1.3
						l-3.3,1.4c-2.2,1-4.3,1.9-6.4,3c-2.1,1-4.1,2.3-6.1,3.5c-1,0.6-1.9,1.3-2.9,2l-1.4,1l-1.4,1.1l-1.3,1l0.5-1.5l0.7-2.1l0,0.1
						c0-0.1,0-0.3,0.1-0.4l-0.1,0.1c1-3.1,2.1-6.1,3.5-9.1c0.6-1.5,1.4-3,2.1-4.4c0.7-1.5,1.5-2.9,2.3-4.3c3.1-5.7,6.9-11,11.2-15.9
						c4.3-4.9,9.1-9.2,14.2-13.3c5-4.1,10.4-7.7,15.8-11.3l0.8-0.5l-0.1,0.9c-0.4,4.1-1.3,8-2.1,12c-0.4,2-0.9,3.9-1.2,5.9
						C474.2,240,473.8,241.9,473.7,244z"/>
				</g>
				<g>
					<path class="st28" d="M512.8,296.2c0.2-0.1,0.3-0.1,0.4-0.3l0,0c0.2-0.1,0.4-0.2,0.5-0.3h0h0c0,0,0.1,0,0.1,0l0,0h0
						c2.1-0.9,4.2-1.9,6.2-3c2-1.1,3.9-2.4,5.7-3.8l-0.1,0.1c0,0,0.1-0.1,0.2-0.2l0.1,0l0,0c5.6-4.3,10.4-9.4,14.7-15
						c2.2-2.8,4.2-5.7,6-8.6c1.9-3,3.7-6,5.3-9.1l0.3,0.9c-3.4-1.7-6.7-3.7-9.6-6.2c-2.9-2.5-5.5-5.3-7.7-8.4
						c-2.2-3.1-4-6.6-5.3-10.2c-1.3-3.6-2.2-7.3-2.7-11.1l0.7,0.5c-4.9,0.5-9.8,1.3-14.6,2.5c-4.8,1.2-9.5,2.9-14,4.8
						c-9.1,3.9-17.7,9-25.5,15.1c3.8-3.2,7.8-6.1,12-8.8s8.6-5,13.1-7.1s9.2-3.8,14-5.1c2.4-0.6,4.9-1.2,7.3-1.6l3.7-0.6l3.7-0.5
						l0.6-0.1l0.1,0.6c0.5,3.7,1.4,7.3,2.7,10.8c1.3,3.5,3,6.8,5.1,9.8c2.1,3,4.6,5.8,7.4,8.2c2.8,2.4,6,4.4,9.3,6.1l0.6,0.3
						l-0.3,0.6c-3.4,6.2-7.3,12.2-11.7,17.7c-4.5,5.5-9.4,10.7-15.2,14.8l0,0l0,0c0,0-0.1,0,0,0c0,0,0.1-0.1,0-0.1l-0.1,0.1
						c-1.9,1.3-3.8,2.5-5.8,3.6c-1,0.5-2,1.1-3.1,1.5c-1,0.5-2.1,0.9-3.2,1.3l0,0c-0.1,0-0.1,0-0.2,0h0c-0.2,0.1-0.4,0.2-0.6,0.3
						l0,0C513.1,296.1,512.9,296.1,512.8,296.2z"/>
				</g>
				<g>
					<path class="st28" d="M477.7,303.9l0.4,0h0l0,0c-1.7,1.8-3.5,3.5-5.5,4.9c-2,1.4-4.2,2.6-6.4,3.8s-4.5,2.1-6.6,3.2
						c-2.2,1.1-4.3,2.3-6.4,3.6l-0.3-1c6.6,0,13.2,0.1,19.8-0.2c6.6-0.3,13.2-0.9,19.6-2.1c6.5-1.2,12.8-3.2,18.8-5.8
						c6.1-2.6,11.9-5.6,17.6-9l0.1,0.7c-2.8-0.8-5.5-1.6-8.2-2.5c-2.7-0.9-5.4-2-8-3.2c2.7,1,5.3,2,8.1,2.8c2.7,0.8,5.5,1.5,8.3,2.2
						l0.8,0.2l-0.7,0.5c-5.6,3.5-11.4,6.8-17.5,9.5c-6.1,2.7-12.5,4.8-19,6.1c-6.5,1.3-13.2,1.8-19.9,2c-6.6,0.2-13.3,0.1-19.9-0.1
						l-1.7,0l1.5-0.9c2.1-1.3,4.3-2.5,6.5-3.5s4.5-2,6.7-3c2.2-1,4.4-2.1,6.5-3.5c2-1.3,4-2.9,5.7-4.6l0,0L477.7,303.9z"/>
				</g>
				<g>
					<path class="st28" d="M452.9,267.3c-1.2,2.2-2.4,4.5-3.3,6.8c-1,2.3-1.9,4.7-2.7,7.1l0-0.4c1.9,3.6,3.9,7.2,5.9,10.8l3,5.4
						c1,1.8,2,3.6,3,5.5l0-0.1l0.5,0.8l-0.1-0.1c0.1,0.1,0.2,0.3,0.3,0.4l0.2,0.4l-0.5-0.3c0.1,0,0.3,0,0.4,0.2
						c0.1,0.1,0.1,0.1,0.1,0.1c0,0,0,0-0.1-0.1l-0.3-0.2c0.1,0,0.2,0,0.3,0l0.1,0l1.6,0.1c0.5,0,1.1,0.1,1.6,0.1
						c1.1,0,2.2,0,3.3-0.1l0.2,0c-0.2-0.1-0.2,0-0.1,0l0.2,0l0.4,0l0.7,0l1.4-0.1c1,0,1.9-0.1,2.9-0.1c1.9,0,3.8,0,5.7,0.2
						c-1.9-0.1-3.8,0.1-5.7,0.3l-2.9,0.3l-1.4,0.1l-0.7,0.1l-0.4,0l-0.2,0c0,0-0.1,0.1-0.4,0l0.2,0c-1.1,0.1-2.2,0.2-3.3,0.3
						c-1.1,0-2.2,0-3.4-0.1l0.1,0l-0.5-0.1l-0.2,0l-0.2-0.1c-0.1-0.1-0.1-0.1-0.1-0.1s0,0,0.1,0.1s0.3,0.1,0.4,0.1l-0.5-0.3
						l-0.2-0.3l-0.2-0.2l-0.1-0.1l0,0l-0.5-0.8l0,0l0,0c-0.5-0.9-1-1.8-1.5-2.7l-1.5-2.7c-1-1.8-2-3.6-3-5.4c-1-1.8-2-3.6-3-5.4
						c-1-1.8-1.9-3.7-2.8-5.6l-0.1-0.2l0.1-0.2c0.9-2.4,1.9-4.8,3.1-7C450.2,271.6,451.5,269.4,452.9,267.3z"/>
				</g>
			</g>
		</g>
		<path class="st16" d="M262.7,457.5c16-29.1,32.5-57.9,48.6-86.9c-1.8,1.1-2.7,3.1-3.9,4.7c-12.9,18-25.8,36-38.6,54
			c-6.5,9.4-13.6,18.6-19.6,28.3c6.6,9.5,13.5,18.9,20.2,28.4c0.3,0.5,0.8,1.7,1.1,2.2c-4.9-0.1-9.8,0.1-14.7-0.1
			c-4-5.7-8.1-11.3-12-16.9c-0.7-1-1.5-2-2.6-2.7c-18.1,25.8-36.8,51.2-54.8,77c3.5-2.5,6.1-6.2,9.2-9.2
			c15.2-16.2,30.6-32.4,45.7-48.7c3.4,3.2,5.6,7.3,8.3,11c14.1,0.3,28.2,0.1,42.3,0.1c-1.1-2.7-3.1-4.8-4.7-7.1
			C279,480.2,270.9,468.8,262.7,457.5z"/>
		
			<linearGradient id="SVGID_16_" gradientUnits="userSpaceOnUse" x1="164.7141" y1="210.0691" x2="332.9359" y2="278.035" gradientTransform="matrix(1 0 0 -1 0 701.9915)">
			<stop  offset="0" style="stop-color:#F8931D;stop-opacity:0"/>
			<stop  offset="0.1765" style="stop-color:#F68922;stop-opacity:0.2273"/>
			<stop  offset="0.7765" style="stop-color:#EE6C30"/>
		</linearGradient>
		<path class="st29" d="M287.1,491.5c1.6,2.4,4.7,7.1,4.7,7.1s-28.2,0.2-42.3-0.1l-1-1.4c-1.8-2.6-3.4-5.3-5.5-7.7
			c-0.6-0.7-1.2-1.3-1.8-1.9c-15.1,16.3-30.5,32.4-45.7,48.7c-3.1,3-5.6,6.7-9.1,9.2c15.9-22.7,32.3-45.1,48.3-67.7
			c2.2-3.1,4.4-6.2,6.6-9.3c1.1,0.7,1.9,1.7,2.6,2.7c3.9,5.7,8.1,11.3,12,17c4.9,0.2,9.8,0,14.7,0.1c-0.3-0.6-0.8-1.7-1-2.2
			c-6.8-9.4-13.6-18.8-20.2-28.4c6.1-9.6,13.2-18.9,19.7-28.3c12.9-18,25.8-36,38.6-54c1.2-1.6,2.1-3.6,3.9-4.7
			c-16.1,29-32.7,57.9-48.6,86.9C270.9,468.8,279,480.2,287.1,491.5z"/>
		<path class="st16" d="M233.6,457.5c-6.6-9.5-13.5-19.2-20.3-28.7c-0.3-0.5-0.8-1.6-1.1-2.2c4.9,0.1,9.8-0.1,14.7,0.1
			c3.9,5.7,8.1,11.3,12,16.9c0.7,1,1.5,2,2.6,2.7c18.1-25.8,36.8-51.2,54.8-77c-3.5,2.5-6.1,6.2-9.2,9.2
			c-15.2,16.2-30.6,32.4-45.7,48.7c-3.4-3.1-5.6-7.3-8.3-11c-14.1-0.3-28.2-0.1-42.3-0.1c1.1,2.6,3.1,4.8,4.7,7.1
			c8.1,11.4,16.3,22.8,24.4,34.2c-15.9,29.1-32.6,57.8-48.7,86.8c1.8-1.1,2.7-3.1,3.9-4.7c12.9-18,25.8-36,38.6-54
			C220.5,476.1,227.6,467.1,233.6,457.5z"/>
		
			<linearGradient id="SVGID_17_" gradientUnits="userSpaceOnUse" x1="150.6437" y1="214.8748" x2="317.2364" y2="275.5095" gradientTransform="matrix(1 0 0 -1 0 701.9915)">
			<stop  offset="0.2235" style="stop-color:#EE6C30"/>
			<stop  offset="0.8235" style="stop-color:#F68922;stop-opacity:0.2273"/>
			<stop  offset="1" style="stop-color:#F8931D;stop-opacity:0"/>
		</linearGradient>
		<path class="st30" d="M296.5,369.4c-15.9,22.7-32.2,45-48.3,67.6c-2.2,3.1-4.4,6.2-6.6,9.3c-1.1-0.7-1.9-1.7-2.6-2.7
			c-3.9-5.7-8.1-11.3-12-16.9c-4.9-0.2-9.8-0.1-14.7-0.1c0.3,0.6,0.8,1.6,1.1,2.2c6.8,9.4,13.6,19.1,20.2,28.6
			c-6.1,9.6-13.1,18.6-19.7,28c-12.9,18-25.8,36-38.6,54c-1.2,1.6-2.1,3.6-3.9,4.7c16.1-29,32.8-57.7,48.7-86.8
			c-8.1-11.3-16.4-22.8-24.5-34.2c-1.6-2.4-3.6-4.5-4.7-7.1c14.1,0.1,28.2-0.2,42.3,0.1l1,1.4c1.9,2.7,3.5,5.5,5.7,7.9
			c0.5,0.6,1,1.2,1.6,1.7c15.1-16.3,30.5-32.4,45.7-48.7C290.4,375.5,292.9,371.9,296.5,369.4z"/>
		<path class="st11" d="M296.5,369.4c-15.7,22.4-31.8,44.4-47.6,66.7c-0.2,0.3-0.4,0.6-0.6,0.9l-6.9-9.6c0.1-0.1,0.1-0.1,0.2-0.2
			c0,0,0,0,0,0c0.6-0.7,1.3-1.4,2-2.1c14.5-15.6,29.2-31,43.8-46.5C290.4,375.5,292.9,371.9,296.5,369.4z"/>
		<path class="st31" d="M248.8,436.1c-0.2,0.3-0.4,0.6-0.6,0.9l-6.9-9.6c0.1-0.1,0.1-0.1,0.2-0.2c0,0,0,0,0,0c0.6-0.7,1.3-1.4,2-2.1
			L248.8,436.1z"/>
		<path class="st11" d="M241.5,487.3c-0.1,0.1-0.1,0.1-0.1,0.2c0,0-0.1,0.1-0.1,0.2c0,0,0-0.1,0-0.1c-0.9,1-1.8,1.9-2.7,2.9
			c-14.2,15.3-28.7,30.5-43,45.8c-3.1,3-5.6,6.7-9.1,9.2c15.5-22.1,31.4-43.9,47-65.9c0.4-0.6,0.9-1.2,1.3-1.8L241.5,487.3z"/>
		<path class="st31" d="M241.5,487.3c-0.1,0.1-0.1,0.1-0.1,0.2c0,0-0.1,0.1-0.1,0.2c0,0,0-0.1,0-0.1c-0.9,1-1.8,1.9-2.7,2.9l-5.2-11
			c0.4-0.6,0.9-1.2,1.3-1.8L241.5,487.3z"/>
		
			<radialGradient id="SVGID_18_" cx="571" cy="542.8322" r="10.25" gradientTransform="matrix(1 0 0 -1 0 701.9915)" gradientUnits="userSpaceOnUse">
			<stop  offset="0" style="stop-color:#FFFFFF"/>
			<stop  offset="0.781" style="stop-color:#FFFFFF;stop-opacity:0"/>
		</radialGradient>
		<circle class="st32" cx="571" cy="159.2" r="10.3"/>
		
			<radialGradient id="SVGID_19_" cx="322.77" cy="445.8421" r="4.594" gradientTransform="matrix(1 0 0 -1 0 701.9915)" gradientUnits="userSpaceOnUse">
			<stop  offset="0" style="stop-color:#FFFFFF"/>
			<stop  offset="0.781" style="stop-color:#FFFFFF;stop-opacity:0"/>
		</radialGradient>
		<circle class="st33" cx="322.8" cy="256.1" r="4.6"/>
		
			<radialGradient id="SVGID_20_" cx="346.47" cy="344.3021" r="5.19" gradientTransform="matrix(1 0 0 -1 0 701.9915)" gradientUnits="userSpaceOnUse">
			<stop  offset="0" style="stop-color:#FFFFFF"/>
			<stop  offset="0.781" style="stop-color:#FFFFFF;stop-opacity:0"/>
		</radialGradient>
		<circle class="st34" cx="346.5" cy="357.7" r="5.2"/>
		
			<radialGradient id="SVGID_21_" cx="403.11" cy="486.6621" r="13.28" gradientTransform="matrix(1 0 0 -1 0 701.9915)" gradientUnits="userSpaceOnUse">
			<stop  offset="0" style="stop-color:#FFFFFF"/>
			<stop  offset="0.781" style="stop-color:#FFFFFF;stop-opacity:0"/>
		</radialGradient>
		<circle class="st35" cx="403.1" cy="215.3" r="13.3"/>
		
			<radialGradient id="SVGID_22_" cx="415.76" cy="451.2821" r="15.42" gradientTransform="matrix(1 0 0 -1 0 701.9915)" gradientUnits="userSpaceOnUse">
			<stop  offset="0" style="stop-color:#FFFFFF"/>
			<stop  offset="0.781" style="stop-color:#FFFFFF;stop-opacity:0"/>
		</radialGradient>
		<circle class="st36" cx="415.8" cy="250.7" r="15.4"/>
		
			<radialGradient id="SVGID_23_" cx="459.14" cy="377.4321" r="15.42" gradientTransform="matrix(1 0 0 -1 0 701.9915)" gradientUnits="userSpaceOnUse">
			<stop  offset="0" style="stop-color:#FFFFFF"/>
			<stop  offset="0.781" style="stop-color:#FFFFFF;stop-opacity:0"/>
		</radialGradient>
		<circle class="st37" cx="459.1" cy="324.6" r="15.4"/>
		
			<radialGradient id="SVGID_24_" cx="519.15" cy="352.0621" r="15.42" gradientTransform="matrix(1 0 0 -1 0 701.9915)" gradientUnits="userSpaceOnUse">
			<stop  offset="0" style="stop-color:#FFFFFF"/>
			<stop  offset="0.781" style="stop-color:#FFFFFF;stop-opacity:0"/>
		</radialGradient>
		<circle class="st38" cx="519.1" cy="349.9" r="15.4"/>
		
			<radialGradient id="SVGID_25_" cx="532.89" cy="400.1421" r="15.42" gradientTransform="matrix(1 0 0 -1 0 701.9915)" gradientUnits="userSpaceOnUse">
			<stop  offset="0" style="stop-color:#FFFFFF"/>
			<stop  offset="0.781" style="stop-color:#FFFFFF;stop-opacity:0"/>
		</radialGradient>
		<circle class="st39" cx="532.9" cy="301.8" r="15.4"/>
		
			<radialGradient id="SVGID_26_" cx="479.14" cy="483.9621" r="15.42" gradientTransform="matrix(1 0 0 -1 0 701.9915)" gradientUnits="userSpaceOnUse">
			<stop  offset="0" style="stop-color:#FFFFFF"/>
			<stop  offset="0.781" style="stop-color:#FFFFFF;stop-opacity:0"/>
		</radialGradient>
		<circle class="st40" cx="479.1" cy="218" r="15.4"/>
		
			<radialGradient id="SVGID_27_" cx="528.88" cy="513.4921" r="15.42" gradientTransform="matrix(1 0 0 -1 0 701.9915)" gradientUnits="userSpaceOnUse">
			<stop  offset="0" style="stop-color:#FFFFFF"/>
			<stop  offset="0.781" style="stop-color:#FFFFFF;stop-opacity:0"/>
		</radialGradient>
		<circle class="st41" cx="528.9" cy="188.5" r="15.4"/>
		
			<radialGradient id="SVGID_28_" cx="485.86" cy="431.5321" r="15.42" gradientTransform="matrix(1 0 0 -1 0 701.9915)" gradientUnits="userSpaceOnUse">
			<stop  offset="0" style="stop-color:#FFFFFF"/>
			<stop  offset="0.781" style="stop-color:#FFFFFF;stop-opacity:0"/>
		</radialGradient>
		<circle class="st42" cx="485.9" cy="270.5" r="15.4"/>
	</g>
</g>
</svg>
