<?xml version="1.0" encoding="utf-8"?>
<!-- Generator: Adobe Illustrator 23.0.3, SVG Export Plug-In . SVG Version: 6.00 Build 0)  -->
<svg version="1.1" id="Layer_1" xmlns="http://www.w3.org/2000/svg" xmlns:xlink="http://www.w3.org/1999/xlink" x="0px" y="0px"
	 viewBox="0 0 919.1 673.4" style="enable-background:new 0 0 919.1 673.4;" xml:space="preserve">
<style type="text/css">
	.st0{fill:url(#SVGID_1_);}
	.st1{fill:url(#SVGID_2_);}
	.st2{fill:url(#SVGID_3_);}
	.st3{fill:url(#SVGID_4_);}
	.st4{fill:url(#SVGID_5_);}
	.st5{fill:url(#SVGID_6_);}
	.st6{fill:url(#SVGID_7_);}
	.st7{fill:url(#SVGID_8_);}
	.st8{fill:#FEFEFE;}
	.st9{fill:#F9AC3F;}
	.st10{opacity:0.1;fill:#4D4D4D;enable-background:new    ;}
	.st11{fill:#CCD0D6;}
	.st12{fill:#FFFFFF;}
	.st13{fill:#EE6C30;}
	.st14{opacity:0.41;fill:url(#SVGID_9_);enable-background:new    ;}
	.st15{fill:url(#SVGID_10_);}
	.st16{opacity:0.38;fill:url(#SVGID_11_);enable-background:new    ;}
	.st17{opacity:0.62;fill:#A3A4A6;enable-background:new    ;}
	.st18{fill:none;}
	.st19{fill:#F9AF42;}
	.st20{fill:url(#SVGID_12_);}
	.st21{opacity:0.64;fill:url(#SVGID_13_);enable-background:new    ;}
	.st22{fill:#A3A4A6;}
	.st23{fill:#4D4D4D;}
	.st24{fill:url(#SVGID_14_);}
	.st25{fill:url(#SVGID_15_);}
	.st26{fill:#A3A3A3;}
	.st27{opacity:0.5;fill:url(#SVGID_16_);enable-background:new    ;}
	.st28{opacity:0.5;fill:url(#SVGID_17_);enable-background:new    ;}
	.st29{opacity:0.18;fill:#4D4D4D;enable-background:new    ;}
	.st30{fill:url(#SVGID_18_);}
	.st31{fill:url(#SVGID_19_);}
	.st32{fill:url(#SVGID_20_);}
	.st33{fill:url(#SVGID_21_);}
	.st34{fill:url(#SVGID_22_);}
	.st35{fill:url(#SVGID_23_);}
	.st36{fill:url(#SVGID_24_);}
	.st37{fill:url(#SVGID_25_);}
</style>
<g>
	<rect width="919.1" height="673.4"/>
</g>
<g>
	<g>
		<g>
			
				<linearGradient id="SVGID_1_" gradientUnits="userSpaceOnUse" x1="350.2312" y1="360.8951" x2="591.4883" y2="326.9887" gradientTransform="matrix(1 0 0 1 0 -90.0085)">
				<stop  offset="0.1028" style="stop-color:#2E2E2E"/>
				<stop  offset="0.3507" style="stop-color:#292929"/>
				<stop  offset="0.6587" style="stop-color:#191919"/>
				<stop  offset="0.9974" style="stop-color:#000000"/>
				<stop  offset="1" style="stop-color:#000000"/>
			</linearGradient>
			<path class="st0" d="M592.4,247c-0.2-4.4-0.8-10.4-1.7-14.7c-1.2-5.8-3.1-13.6-5-19.2c-1.9-5.5-4.9-12.6-7.7-17.7
				c-3.7-6.8-10.3-18-22.6-30.1c-4-3.9-9.8-8.7-14.3-12c-4.6-3.2-10.9-7.1-15.9-9.6c-4.9-2.5-11.8-5.3-17.1-7.1
				c-2.7-0.9-6.4-1.9-9.1-2.6c-2.2-0.6-5.3-1.1-7.6-1.6c-5.5-1-11.4-1.5-17.6-1.7c-3.8-0.1-9.8,0-17.1,0.8c-0.5,0.1-1,0.1-1.6,0.2
				c0,0,0,0-0.1,0c-0.2,0-0.3,0.1-0.5,0.1c-0.1,0-0.2,0-0.3,0c-3.9,0.6-9.2,1.5-14.9,3.1c-5.7,1.6-11.2,3.5-16.8,5.9
				c-4.4,1.9-10.1,4.8-14.1,7.3c-2.2,1.3-5,3.1-7,4.6c-2.6,1.8-6,4.4-8.4,6.5c-4.2,3.7-9.6,8.9-13.3,13.1c-1.2,1.4-2.5,2.9-3.8,4.6
				c-0.1,0.1-0.3,0.3-0.4,0.5c-1,1.3-2,2.6-3,4c-0.1,0.1-0.2,0.3-0.3,0.5c-0.9,1.3-1.9,2.6-2.7,3.9c-0.3,0.4-0.5,0.8-0.8,1.2
				c-0.1,0.1-0.2,0.2-0.2,0.3c-0.7,1.1-1.3,2.1-2,3.2c-0.1,0.2-0.2,0.3-0.3,0.5c-0.7,1.2-1.4,2.4-2,3.5c-0.1,0.2-0.2,0.3-0.3,0.5
				c-0.7,1.3-1.3,2.5-1.9,3.7c-0.1,0.2-0.2,0.3-0.2,0.5c-0.8,1.6-1.6,3.2-2.2,4.8c-0.4,1-0.9,2-1.3,3c-2.4,5.9-3.9,11-5,15
				c-1.5,5.6-2.9,13.2-3.5,19c-0.2,2.1-0.4,4.5-0.5,7l0,0c0,0.1,0,0.3,0,0.5v0.2c0,0.2,0,0.4,0,0.6c0,1-0.1,2-0.1,3
				c0,0.3,0,0.5,0,0.7v3c0,0.2,0,0.4,0,0.5c0,0.2,0,0.5,0,0.7c0,0.3,0,0.6,0,0.9c0,0.8,0,1.6,0.1,2.4c0.1,2.4,0.3,5.2,0.6,7.9
				c0.1,0.5,0.1,1,0.2,1.5c0.2,1.2,0.4,2.4,0.6,3.6c0,0.1,0.1,0.2,0.1,0.3c0.1,0.5,0.2,1,0.3,1.4c0.3,1.5,0.6,3,1,4.7
				c0.1,0.6,0.3,1.3,0.5,2c1.1,4.3,2.3,8.9,3.5,12.6c0.5,1.4,1.1,2.9,1.8,4.4c6-1.3,12.1-2.1,18.2-3.2c5.9-1.1,11.4-3.4,17.3-4.4
				c3.1-0.5,5.4,1.4,6.3,3.8c0.3-0.1,0.6-0.2,0.8-0.3c2.4-1,4.9-2,7.3-3c8-3.4,16.3-7.4,24.8-11.8c2.2-1.2,4.5-2.4,6.8-3.7
				c0.2-0.1,0.3-0.2,0.5-0.3c0.6-0.3,1.1-0.6,1.7-0.9l-1.5-2.9l5.1-2.9l1-1.1c0,0,0.5-1.5,0.8-2l2-5.2l-5,2.3
				c-1.3,0.6-2.5,1.2-3.7,1.8c-0.1,0.1-0.2,0.1-0.3,0.2c-0.2,0.1-0.3,0.2-0.5,0.3c-1,0.6-2,1.1-3.1,1.8c-1.2,0.8-2.5,1.7-3.9,2.6
				c-0.5,0.4-0.9,0.7-1.4,1l-6.6,4.9c1.5-4.3,3.3-9.5,3.3-9.5v-0.3l0.2-0.3l0.1-0.2c0.2-0.7,0.5-1.4,0.7-2.1l0.3-0.9
				c1-2.6,2-4.9,2.9-7l0,0c0.2-0.5,0.4-0.9,0.6-1.3c0.2-0.4,0.4-0.7,0.5-1.1c2.6-5.3,5.5-10.3,8.9-14.9l0.5-0.5
				c-0.1,0-0.1,0-0.1-0.1c0.4-0.6,0.9-1.2,1.4-1.8c0.4-0.6,0.9-1.2,1.4-1.8c4.3-5.2,9.3-10.1,15.4-15.2c0.1-0.1,0.3-0.2,0.4-0.3
				c1.2-1,2.3-1.9,3.6-2.9c0.1-0.1,0.3-0.2,0.4-0.3c0.8-0.6,1.6-1.2,2.5-1.8c0.3-0.3,0.6-0.5,1-0.7c2.8-2.1,5.8-4.2,9.1-6.3l4.2-2.8
				l-0.3,5.1c-0.1,1.5-0.3,3.2-0.6,4.8c-0.1,0.4-0.1,0.8-0.2,1.2c-0.4,2.1-0.8,4.2-1.2,6.1l-1.2,6l4.5-3
				c9.6-6.3,19.8-11.1,29.8-13.9c0.3-0.1,0.6-0.2,0.9-0.3c2-0.6,4.1-1,6.1-1.4c0.3-0.1,0.5-0.1,0.8-0.1c1-0.2,2-0.3,2.9-0.5
				c0.6-0.1,1.3-0.2,1.9-0.3l4.9-0.6l0,0h0.4l1.5-0.2l0,0h0.1h1.4c2.8-0.2,5.7-0.3,8.6-0.3c0.2,0,0.4,0,0.7,0l0,0c0.3,0,0.5,0,0.8,0
				c2.8,0,5.6,0.1,8.6,0.3l0,0c0.2,0,0.4,0,0.6,0c1.3,0.1,2.7,0.1,4.2,0.3c1,0.1,2,0.2,2.9,0.3c0.2,0,0.4,0,0.6,0.1
				c2,0.2,3.8,0.4,5.4,0.6c1.3,0.2,2.3,0.3,3.3,0.4l0,0c0.4,0.1,0.7,0.1,1.1,0.2c-0.2,1.5-0.5,2.9-0.8,4c-0.3,1.2-0.7,2.5-1,3.6
				c-0.5,1.7-1,3.4-1.5,4.9c-2.1,6.8-4.1,12.1-5.8,16.2c-0.2,0.4-0.3,0.8-0.5,1.2c-2.3,5.4-4.1,8.3-4.6,8.9l-0.1,0.2l-0.1,0.2
				c-0.6,1.2-1.4,2.5-2.1,3.7c-0.4,0.8-0.9,1.6-1.4,2.4c-1.4,2.4-3.1,4.9-4.9,7.3c-0.1,0.2-0.2,0.3-0.3,0.5
				c-2.2,3.1-4.7,6.1-7.3,8.9c-0.3,0.3-0.6,0.6-0.8,0.9c-2,2-4,3.9-6.2,5.6l0,0c-0.1,0.1-0.2,0.2-0.4,0.3c-1,0.8-2.1,1.6-3.1,2.3
				l-0.3,0.2L529,280c-1.1,0.8-2.3,1.6-3.4,2.3c-0.1,0.1-0.1,0.1-0.2,0.1l-0.6,0.4l-3.6,2.3l4.8,1.4c0.9,0.3,1.9,0.6,2.9,0.8
				c0.2,0.1,2.8,0.7,5.6,1.5l0,0l1.5,1.5l-3.9,2.2l-0.1,0.1c-0.7,0.6-1.3,1.1-2,1.6c-0.9,0.7-1.8,1.3-2.8,2c-0.8,0.5-1.5,1-2.3,1.5
				c-0.1,0-0.1-0.1-0.1-0.1v0.2c-7,4.2-15.1,7.2-24.6,9.2c-0.1,0-0.3,0.1-0.5,0.1c-0.7,0.2-1.4,0.3-2.2,0.5h-0.2l-0.3,0.1l-0.5,0.1
				h-0.3l-0.4,0.1c-2.2,0.5-4.5,0.9-6.8,1.2c-0.2,0.1-0.3,0.1-0.5,0.1c-4,0.5-8.3,0.9-13.3,1.1c-0.4,0-0.8,0-1.2,0
				c-1,0-2.1,0.1-3.1,0.1c-0.4,0-0.8,0-1.2,0c-1.6,0-3.2,0-4.9,0c-3.2,0-6.6,0-10.2-0.1l-8.4-0.1l1.8-1.1l0.8-0.5l1-0.7l0.7-0.4
				l2.5-1.6l0.4-0.2c0,0,0.1,0,0.1-0.1c0.3-0.2,0.6-0.3,0.8-0.5c0.3-0.2,0.7-0.4,1-0.6c0.7-0.5,1.4-0.8,2.2-1.2
				c0.5-0.3,1.1-0.6,1.6-0.8c1.7-0.8,3.3-1.6,4.8-2.2l-0.7-4.4c-0.5,0-1.1-0.1-1.7-0.1h-0.3l-0.7,0.1l-3.6,0.8l-3.5,1.6l-1.1-2
				c-1.5,0.7-3.1,1.5-4.6,2.1c-0.3,0.2-0.7,0.3-1,0.5c-2.2,1-4.4,2-6.5,2.9c-0.4,0.2-0.8,0.4-1.1,0.5c-0.1,0.1-0.3,0.1-0.4,0.2
				c-0.3,0.1-0.6,0.3-0.9,0.4c-0.4,0.2-0.7,0.3-1.1,0.5c-0.7,0.3-1.4,0.6-2.2,0.9c-0.7,0.3-1.3,0.6-2,0.9c-3.5,1.4-6.9,2.8-10.3,4.1
				c-0.2,0.1-0.3,0.1-0.5,0.2c-0.9,0.3-1.8,0.7-2.7,1c-2.5,0.9-4.9,1.8-7.3,2.6c-6.2,2.1-12.3,3.9-18.1,5.5
				c-0.2,0.1-0.3,0.1-0.5,0.1c-0.4,0.1-0.8,0.2-1.3,0.3c-1.3,0.3-2.6,0.7-3.9,1c-0.4,0.1-0.8,0.2-1.2,0.3c-1.6,0.4-3.1,0.7-4.6,1
				c-0.2,0.1-0.3,0.1-0.5,0.1c-2.9,0.6-5.8,1.1-8.6,1.6c-0.2,0-0.4,0.1-0.6,0.1c-0.7,0.1-1.3,0.2-2,0.3c1.2,1.8,2.5,3.6,3.7,5.1
				c0.7,0.9,1.5,1.9,2.3,2.9c0.2,0.2,0.3,0.4,0.5,0.6c1.5,1.8,3.1,3.7,4.7,5.5c0.1,0.2,0.3,0.3,0.5,0.5c1.4,1.7,3,3.2,4.4,4.5
				c0.1,0.1,0.1,0.1,0.2,0.2c0.4,0.4,0.8,0.8,1.2,1.1c1.7,1.6,3.5,3.3,5.1,4.6c0.1,0.1,0.3,0.2,0.4,0.3l0.1,0.1
				c4.4,3.4,10.3,7.9,15,10.8c3.7,2.3,8.7,5,13.1,7c0.2,0.1,0.3,0.2,0.5,0.2c1,0.5,2,0.9,3,1.2c2.7,1,6.1,2.4,9,3.3
				c0.4,0.1,0.8,0.3,1.2,0.4h0.1c4.5,1.3,10.5,2.7,15.1,3.6c0.7,0.1,1.4,0.3,2.2,0.4c0.5,0.1,1,0.1,1.5,0.2c1.7,0.2,3.4,0.4,4.9,0.6
				c4.6,0.5,8,0.5,9.2,0.6c1,0,2.2,0,3.4,0c0.2,0,0.3,0,0.5,0c0.6,0,1.1,0,1.6,0c0.7,0,2.7-0.1,3.7-0.1c1.9-0.1,3.9-0.2,6.3-0.5
				c0.2,0,0.4,0,0.6-0.1c1.1-0.1,2.2-0.3,3.5-0.4c0.7-0.1,1.4-0.2,2.1-0.3c0.5-0.1,1-0.1,1.5-0.2c3.5-0.6,6.3-1.2,7.2-1.5
				c2.9-0.7,3.5-0.9,6.9-1.8c1.1-0.3,2.6-0.8,3.8-1.2c0.2-0.1,0.3-0.1,0.5-0.2l0,0c1.8-0.6,3.6-1.2,5.6-2.1c0.2-0.1,0.3-0.1,0.5-0.2
				c1.3-0.5,2.8-1.1,4.3-1.8c0.4-0.2,0.8-0.4,1.2-0.6c1.1-0.5,2.2-1,3.3-1.6c0.1,0,0.1,0,0.1-0.1c0.1-0.1,0.3-0.1,0.4-0.2
				s0.3-0.1,0.4-0.2c0.1-0.1,0.2-0.1,0.3-0.2c4.5-2.3,10.3-5.7,14.4-8.7c1.3-0.9,2.8-2,4.3-3.2c0.8-0.6,1.7-1.3,2.4-1.9
				c0.6-0.5,1.2-1,1.7-1.4c2.2-1.8,4.9-4.3,6.9-6.3c4-3.9,8.8-9.7,12.3-14c3.5-4.4,7.4-10.9,10.1-15.8c2.7-5,5.5-12,7.6-17.3
				c2.7-6.7,5.8-20.9,6.3-28.1C592.3,260.8,592.6,253,592.4,247z"/>
		</g>
		
			<linearGradient id="SVGID_2_" gradientUnits="userSpaceOnUse" x1="348.8842" y1="361.9615" x2="589.9501" y2="328.0819" gradientTransform="matrix(1 0 0 1 0 -90.0085)">
			<stop  offset="0.2056" style="stop-color:#F9AC3F"/>
			<stop  offset="0.4322" style="stop-color:#F79E3C;stop-opacity:0.7147"/>
			<stop  offset="0.8584" style="stop-color:#F07A33;stop-opacity:0.1782"/>
			<stop  offset="1" style="stop-color:#EE6C30;stop-opacity:0"/>
		</linearGradient>
		<path class="st1" d="M497.6,135.2c0.1,0,0.2,0,0.3,0.1l-55.6,55.6h-76.6c0.1-0.2,0.2-0.3,0.3-0.5h76l55.3-55.3
			C497.4,135.2,497.5,135.2,497.6,135.2z M440.8,185.7h-71.9c-0.3,0.4-0.6,0.8-0.8,1.2h73.3l52.5-52.5c-0.5-0.1-0.9-0.2-1.4-0.3
			L440.8,185.7z M439.2,181.4h-67.3c-0.1,0.1-0.2,0.3-0.3,0.5h67.8l48.5-48.5c-0.2,0-0.4-0.1-0.6-0.1L439.2,181.4z M475.5,139.6
			l-37.3,37.3h-62.8c-0.1,0.1-0.3,0.3-0.4,0.5h63.3l37.6-37.6v-7.7h-0.5L475.5,139.6L475.5,139.6z M442.2,135.5l-19.1,19.1H399
			c-1,0.8-2.2,1.6-3.3,2.4h28.4l23-23l0,0c-1.4,0.3-2.8,0.5-4.3,0.9L442.2,135.5z M363.5,194.4c-0.1,0.2-0.2,0.3-0.3,0.5h80.3
			l21.1,21c0.1-0.1,0.3-0.2,0.4-0.3l-21.2-21.2H363.5L363.5,194.4z M544.9,158.5l-2.7,2.7v19.4l-29.8,29.8c0.3-0.1,0.6-0.2,0.9-0.3
			l29.3-29.3v-19.4l2.6-2.6C545.1,158.7,545,158.6,544.9,158.5z M361.3,198.6c-0.1,0.2-0.2,0.3-0.3,0.5h79.6l20,20
			c0.1-0.1,0.3-0.2,0.4-0.3l-20.2-20.2H361.3L361.3,198.6z M557.8,170.3l-38.4,38.4c0.3-0.1,0.5-0.1,0.8-0.1l37.9-37.9
			C558,170.6,557.9,170.4,557.8,170.3z M446.7,191.4l-0.9,0.8l1.5,1.5l20.1,20.1c0.3-0.3,0.6-0.5,1-0.7l-20.2-20.2L446.7,191.4z
			 M529.7,176.4l-37.5,37.5h-11.4c-0.1,0.4-0.1,0.8-0.2,1.2h12.1l36.3-36.3l1.5-1.5L529.7,176.4z M474.1,187.9h-24.2v0.5h24.2V187.9
			z M476.9,185.1h-24.2v0.5h24.2V185.1z M479.8,182.2h-24.2v0.5h24.2V182.2z M482.6,179.4h-24.2v0.5h24.2V179.4z M485.5,176.5h-24.2
			v0.5h24.2V176.5z M488.3,173.7h-24.2v0.5h24.2V173.7z M491.2,170.8H467v0.5h24.2V170.8z M506.5,137.8L484,160.4l0.9,0.9l23-23
			c-0.4-0.1-0.8-0.3-1.2-0.4C506.6,137.8,506.6,137.8,506.5,137.8z M386.5,320v24.8c0.4,0.4,0.8,0.8,1.2,1.2v-26.3
			C387.3,319.8,386.9,319.9,386.5,320z M443.7,236l-0.6-0.6l-47.8,47.8l-8.9,8.9v7.6c0.4-0.1,0.8-0.3,1.2-0.4v-6.7l8.1-8.1
			l46.7-46.7c-0.1,0-0.1,0-0.1-0.1C442.8,237.2,443.3,236.6,443.7,236z M420,212.1l-34.4,34.4h-26.4l-11.3,11.3c0,0.2,0,0.5,0,0.7
			l0,0l11.5-11.5h26.4l34.4-34.4H439v-0.5H420z M419.1,209.1l-34.3,34.3H358l-10.2,10.2l-0.1,0.1c0,0.3,0,0.5,0,0.7l10.4-10.5H385
			l34.3-34.3h21.8v-0.5H419.1L419.1,209.1L419.1,209.1z M405,218.9l-1,1l-19.8,19.8h-26.7l-9.5,9.5l0,0c0,0.2-0.1,0.5-0.1,0.7
			l9.8-9.8h26.7l20-20l0.9-1L405,218.9z M360,203.5l-1.5,1.5l-0.4,0.4c-0.4,1-0.9,2-1.3,3l0.4-0.4l3.3-3.3h43.9v-1.2H360L360,203.5z
			 M469.4,310.3v48.1l-18.2,18.2c0.5,0.1,1,0.1,1.5,0.2l13.7-13.7l4.1-4.1l0.2-0.2v-48.6C470.3,310.3,469.9,310.3,469.4,310.3z
			 M475,359v-48.8c-0.4,0-0.8,0-1.2,0v49.3l5.1,5.1l10.8,10.8l0.8,0.8c0.5-0.1,1-0.2,1.4-0.3L475,359z M526.9,318v-21.8
			c-0.8,0.5-1.5,1-2.3,1.5c-0.1,0-0.1-0.1-0.1-0.1V319l20,20v12.7c0.9-0.7,1.7-1.3,2.4-2V338L526.9,318z M392.9,350.4
			c0.2,0.1,0.3,0.3,0.5,0.4v-32.5c-0.2,0.1-0.3,0.1-0.5,0.1V350.4z M403.9,283l-6.2,6.2l-4.8,4.8v3.5c0.2,0,0.3-0.1,0.5-0.2v-3.2
			l4.6-4.5l0,0l6.2-6.1l0,0l27.7-27.7c0.2-0.5,0.4-0.9,0.6-1.3L403.9,283z M421.5,368c0.2,0.1,0.3,0.1,0.5,0.2V309
			c-0.2,0.1-0.3,0.1-0.5,0.2V368z M439.1,265.6v10.6c0.2-0.1,0.3-0.2,0.5-0.3v-10.6C439.5,265.4,439.3,265.5,439.1,265.6z
			 M430.2,308.5v0.5h17.5l0.8-0.5H430.2z M433.6,305.1v0.5h19.5c0.3-0.2,0.6-0.3,0.8-0.5H433.6z M440,301.6
			c-0.4,0.2-0.8,0.4-1.1,0.5h18.6v-0.5H440z M447.5,298.2c-0.3,0.2-0.7,0.3-1,0.5h14.4v-0.5H447.5z M499.9,329.6V307
			c-0.1,0-0.3,0.1-0.5,0.1v22.7l15.7,15.8V369c0.1-0.1,0.3-0.1,0.5-0.2v-23.4L499.9,329.6z M509,350.2v21.1c0.1-0.1,0.3-0.1,0.5-0.2
			v-20.9H509z M520,338.8v28c0.4-0.2,0.8-0.4,1.2-0.6v-27.5H520V338.8z M564,332.3c0.4-0.5,0.8-1,1.2-1.5v-4.7H564V332.3z
			 M458.6,313.8v20l-24.7,24.7v14.1c0.4,0.1,0.8,0.2,1.2,0.3V359l24.7-24.7v-20.5H458.6L458.6,313.8z M421.4,142.4L421,142
			c-0.2,0.1-0.3,0.1-0.5,0.2l0.9,0.9l0.4-0.4L421.4,142.4z M528.3,164.5h-12.9l-34.3,34.3h-14.6v0.5h14.8l34.3-34.3h13l10.8-10.8
			c-0.1-0.1-0.3-0.2-0.4-0.3L528.3,164.5z M472.8,364.7l-0.4,0.3l1,1l11,11c0.2,0,0.4-0.1,0.6-0.1L472.8,364.7z M471.4,374.6v3.3
			h0.5v-3.3H471.4z M365.3,253l-0.9,1l-15.7,15.7l-0.1,0.1c0.1,0.5,0.1,1,0.2,1.5l16.5-16.5l1-1L365.3,253z M424.7,217l-36.2,36.2
			h-13L352,276.8v10.3c0.1,0.6,0.3,1.1,0.5,1.7V277l23.3-23.3h13l35.4-35.4l1-1L424.7,217z M381.4,297v4.3c0.2-0.1,0.3-0.1,0.5-0.2
			V297H381.4L381.4,297z M381.4,339.8c0.1,0.2,0.3,0.3,0.5,0.5V321c-0.2,0.1-0.3,0.1-0.5,0.1V339.8z M362,302.8l-0.3,0.4l0.8,0.8
			l1.4,1.5c0.2,0,0.4-0.1,0.6-0.1l-1.7-1.7L362,302.8z M372.8,322.6c-0.2,0-0.4,0.1-0.6,0.1l4,4v7.1c0.2,0.2,0.3,0.4,0.5,0.6v-7.9
			L372.8,322.6z M562,175.1l-32,32.1h0.4l1.5-0.2l0,0l30.9-30.9C562.6,175.8,562.3,175.4,562,175.1z M488.3,309.1v42.2h0.5V309
			C488.7,309.1,488.5,309.1,488.3,309.1z M528.5,282.4h-3.2c-0.1,0.1-0.1,0.1-0.2,0.1l-0.6,0.4h3.7l6,6l0,0l1.5,1.5l20,20v31.1
			c0.2-0.2,0.3-0.3,0.5-0.5v-30.8L528.5,282.4z M587.6,225.9h-3.8l-25.7,25.7h-4.6c-0.4,0.8-0.9,1.6-1.4,2.4h7l25.7-25.7h3.3
			C588,227.5,587.8,226.7,587.6,225.9z M567.1,181.5L542,206.7c0.2,0,0.4,0,0.7,0l0,0l24.7-24.7
			C567.3,181.8,567.2,181.6,567.1,181.5z M532.7,277.2L532.7,277.2c-0.1,0.1-0.3,0.2-0.4,0.3l41.2,41.2c0.1-0.1,0.2-0.3,0.3-0.5
			L532.7,277.2z M571.3,187.6l-19.2,19.3c0.2,0,0.4,0,0.6,0l18.9-18.9C571.5,187.9,571.4,187.8,571.3,187.6z M539.7,270.7
			c-0.3,0.3-0.6,0.6-0.8,0.9l39.1,39.1c0.2-0.4,0.4-0.8,0.6-1.1L539.7,270.7z M547.3,261.3c-0.1,0.2-0.2,0.3-0.3,0.5h43.9
			c0-0.2,0-0.3,0-0.5H547.3z M585.2,216.7h-3.4l-20.7,20.6c-0.2,0.4-0.3,0.8-0.5,1.2l21.3-21.3h3.4
			C585.2,217,585.2,216.9,585.2,216.7z M575.9,195.3h-4l-12.1,12.1c0.2,0,0.4,0,0.6,0.1l11.7-11.7h4
			C576.1,195.6,576,195.4,575.9,195.3z M572.9,201v10.7l-4.6,4.5c-0.5,1.7-1,3.4-1.5,4.9l8.5-8.5V201H572.9z M566.2,252.9v1.2h24.9
			c0-0.4,0-0.8,0-1.2H566.2z M549,268.2l-0.4,0.3l1,1l32.3,32.3c0.1-0.2,0.1-0.3,0.2-0.5L550,269.1L549,268.2z M557.4,268.6v0.5
			h33.1c0-0.2,0-0.3,0-0.5H557.4z M566.9,275l-1-1l-0.8,0.9l1,1l18.7,18.7c0.1-0.4,0.3-0.8,0.4-1.3L566.9,275z M574.1,275.7v0.5
			h15.2c0-0.2,0.1-0.3,0.1-0.5H574.1z M582.7,281.5l-0.3,0.4l0.9,1l3.7,3.7c0.1-0.2,0.1-0.4,0.1-0.6l-3.5-3.5L582.7,281.5z
			 M587.3,233.7l-11.7,11.6l-0.9,1l0.4,0.4l0.9-1l11.5-11.5h1.9c0-0.2-0.1-0.3-0.1-0.5H587.3L587.3,233.7z M589.7,239.9l-6.6,6.6
			l-1,1l0.3,0.3l7.4-7.4h0.4c0-0.2,0-0.3-0.1-0.5L589.7,239.9L589.7,239.9z M581.8,207.5h-0.5v1.2h1
			C582.1,208.4,581.9,207.9,581.8,207.5z M380.6,295.9c-0.6,0.5-0.6,1.5,0,2s1.4,0.5,2,0s0.6-1.5,0-2
			C382,295.3,381.1,295.3,380.6,295.9z M360.6,301.8c-0.6,0.5-0.6,1.5,0,2s1.4,0.5,2,0s0.6-1.5,0-2
			C362.1,301.3,361.2,301.3,360.6,301.8z M429.2,307.8c-0.6,0.5-0.6,1.5,0,2s1.4,0.5,2,0s0.6-1.5,0-2S429.7,307.2,429.2,307.8z
			 M449.6,307.8C449.6,307.8,449.5,307.8,449.6,307.8l0.6-0.3C450,307.4,449.8,307.6,449.6,307.8z M455,304.4c-0.6-0.6-1.4-0.6-2,0
			c-0.2,0.2-0.3,0.4-0.3,0.7c-0.1,0.2-0.1,0.3,0,0.5c0,0.1,0,0.2,0.1,0.3l0.4-0.2c0,0,0.1,0,0.1-0.1c0.3-0.2,0.6-0.3,0.8-0.5
			C454.3,304.9,454.6,304.7,455,304.4L455,304.4z M458.5,300.9c-0.6-0.5-1.4-0.5-2,0c-0.2,0.2-0.3,0.5-0.4,0.8
			c-0.1,0.2-0.1,0.3,0,0.5c0,0.3,0.1,0.5,0.4,0.8c0.2,0.2,0.4,0.3,0.7,0.4c0.5-0.3,1.1-0.6,1.6-0.8
			C459,301.9,458.9,301.3,458.5,300.9z M459.9,297.5c-0.6,0.5-0.6,1.5,0,2s1.4,0.5,2,0s0.6-1.5,0-2
			C461.3,296.9,460.4,296.9,459.9,297.5z M508.3,349.2c-0.6,0.5-0.6,1.5,0,2s1.4,0.5,2,0s0.6-1.5,0-2
			C509.7,348.6,508.8,348.6,508.3,349.2z M471.6,363.8c-0.6,0.5-0.6,1.5,0,2s1.4,0.5,2,0s0.6-1.5,0-2
			C473.1,363.2,472.2,363.2,471.6,363.8z M470.7,373.8c-0.6,0.5-0.6,1.5,0,2s1.4,0.5,2,0s0.6-1.5,0-2S471.2,373.3,470.7,373.8z
			 M475.7,377.8L475.7,377.8h0.1c0.6,0,1.2-0.1,1.8-0.1C477,377.2,476.2,377.2,475.7,377.8z M519.6,337.8c-0.6,0.5-0.6,1.5,0,2
			s1.4,0.5,2,0s0.6-1.5,0-2C521.1,337.2,520.2,337.2,519.6,337.8z M563.6,325.2c-0.6,0.5-0.6,1.5,0,2s1.4,0.5,2,0s0.6-1.5,0-2
			C565,324.6,564.1,324.6,563.6,325.2z M434.6,304.3c-0.1-0.1-0.2-0.2-0.3-0.2c-0.7,0.3-1.3,0.6-2,0.9c-0.2,0.5,0,1,0.3,1.4
			c0.6,0.6,1.4,0.6,2,0c0.2-0.2,0.3-0.5,0.3-0.8c0.1-0.2,0.1-0.3,0-0.5C434.9,304.8,434.8,304.5,434.6,304.3z M437.5,302.7
			c-0.4,0.2-0.7,0.3-1.1,0.5c0.5,0.3,1.2,0.2,1.6-0.3c0.2-0.2,0.3-0.4,0.3-0.6C438.1,302.5,437.8,302.6,437.5,302.7z M440.1,208.4
			c-0.6,0.5-0.6,1.5,0,2s1.4,0.5,2,0s0.6-1.5,0-2S440.6,207.8,440.1,208.4z M437,211.5c-0.6,0.5-0.6,1.5,0,2s1.4,0.5,2,0
			s0.6-1.5,0-2C438.4,210.9,437.6,210.9,437,211.5z M404.1,218c-0.6,0.5-0.6,1.5,0,2s1.4,0.5,2,0s0.6-1.5,0-2
			C405.6,217.5,404.7,217.5,404.1,218z M423.9,216.2c-0.6,0.5-0.6,1.5,0,2s1.4,0.5,2,0s0.6-1.5,0-2S424.4,215.6,423.9,216.2z
			 M364.7,252.4c-0.6,0.5-0.6,1.5,0,2s1.4,0.5,2,0s0.6-1.5,0-2S365.2,251.9,364.7,252.4z M422.6,142.1l-0.1-0.1
			c-0.2-0.2-0.4-0.3-0.6-0.3c-0.3,0.1-0.5,0.2-0.8,0.3c0,0-0.1,0-0.1,0.1c-0.2,0.1-0.3,0.1-0.5,0.2c-0.2,0.2-0.3,0.4-0.3,0.7
			c-0.1,0.4,0.1,0.8,0.4,1.1c0.5,0.6,1.4,0.6,2,0S423.2,142.6,422.6,142.1z M465.6,197.9c-0.6,0.6-0.6,1.4,0,2s1.4,0.6,2,0
			s0.6-1.4,0-2C467.1,197.4,466.2,197.4,465.6,197.9z M444.7,190.2c-0.9,0.9-0.9,2.3,0,3.2s2.3,0.9,3.2,0s0.9-2.3,0-3.2
			C447,189.3,445.5,189.3,444.7,190.2z M528.5,175.2c-0.9,0.9-0.9,2.3,0,3.2s2.3,0.9,3.2,0s0.9-2.3,0-3.2
			C530.8,174.4,529.4,174.4,528.5,175.2z M482.8,159.2c-0.9,0.9-0.9,2.3,0,3.2s2.3,0.9,3.2,0s0.9-2.3,0-3.2S483.7,158.3,482.8,159.2
			z M402.9,202.6c-0.9,0.9-0.9,2.3,0,3.2s2.3,0.9,3.2,0s0.9-2.3,0-3.2C405.3,201.7,403.8,201.7,402.9,202.6z M442,234.3
			c-0.7,0.8-0.8,1.8-0.4,2.7c0.1,0.2,0.2,0.4,0.4,0.5c0.1,0.1,0.3,0.2,0.4,0.3c0.4-0.6,0.9-1.2,1.4-1.8c0.4-0.6,0.9-1.2,1.4-1.8
			C444.3,233.4,442.9,233.4,442,234.3z M457.6,312.2c-0.9,0.9-0.9,2.3,0,3.2c0.9,0.9,2.3,0.9,3.2,0s0.9-2.3,0-3.2
			S458.5,311.3,457.6,312.2z M564.6,251.9c-0.9,0.9-0.9,2.3,0,3.2s2.3,0.9,3.2,0s0.9-2.3,0-3.2C566.9,251,565.5,251,564.6,251.9z
			 M563.4,272.3c-0.9,0.9-0.9,2.3,0,3.2c0.9,0.9,2.3,0.9,3.2,0s0.9-2.3,0-3.2C565.7,271.4,564.3,271.4,563.4,272.3z M582.3,208.7
			c-0.2-0.4-0.3-0.8-0.5-1.2c-0.2-0.5-0.4-0.9-0.6-1.3c-0.4,0.1-0.9,0.3-1.3,0.6c-0.9,0.9-0.9,2.3,0,3.2c0.8,0.8,2,0.9,2.9,0.2
			C582.7,209.8,582.5,209.3,582.3,208.7z M568.9,208.2c-0.8-0.8-2.2-0.9-3.1-0.1c1.3,0.2,2.3,0.3,3.3,0.4
			C569,208.4,568.9,208.2,568.9,208.2z M526.9,296.2c-0.8,0.5-1.5,1-2.3,1.5c0.7,0.3,1.5,0.4,2.3,0.2c0.6-0.2,1.3-0.5,1.7-1
			c0.7-0.7,1.1-1.7,1.1-2.6C528.8,295,527.9,295.6,526.9,296.2z M571.8,200.1c-1.4,1.4-1.4,3.7,0,5.1c1.4,1.4,3.7,1.4,5.1,0
			s1.4-3.7,0-5.1S573.2,198.7,571.8,200.1z M449,187c-0.6,0.6-0.6,1.4,0,2s1.4,0.6,2,0s0.6-1.4,0-2C450.5,186.5,449.6,186.5,449,187
			z M451.9,184.2c-0.6,0.6-0.6,1.4,0,2s1.4,0.6,2,0s0.6-1.4,0-2C453.3,183.6,452.4,183.6,451.9,184.2z M454.6,181.5
			c-0.6,0.6-0.6,1.4,0,2s1.4,0.6,2,0s0.6-1.4,0-2S455.1,180.9,454.6,181.5z M457.4,178.6c-0.6,0.6-0.6,1.4,0,2s1.4,0.6,2,0
			s0.6-1.4,0-2S458,178.1,457.4,178.6z M460.3,175.8c-0.6,0.6-0.6,1.4,0,2s1.4,0.6,2,0s0.6-1.4,0-2
			C461.7,175.2,460.9,175.2,460.3,175.8z M463.2,172.9c-0.6,0.6-0.6,1.4,0,2s1.4,0.6,2,0s0.6-1.4,0-2
			C464.6,172.4,463.7,172.4,463.2,172.9z M466,170.1c-0.6,0.6-0.6,1.4,0,2s1.4,0.6,2,0s0.6-1.4,0-2
			C467.5,169.5,466.6,169.5,466,170.1z M473.1,187.2c-0.6,0.6-0.6,1.4,0,2s1.4,0.6,2,0s0.6-1.4,0-2
			C474.5,186.6,473.6,186.6,473.1,187.2z M475.9,184.3c-0.6,0.6-0.6,1.4,0,2s1.4,0.6,2,0s0.6-1.4,0-2
			C477.4,183.8,476.5,183.8,475.9,184.3z M478.8,181.5c-0.6,0.6-0.6,1.4,0,2s1.4,0.6,2,0s0.6-1.4,0-2
			C480.2,180.9,479.3,180.9,478.8,181.5z M481.6,178.6c-0.6,0.6-0.6,1.4,0,2s1.4,0.6,2,0s0.6-1.4,0-2S482.2,178.1,481.6,178.6z
			 M484.5,175.8c-0.6,0.6-0.6,1.4,0,2s1.4,0.6,2,0s0.6-1.4,0-2S485,175.2,484.5,175.8z M487.3,172.9c-0.6,0.6-0.6,1.4,0,2
			s1.4,0.6,2,0s0.6-1.4,0-2S487.9,172.4,487.3,172.9z M490.2,170.1c-0.6,0.6-0.6,1.4,0,2s1.4,0.6,2,0s0.6-1.4,0-2
			S490.7,169.5,490.2,170.1z M487.8,350.6c-0.6,0.5-0.6,1.5,0,2s1.4,0.5,2,0s0.6-1.5,0-2C489.2,350.1,488.3,350.1,487.8,350.6z
			 M547.8,267.4c-0.6,0.5-0.6,1.5,0,2s1.4,0.5,2,0s0.6-1.5,0-2C549.2,266.8,548.3,266.8,547.8,267.4z M581.6,280.7
			c-0.6,0.5-0.6,1.5,0,2s1.4,0.5,2,0s0.6-1.5,0-2S582.1,280.2,581.6,280.7z M588,282.8c0.2-0.7,0.3-1.5,0.5-2.2
			c-0.2,0.1-0.3,0.2-0.4,0.3C587.6,281.4,587.5,282.2,588,282.8z M573.1,274.9c-0.6,0.5-0.6,1.5,0,2s1.4,0.5,2,0s0.6-1.5,0-2
			C574.6,274.3,573.7,274.3,573.1,274.9z M556.4,267.9c-0.6,0.5-0.6,1.5,0,2s1.4,0.5,2,0s0.6-1.5,0-2S557,267.3,556.4,267.9z
			 M581.3,246.7c-0.6,0.5-0.6,1.5,0,2s1.4,0.5,2,0s0.6-1.5,0-2C582.8,246.1,581.9,246.1,581.3,246.7z M573.9,245.4
			c-0.6,0.5-0.6,1.5,0,2s1.4,0.5,2,0s0.6-1.5,0-2C575.3,244.9,574.4,244.9,573.9,245.4z M361.9,291c-1.1,1.1-1.1,2.8,0,3.9
			s2.8,1.1,3.9,0s1.1-2.8,0-3.9C364.7,289.9,363,289.9,361.9,291z M375.2,277.6c-1.1,1.1-1.1,2.8,0,3.9s2.8,1.1,3.9,0s1.1-2.8,0-3.9
			C378.1,276.6,376.3,276.6,375.2,277.6z M388.6,264.3c-1.1,1.1-1.1,2.8,0,3.9s2.8,1.1,3.9,0s1.1-2.8,0-3.9
			C391.4,263.2,389.7,263.2,388.6,264.3z M401.9,251c-1.1,1.1-1.1,2.8,0,3.9s2.8,1.1,3.9,0s1.1-2.8,0-3.9
			C404.7,249.9,403,249.9,401.9,251z M415.3,237.6c-1.1,1.1-1.1,2.8,0,3.9s2.8,1.1,3.9,0s1.1-2.8,0-3.9
			C418.1,236.5,416.3,236.5,415.3,237.6z"/>
		<g>
			
				<radialGradient id="SVGID_3_" cx="33.7364" cy="240.4607" r="18.9991" gradientTransform="matrix(0 1.0396 -0.9999 0 812.8737 112.8277)" gradientUnits="userSpaceOnUse">
				<stop  offset="0" style="stop-color:#FFFFFF"/>
				<stop  offset="1" style="stop-color:#000000"/>
			</radialGradient>
			<polygon class="st2" points="572.1,120.4 568,147.2 572.1,175.4 576.9,147.2 			"/>
			
				<radialGradient id="SVGID_4_" cx="33.8608" cy="240.6978" r="19.415" gradientTransform="matrix(0 1.0396 -0.9999 0 812.8737 112.8277)" gradientUnits="userSpaceOnUse">
				<stop  offset="0" style="stop-color:#FFFFFF"/>
				<stop  offset="1" style="stop-color:#000000"/>
			</radialGradient>
			<polygon class="st3" points="599.3,147.8 573.2,143.5 545.1,147.8 572.8,152.6 			"/>
		</g>
		<g>
			
				<radialGradient id="SVGID_5_" cx="224.8194" cy="465.0131" r="11.5777" gradientTransform="matrix(0 1.0396 -0.9999 0 812.8737 112.8277)" gradientUnits="userSpaceOnUse">
				<stop  offset="0" style="stop-color:#FFFFFF"/>
				<stop  offset="1" style="stop-color:#000000"/>
			</radialGradient>
			<polygon class="st4" points="347.7,329.8 345.2,346.1 347.7,363.3 350.6,346.1 			"/>
			
				<radialGradient id="SVGID_6_" cx="224.8862" cy="465.1202" r="11.8548" gradientTransform="matrix(0 1.0396 -0.9999 0 812.8737 112.8277)" gradientUnits="userSpaceOnUse">
				<stop  offset="0" style="stop-color:#FFFFFF"/>
				<stop  offset="1" style="stop-color:#000000"/>
			</radialGradient>
			<polygon class="st5" points="364.3,346.5 348.4,343.8 331.3,346.5 348.1,349.4 			"/>
		</g>
		<g>
			
				<radialGradient id="SVGID_7_" cx="324.0321" cy="335.0279" r="8.4873" gradientTransform="matrix(1 0 0 1 0 -90.0085)" gradientUnits="userSpaceOnUse">
				<stop  offset="0" style="stop-color:#FFFFFF"/>
				<stop  offset="1" style="stop-color:#000000"/>
			</radialGradient>
			<polygon class="st6" points="324,233.2 322.1,244.7 324,256.9 326,244.7 			"/>
			
				<radialGradient id="SVGID_8_" cx="324" cy="334.9828" r="8.1533" gradientTransform="matrix(1 0 0 1 0 -90.0085)" gradientUnits="userSpaceOnUse">
				<stop  offset="0" style="stop-color:#FFFFFF"/>
				<stop  offset="1" style="stop-color:#000000"/>
			</radialGradient>
			<polygon class="st7" points="335.4,244.7 324.3,243 312.6,244.7 324.2,247 			"/>
		</g>
		<g>
			<g>
				<path class="st8" d="M357.2,406.1c12.6,0,17.5,5.8,17.5,16.5v4.9c0,8.8-3.3,14.2-11.3,15.9l12.9,16.3c0.6,0.7,0.5,2.3-1.2,2.3
					h-12.3c-1.5,0-2-0.4-2.6-1.1l-11.8-16H326v15c0,1.4-0.7,2.1-2.1,2.1h-10.4c-1.4,0-2.1-0.7-2.1-2.1v-51.5c0-1.6,0.8-2.4,2.4-2.4
					L357.2,406.1L357.2,406.1L357.2,406.1z M326.1,433.5h28.2c4.4,0,5.8-1.8,5.8-5.5v-3.4c0-3.8-1.4-5.5-5.8-5.5H327
					c-0.6,0-1,0.3-1,1L326.1,433.5L326.1,433.5z"/>
				<path class="st8" d="M429.8,406.1c16.4,0,22.6,5.8,22.6,21.1V441c0,15.4-6.2,21.1-22.6,21.1h-24.9c-16.4,0-22.6-5.8-22.6-21.1
					v-13.8c0-15.4,6.2-21.1,22.6-21.1H429.8z M396.7,439.9c0,7.3,1.7,9.1,8.6,9.1h23.8c7,0,8.6-1.8,8.6-9.1v-11.5c0-7.3-1.7-9-8.6-9
					h-23.8c-7,0-8.6,1.8-8.6,9V439.9z"/>
				<path class="st8" d="M520.1,406.1c1.4,0,2.1,0.7,2.1,2.1v9.4c0,1.4-0.7,2.1-2.1,2.1h-35.6c-7,0-8.6,1.8-8.6,9v10.9
					c0,7.2,1.7,9,8.6,9h35.6c1.4,0,2.1,0.7,2.1,2.1v9.4c0,1.4-0.7,2.1-2.1,2.1H484c-16.4,0-22.6-5.8-22.6-21.1v-13.8
					c0-15.4,6.2-21.1,22.6-21.1L520.1,406.1L520.1,406.1z"/>
				<path class="st8" d="M542.9,406.1c1.4,0,2.1,0.7,2.1,2.1v20.1h9.8c3.9,0,5.2-0.4,7-3l13.4-18.1c0.6-0.8,1-1.1,2.6-1.1h12
					c1.5,0,1.8,1.4,1.2,2.2l-15.4,20.1c-1.6,2.1-2.9,3.8-4.2,5c2,1.4,3.8,3.3,5.8,5.8l16.1,20.6c0.5,0.6,0.6,2.4-1.3,2.4h-12.2
					c-1.5,0-2-0.3-2.6-1.1L563,442.3c-1.8-2.3-3.1-3-7-3h-11V460c0,1.4-0.7,2.1-2.1,2.1h-10.4c-1.4,0-2.1-0.7-2.1-2.1v-51.8
					c0-1.4,0.7-2.1,2.1-2.1H542.9L542.9,406.1z"/>
				<path class="st8" d="M654.5,406.1c1.4,0,2.1,0.7,2.1,2.1v9c0,1.4-0.6,2.2-2.1,2.2h-35c-6.9,0-8.7,1.8-8.7,8.8H654
					c1.4,0,2.1,0.6,2.1,2.1v7.4c0,1.4-0.6,2.1-2.1,2.1h-43.3c0,7.5,1.8,9.4,8.7,9.4h35c1.4,0,2.1,0.6,2.1,2.1v9
					c0,1.4-0.6,2.1-2.1,2.1h-35.3c-16.4,0-22.6-5.8-22.6-21.1v-13.8c0-15.4,6.2-21.1,22.6-21.1L654.5,406.1L654.5,406.1z"/>
				<path class="st8" d="M726.8,406.1c1.4,0,2.1,0.7,2.1,2.1v9.4c0,1.4-0.7,2.1-2.1,2.1h-24.1V460c0,1.4-0.7,2.1-2.1,2.1h-10.3
					c-1.4,0-2.2-0.7-2.2-2.1v-40.4h-24c-1.4,0-2.1-0.7-2.1-2.1v-9.4c0-1.4,0.6-2.1,2.1-2.1h62.7V406.1z"/>
			</g>
		</g>
		<g>
			<path class="st9" d="M323.1,485.8c0-0.5-0.2-1-0.6-1.3s-1.1-0.6-2.1-0.9s-1.8-0.7-2.4-1c-1.2-0.7-1.7-1.7-1.7-2.8
				c0-1,0.4-1.8,1.2-2.5c0.8-0.7,1.9-1,3.2-1c0.9,0,1.7,0.2,2.3,0.5c0.7,0.3,1.2,0.8,1.6,1.4s0.6,1.3,0.6,2H323
				c0-0.7-0.2-1.2-0.6-1.5s-1-0.5-1.8-0.5c-0.7,0-1.3,0.2-1.7,0.5c-0.4,0.3-0.6,0.7-0.6,1.3c0,0.5,0.2,0.8,0.6,1.2s1.1,0.6,2.1,0.9
				s1.8,0.6,2.4,1s1,0.8,1.3,1.3s0.4,1,0.4,1.7c0,1-0.4,1.9-1.2,2.5s-1.9,0.9-3.3,0.9c-0.9,0-1.8-0.2-2.5-0.5s-1.4-0.8-1.8-1.4
				s-0.6-1.3-0.6-2.1h2.2c0,0.7,0.2,1.3,0.7,1.7c0.5,0.4,1.2,0.6,2,0.6s1.3-0.2,1.7-0.5C323,486.7,323.1,486.3,323.1,485.8z"/>
			<path class="st9" d="M338,485.9l1.9-9.5h2.2l-2.9,12.6h-2.1l-2.4-9.2l-2.4,9.2h-2.1l-2.9-12.6h2.2l2,9.5l2.4-9.5h1.8L338,485.9z"
				/>
			<path class="st9" d="M351.3,486.1h-4.9l-1,2.9h-2.3l4.8-12.6h2l4.8,12.6h-2.3L351.3,486.1z M347.1,484.3h3.7l-1.8-5.2
				L347.1,484.3z"/>
			<path class="st9" d="M359.2,484.4v4.7H357v-12.6h4.8c1.4,0,2.5,0.4,3.4,1.1s1.2,1.7,1.2,2.9c0,1.2-0.4,2.2-1.2,2.9
				c-0.8,0.7-1.9,1-3.4,1H359.2z M359.2,482.6h2.6c0.8,0,1.4-0.2,1.8-0.5s0.6-0.9,0.6-1.6s-0.2-1.2-0.6-1.6s-1-0.6-1.7-0.6h-2.7
				L359.2,482.6L359.2,482.6z"/>
			<path class="st9" d="M381.8,483.7h-5.1v5.3h-2.2v-12.6h8v1.8h-5.8v3.8h5.1V483.7L381.8,483.7z"/>
			<path class="st9" d="M390.5,486.1h-4.9l-1,2.9h-2.3l4.8-12.6h2l4.8,12.6h-2.3L390.5,486.1z M386.2,484.3h3.7l-1.8-5.2
				L386.2,484.3z"/>
			<path class="st9" d="M402.7,485.8c0-0.5-0.2-1-0.6-1.3s-1.1-0.6-2.1-0.9s-1.8-0.7-2.4-1c-1.2-0.7-1.7-1.7-1.7-2.8
				c0-1,0.4-1.8,1.2-2.5c0.8-0.7,1.9-1,3.2-1c0.9,0,1.7,0.2,2.3,0.5c0.7,0.3,1.2,0.8,1.6,1.4s0.6,1.3,0.6,2h-2.2
				c0-0.7-0.2-1.2-0.6-1.5s-1-0.5-1.8-0.5c-0.7,0-1.3,0.2-1.7,0.5c-0.4,0.3-0.6,0.7-0.6,1.3c0,0.5,0.2,0.8,0.6,1.2s1.1,0.6,2.1,0.9
				s1.8,0.6,2.4,1s1,0.8,1.3,1.3s0.4,1,0.4,1.7c0,1-0.4,1.9-1.2,2.5s-1.9,0.9-3.3,0.9c-0.9,0-1.8-0.2-2.5-0.5s-1.4-0.8-1.8-1.4
				s-0.6-1.3-0.6-2.1h2.2c0,0.7,0.2,1.3,0.7,1.7c0.5,0.4,1.2,0.6,2,0.6s1.3-0.2,1.7-0.5C402.6,486.7,402.7,486.3,402.7,485.8z"/>
			<path class="st9" d="M416.9,478.2H413V489h-2.2v-10.8h-3.9v-1.8h10V478.2L416.9,478.2z"/>
			<path class="st9" d="M426.8,483.4h-5.2v3.9h6.1v1.8h-8.3v-12.6h8.2v1.8h-6v3.5h5.2L426.8,483.4L426.8,483.4z"/>
			<path class="st9" d="M434.9,484.2h-2.4v4.8h-2.2v-12.6h4.4c1.5,0,2.6,0.3,3.4,1s1.2,1.6,1.2,2.8c0,0.8-0.2,1.5-0.6,2.1
				s-1,1-1.7,1.3l2.8,5.3v0.1h-2.3L434.9,484.2z M432.5,482.4h2.3c0.7,0,1.3-0.2,1.7-0.6s0.6-0.9,0.6-1.5c0-0.7-0.2-1.2-0.6-1.6
				s-1-0.6-1.7-0.6h-2.3V482.4L432.5,482.4L432.5,482.4z"/>
			<path class="st9" d="M442.4,491.9l-1.1-0.7c0.3-0.5,0.6-1,0.7-1.4s0.2-0.8,0.2-1.2V487h1.9v1.5c0,0.6-0.2,1.2-0.5,1.8
				C443.2,491,442.8,491.5,442.4,491.9z"/>
			<path class="st9" d="M459.6,483.7h-5.1v5.3h-2.2v-12.6h8v1.8h-5.8v3.8h5.1V483.7L459.6,483.7z"/>
			<path class="st9" d="M470.4,483.4h-5.2v3.9h6.1v1.8H463v-12.6h8.2v1.8h-6v3.5h5.2L470.4,483.4L470.4,483.4z"/>
			<path class="st9" d="M481.3,483.4h-5.2v3.9h6.1v1.8h-8.3v-12.6h8.2v1.8h-6v3.5h5.2L481.3,483.4L481.3,483.4z"/>
			<path class="st9" d="M491.4,485.8c0-0.5-0.2-1-0.6-1.3s-1.1-0.6-2.1-0.9s-1.8-0.7-2.4-1c-1.2-0.7-1.7-1.7-1.7-2.8
				c0-1,0.4-1.8,1.2-2.5c0.8-0.7,1.9-1,3.2-1c0.9,0,1.7,0.2,2.3,0.5c0.7,0.3,1.2,0.8,1.6,1.4s0.6,1.3,0.6,2h-2.2
				c0-0.7-0.2-1.2-0.6-1.5c-0.4-0.4-1-0.5-1.8-0.5c-0.7,0-1.3,0.2-1.7,0.5c-0.4,0.3-0.6,0.7-0.6,1.3c0,0.5,0.2,0.8,0.6,1.2
				s1.1,0.6,2.1,0.9s1.8,0.6,2.4,1s1,0.8,1.3,1.3s0.4,1,0.4,1.7c0,1-0.4,1.9-1.2,2.5c-0.8,0.6-1.9,0.9-3.3,0.9
				c-0.9,0-1.8-0.2-2.5-0.5s-1.4-0.8-1.8-1.4s-0.6-1.3-0.6-2.1h2.2c0,0.7,0.2,1.3,0.7,1.7c0.5,0.4,1.2,0.6,2,0.6s1.3-0.2,1.7-0.5
				S491.4,486.3,491.4,485.8z"/>
			<path class="st9" d="M503.9,487.3h5.7v1.8h-7.9v-12.6h2.2L503.9,487.3L503.9,487.3z"/>
			<path class="st9" d="M521.7,483.1c0,1.2-0.2,2.3-0.6,3.3s-1,1.7-1.8,2.2s-1.7,0.8-2.7,0.8s-1.9-0.3-2.7-0.8s-1.4-1.2-1.8-2.1
				c-0.4-0.9-0.7-2-0.7-3.2v-0.7c0-1.2,0.2-2.3,0.7-3.3c0.4-0.9,1.1-1.7,1.8-2.2c0.8-0.5,1.7-0.8,2.7-0.8s1.9,0.3,2.7,0.7
				s1.4,1.2,1.8,2.1c0.4,0.9,0.7,2,0.7,3.2v0.8H521.7z M519.5,482.4c0-1.4-0.3-2.5-0.8-3.2s-1.3-1.1-2.3-1.1c-0.9,0-1.7,0.4-2.2,1.1
				s-0.8,1.8-0.8,3.2v0.7c0,1.4,0.3,2.5,0.8,3.2c0.5,0.8,1.3,1.1,2.3,1.1s1.7-0.4,2.2-1.1s0.8-1.8,0.8-3.2V482.4L519.5,482.4z"/>
			<path class="st9" d="M534.7,485.9l1.9-9.5h2.2l-2.9,12.6h-2.1l-2.4-9.2L529,489h-2.1l-2.9-12.6h2.2l2,9.5l2.4-9.5h1.8
				L534.7,485.9z"/>
			<path class="st9" d="M548.6,483.4h-5.2v3.9h6.1v1.8h-8.3v-12.6h8.2v1.8h-6v3.5h5.2V483.4L548.6,483.4z"/>
			<path class="st9" d="M556.8,484.2h-2.4v4.8h-2.2v-12.6h4.4c1.5,0,2.6,0.3,3.4,1c0.8,0.7,1.2,1.6,1.2,2.8c0,0.8-0.2,1.5-0.6,2.1
				s-1,1-1.7,1.3l2.8,5.3v0.1h-2.3L556.8,484.2z M554.4,482.4h2.3c0.7,0,1.3-0.2,1.7-0.6s0.6-0.9,0.6-1.5c0-0.7-0.2-1.2-0.6-1.6
				c-0.4-0.4-1-0.6-1.7-0.6h-2.3V482.4L554.4,482.4L554.4,482.4z"/>
			<path class="st9" d="M568.9,485.6c0-0.6,0.2-1.1,0.5-1.6s0.9-1.1,1.9-1.7c-0.5-0.6-0.8-1.1-1-1.6c-0.2-0.4-0.3-0.8-0.3-1.3
				c0-1,0.3-1.8,0.9-2.3c0.6-0.6,1.4-0.9,2.4-0.9c0.9,0,1.7,0.3,2.3,0.8s0.9,1.2,0.9,2c0,0.5-0.1,1-0.4,1.5s-0.7,0.9-1.3,1.3
				l-0.9,0.6l2.4,2.9c0.3-0.7,0.5-1.5,0.5-2.3h1.8c0,1.5-0.4,2.8-1.1,3.8l1.8,2.2H577l-0.7-0.8c-0.9,0.7-2,1-3.2,1s-2.3-0.3-3-1
				C569.3,487.5,568.9,486.7,568.9,485.6z M573.1,487.5c0.7,0,1.4-0.2,2-0.7l-2.8-3.3l-0.3,0.2c-0.7,0.5-1,1.1-1,1.8
				c0,0.6,0.2,1.1,0.6,1.4C572,487.3,572.5,487.5,573.1,487.5z M571.9,479.4c0,0.5,0.3,1.1,0.9,1.8l1-0.7l0.3-0.2
				c0.4-0.3,0.5-0.7,0.5-1.2c0-0.3-0.1-0.6-0.4-0.8c-0.3-0.2-0.6-0.3-0.9-0.3c-0.4,0-0.7,0.1-1,0.4
				C572.1,478.6,571.9,479,571.9,479.4z"/>
			<path class="st9" d="M597,489h-2.2v-5.6h-5.6v5.6H587v-12.6h2.2v5.3h5.6v-5.3h2.2V489z"/>
			<path class="st9" d="M602.8,489h-2.2v-12.6h2.2V489z"/>
			<path class="st9" d="M616,487.4c-0.5,0.6-1.1,1-1.9,1.3s-1.7,0.5-2.8,0.5s-2-0.2-2.8-0.7s-1.4-1.2-1.9-2.1
				c-0.4-0.9-0.7-1.9-0.7-3.1v-1c0-1.9,0.5-3.4,1.4-4.5s2.2-1.6,3.8-1.6c1.4,0,2.5,0.3,3.3,1s1.3,1.7,1.5,3h-2.2
				c-0.2-1.5-1.1-2.3-2.6-2.3c-1,0-1.7,0.3-2.2,1.1s-0.8,1.7-0.8,3.1v1c0,1.4,0.3,2.4,0.9,3.2c0.6,0.8,1.4,1.1,2.4,1.1
				c1.1,0,1.9-0.3,2.4-0.8v-2.5h-2.6v-1.7h4.8L616,487.4L616,487.4L616,487.4z"/>
			<path class="st9" d="M629.3,489h-2.2v-5.6h-5.6v5.6h-2.2v-12.6h2.2v5.3h5.6v-5.3h2.2V489z"/>
			<path class="st9" d="M642.8,484.2h-2.4v4.8h-2.2v-12.6h4.4c1.5,0,2.6,0.3,3.4,1c0.8,0.7,1.2,1.6,1.2,2.8c0,0.8-0.2,1.5-0.6,2.1
				s-1,1-1.7,1.3l2.8,5.3v0.1h-2.3L642.8,484.2z M640.3,482.4h2.3c0.7,0,1.3-0.2,1.7-0.6s0.6-0.9,0.6-1.5c0-0.7-0.2-1.2-0.6-1.6
				c-0.4-0.4-1-0.6-1.7-0.6h-2.3V482.4L640.3,482.4L640.3,482.4z"/>
			<path class="st9" d="M657.4,483.4h-5.2v3.9h6.1v1.8H650v-12.6h8.2v1.8h-6v3.5h5.2V483.4L657.4,483.4z"/>
			<path class="st9" d="M670.3,478.2h-3.9V489h-2.2v-10.8h-3.9v-1.8h10L670.3,478.2L670.3,478.2z"/>
			<path class="st9" d="M682,476.4v8.4c0,1.3-0.4,2.4-1.3,3.2c-0.9,0.8-2,1.2-3.4,1.2s-2.6-0.4-3.4-1.2c-0.8-0.8-1.3-1.8-1.3-3.2
				v-8.4h2.2v8.4c0,0.8,0.2,1.5,0.6,1.9s1.1,0.7,1.9,0.7c1.7,0,2.5-0.9,2.5-2.7v-8.3H682z"/>
			<path class="st9" d="M689.9,484.2h-2.4v4.8h-2.2v-12.6h4.4c1.5,0,2.6,0.3,3.4,1c0.8,0.7,1.2,1.6,1.2,2.8c0,0.8-0.2,1.5-0.6,2.1
				s-1,1-1.7,1.3l2.8,5.3v0.1h-2.3L689.9,484.2z M687.5,482.4h2.3c0.7,0,1.3-0.2,1.7-0.6s0.6-0.9,0.6-1.5c0-0.7-0.2-1.2-0.6-1.6
				c-0.4-0.4-1-0.6-1.7-0.6h-2.3V482.4L687.5,482.4L687.5,482.4z"/>
			<path class="st9" d="M707.2,489H705l-5.6-9v9h-2.2v-12.6h2.2l5.6,9v-9h2.2V489L707.2,489z"/>
			<path class="st9" d="M717.3,485.8c0-0.5-0.2-1-0.6-1.3c-0.4-0.3-1.1-0.6-2.1-0.9s-1.8-0.7-2.4-1c-1.2-0.7-1.7-1.7-1.7-2.8
				c0-1,0.4-1.8,1.2-2.5s1.9-1,3.2-1c0.9,0,1.7,0.2,2.3,0.5c0.7,0.3,1.2,0.8,1.6,1.4s0.6,1.3,0.6,2h-2.2c0-0.7-0.2-1.2-0.6-1.5
				s-1-0.5-1.8-0.5c-0.7,0-1.3,0.2-1.7,0.5s-0.6,0.7-0.6,1.3c0,0.5,0.2,0.8,0.6,1.2s1.1,0.6,2.1,0.9s1.8,0.6,2.4,1s1,0.8,1.3,1.3
				s0.4,1,0.4,1.7c0,1-0.4,1.9-1.2,2.5s-1.9,0.9-3.3,0.9c-0.9,0-1.8-0.2-2.5-0.5s-1.4-0.8-1.8-1.4c-0.4-0.6-0.6-1.3-0.6-2.1h2.2
				c0,0.7,0.2,1.3,0.7,1.7c0.5,0.4,1.2,0.6,2,0.6s1.3-0.2,1.7-0.5C717.1,486.7,717.3,486.3,717.3,485.8z"/>
		</g>
		<path class="st10" d="M489.1,133.5H489c-0.5,0.1-1,0.1-1.5,0.3c-0.3,0-0.6,0.1-0.9,0.2c-1.6,0.3-3.1,0.6-4.6,0.9
			c-2.1,0.4-4.1,1-6.1,1.6c-0.2,0-0.3,0.1-0.5,0.1c-23.1,6.8-43.1,21.2-57.1,40.3c-0.1,0.1-0.2,0.3-0.3,0.5c-0.9,1.3-1.9,2.6-2.8,4
			c-0.1,0.1-0.2,0.3-0.3,0.5c-0.8,1.3-1.6,2.5-2.4,3.9c-0.3,0.4-0.5,0.8-0.7,1.2c-0.7,1.1-1.3,2.3-2,3.5c-0.1,0.2-0.1,0.3-0.3,0.5
			c-0.6,1.1-1.2,2.4-1.8,3.5c-0.1,0.2-0.2,0.3-0.2,0.5c-0.6,1.2-1.2,2.5-1.7,3.7c-0.1,0.2-0.1,0.3-0.2,0.5c-0.4,0.9-0.8,1.9-1.2,2.8
			c-0.2,0.5-0.4,1-0.6,1.5c-0.2,0.4-0.3,0.8-0.4,1.2c-0.2,0.4-0.3,0.8-0.4,1.2c-2.2,6.4-3.9,13-5,19.9c0,0.3-0.1,0.5-0.1,0.8
			c-0.2,1.4-0.4,2.8-0.5,4.2l0,0c-0.1,0.3-0.1,0.5-0.1,0.8c-0.1,1.1-0.3,2.3-0.3,3.5c0,0.2,0,0.5-0.1,0.7c-0.1,2.5-0.2,4.9-0.2,7.5
			c0,0.6,0,1.2,0,1.8v0.7c0.2,10.8,2,21.3,5.1,31.1c0.1,0.5,0.3,0.9,0.4,1.3c0.5,1.6,1.1,3.2,1.7,4.8c0.1,0.2,0.1,0.3,0.2,0.5l0,0
			c1.1,2.8,2.2,5.6,3.5,8.2c-2.5,1.1-4.9,2.1-7.3,3c-2.3,1-4.7,1.8-6.9,2.6c-0.2,0.1-0.3,0.1-0.5,0.2c-1.7,0.6-3.4,1.2-5.1,1.8
			c-0.4,0.1-0.8,0.3-1.2,0.4c-1.6,0.5-3.1,1-4.6,1.5c-0.2,0.1-0.3,0.1-0.5,0.2c-0.3,0.1-0.5,0.1-0.8,0.2c-5.8,1.7-11.2,2.9-16.1,3.7
			c-0.2,0.1-0.4,0.1-0.6,0.1c-1.1,0.2-2.2,0.3-3.3,0.4c-2.1,0.3-4.1,0.4-5.9,0.4h-1.1H353c-7.1-15.6-11-32.9-11-51.1
			c0-34.2,13.9-65.1,36.3-87.6c2.4-2.4,4.9-4.8,7.6-7c0.8-0.7,1.7-1.4,2.6-2.1c1.8-1.4,3.6-2.8,5.4-4.1c1.1-0.8,2.1-1.5,3.2-2.2
			c0.3-0.2,0.6-0.4,0.9-0.6c0.8-0.6,1.7-1.1,2.5-1.6s1.6-1,2.3-1.4c0.4-0.3,0.9-0.6,1.4-0.8c1-0.6,2-1.1,3.1-1.7
			c0.7-0.4,1.3-0.7,2-1c0.8-0.4,1.7-0.9,2.5-1.3c0.9-0.5,1.9-0.9,2.8-1.3c1-0.4,2-0.9,2.9-1.3c1.7-0.7,3.3-1.4,5-2
			c0.8-0.3,1.7-0.6,2.5-0.9c0.2-0.1,0.4-0.2,0.7-0.3c0.8-0.3,1.7-0.6,2.6-0.8c1.5-0.5,3-0.9,4.5-1.3c0.9-0.3,1.8-0.5,2.6-0.7
			c0.9-0.2,1.8-0.4,2.7-0.6c1.8-0.4,3.6-0.8,5.4-1.1c2.7-0.5,5.4-0.9,8.2-1.2c1.1-0.2,2.2-0.3,3.3-0.4h0.1c3.5-0.3,7.1-0.5,10.7-0.5
			c2.6,0,5.2,0.1,7.7,0.3c1.3,0.1,2.5,0.2,3.8,0.3c0.7,0.1,1.4,0.1,2.1,0.2c0.6,0.1,1.1,0.1,1.7,0.2c0.8,0.1,1.6,0.2,2.4,0.3
			s1.6,0.2,2.4,0.3C486.9,133.1,488,133.3,489.1,133.5z"/>
		<path class="st10" d="M551.4,344.2l-0.3,0.7l0,0c-1.3,1.3-2.7,2.5-4.1,3.7c-0.1,0.1-0.1,0.1-0.2,0.1c-0.8,0.6-1.5,1.3-2.3,1.9
			c-0.7,0.6-1.4,1.2-2.2,1.8c-1.4,1.1-2.8,2.1-4.2,3.2c-1.4,1-2.9,2-4.4,3c-2.9,1.9-5.9,3.7-9.1,5.4c-0.1,0.1-0.1,0.1-0.1,0.1
			c-1.1,0.6-2.2,1.2-3.3,1.8c-0.4,0.2-0.8,0.4-1.2,0.6c-1.4,0.7-2.9,1.4-4.3,2c-0.2,0.1-0.3,0.1-0.5,0.2c-1.8,0.8-3.7,1.6-5.7,2.3
			c-0.2,0.1-0.3,0.1-0.5,0.2c-13.4,5-28,7.7-43.2,7.7s-29.8-2.7-43.3-7.8c-4.5-1.7-8.9-3.6-13.1-5.8c-2.7-1.4-5.3-2.8-7.8-4.4l0,0
			c-2.5-1.6-5-3.2-7.5-4.9c-1.6-1.1-3.2-2.4-4.8-3.6c-2.3-1.8-4.6-3.8-6.8-5.8c-1.5-1.3-2.9-2.7-4.3-4.1
			c-5.8-5.8-10.9-12.1-15.5-18.9c2.4-0.2,4.8-0.5,7.4-0.8c0.7-0.1,1.3-0.2,2-0.3c0.2,0,0.4-0.1,0.6-0.1c2.8-0.4,5.6-1,8.6-1.6
			c0.1,0,0.3,0,0.5-0.1c1.5-0.3,3.1-0.6,4.6-1c0.4-0.1,0.8-0.2,1.2-0.3c1.3-0.3,2.6-0.6,3.9-1c0.4-0.1,0.8-0.2,1.3-0.3
			c0.2-0.1,0.3-0.1,0.5-0.1c5.8-1.5,11.9-3.4,18.1-5.5c2.4-0.8,4.8-1.7,7.3-2.6c0.9,1.2,1.8,2.3,2.7,3.5c0.1,0.2,0.3,0.4,0.5,0.6
			c8.5,10.4,18.8,19.1,30.4,25.8c0.4,0.2,0.7,0.5,1.1,0.6c5.1,2.9,10.5,5.3,16,7.3c0.4,0.2,0.8,0.3,1.2,0.5c1,0.4,2.1,0.7,3.1,1
			c0.4,0.1,0.8,0.3,1.2,0.4c4.3,1.3,8.7,2.3,13.2,3l0,0c0.2,0.1,0.4,0.1,0.7,0.1c5.5,0.9,11.2,1.3,17,1.3c1.1,0,2.1,0,3.2,0
			c0.1,0,0.3,0,0.5,0c1.9-0.1,3.8-0.2,5.7-0.3c0.2,0,0.3,0,0.5-0.1c1.4-0.1,2.9-0.3,4.3-0.5c0.4-0.1,0.8-0.1,1.2-0.2
			c8.1-1.2,15.9-3.2,23.3-6.1c0.8-0.3,1.6-0.6,2.4-1C548.4,345.6,549.9,344.9,551.4,344.2z"/>
		<g>
			<g>
				<g>
					<path class="st8" d="M490.6,133.8c-1.2,0.1-2.3,0.2-3.4,0.4c-0.3,0-0.5,0.1-0.8,0.1c-1.4,0.2-2.9,0.4-4.3,0.6
						c-2.1,0.4-4.1,0.8-6.1,1.2c-0.2,0-0.3,0.1-0.5,0.1c-25.7,5.9-48,20.6-63.5,40.7c-0.1,0.2-0.2,0.3-0.4,0.5c-1,1.3-2,2.6-2.9,4
						c-0.1,0.2-0.2,0.3-0.3,0.5c-0.9,1.3-1.7,2.5-2.5,3.9c-0.3,0.4-0.5,0.8-0.8,1.2c-0.7,1.1-1.4,2.3-2,3.5
						c-0.1,0.1-0.2,0.3-0.3,0.5c-0.6,1.1-1.3,2.3-1.9,3.5c-0.1,0.2-0.2,0.3-0.3,0.5c-0.6,1.2-1.2,2.5-1.8,3.7
						c-0.1,0.1-0.2,0.3-0.2,0.5c-0.7,1.4-1.3,2.9-1.9,4.4c-0.2,0.4-0.3,0.8-0.5,1.2c-3.7,9.4-6.1,19.5-7.1,30c0,0.3-0.1,0.5-0.1,0.8
						c-0.1,1.3-0.2,2.6-0.3,4c0,0.3-0.1,0.5-0.1,0.8c-0.1,1.1-0.1,2.1-0.1,3.2c0,0.2,0,0.5,0,0.7v1.1c0,2.6,0.1,5.1,0.3,7.6
						c0,0.2,0,0.5,0,0.6c0.3,3.4,0.6,6.8,1.2,10.1c0.3,1.8,0.6,3.6,1,5.4c1.1,4.9,2.5,9.7,4.1,14.3c0.1,0.4,0.3,0.8,0.5,1.3
						c0.6,1.6,1.2,3.1,1.9,4.7c0.1,0.2,0.1,0.3,0.2,0.5l0,0c0.7,1.7,1.5,3.4,2.3,5.1c-2.3,1-4.7,1.8-6.9,2.6
						c-0.2,0.1-0.3,0.1-0.5,0.2c-1.7,0.6-3.4,1.2-5.1,1.8c-0.4,0.1-0.8,0.3-1.2,0.4c-1.6,0.5-3.1,1-4.6,1.5
						c-0.2,0.1-0.3,0.1-0.5,0.2c-0.3,0.1-0.5,0.1-0.8,0.2c-5.8,1.7-11.2,2.9-16.1,3.7c-0.2,0.1-0.4,0.1-0.6,0.1
						c-1.1,0.2-2.2,0.3-3.3,0.4c-2.1,0.3-4.1,0.4-5.9,0.4h-1.1H353c-7.1-15.6-11-32.9-11-51.1c0-34.2,13.9-65.1,36.3-87.6
						c2.4-2.4,4.9-4.8,7.6-7c0.8-0.7,1.7-1.4,2.6-2.1c1.8-1.4,3.6-2.8,5.4-4.1c1.1-0.8,2.1-1.5,3.2-2.2c0.3-0.2,0.6-0.4,0.9-0.6
						c0.8-0.6,1.7-1.1,2.5-1.6s1.6-1,2.3-1.4c0.4-0.3,0.9-0.6,1.4-0.8c1-0.6,2-1.1,3.1-1.7c0.7-0.4,1.3-0.7,2-1
						c0.8-0.4,1.7-0.9,2.5-1.3c0.9-0.5,1.9-0.9,2.8-1.3c1-0.4,2-0.9,2.9-1.3c1.7-0.7,3.3-1.4,5-2c0.8-0.3,1.7-0.6,2.5-0.9
						c0.2-0.1,0.4-0.2,0.7-0.3c0.8-0.3,1.7-0.6,2.6-0.8c1.5-0.5,3-0.9,4.5-1.3c0.9-0.3,1.8-0.5,2.6-0.7c0.9-0.2,1.8-0.4,2.7-0.6
						c1.8-0.4,3.6-0.8,5.4-1.1c2.7-0.5,5.4-0.9,8.2-1.2c0.8-0.1,1.6-0.2,2.4-0.3c0.1,0,0.2,0,0.3,0c3.7-0.4,7.5-0.5,11.3-0.5
						c2.6,0,5.1,0.1,7.7,0.2c1.3,0.1,2.5,0.2,3.8,0.3c0.7,0.1,1.4,0.1,2.1,0.2c0.6,0.1,1.1,0.1,1.7,0.2c0.8,0.1,1.6,0.2,2.4,0.3
						s1.6,0.2,2.4,0.3c1.1,0.2,2.1,0.4,3.2,0.6C489.5,133.6,490,133.7,490.6,133.8z"/>
				</g>
				<g>
					<path class="st8" d="M551,345c-1.3,1.3-2.7,2.5-4.1,3.7c-0.1,0.1-0.1,0.1-0.2,0.1c-0.8,0.6-1.5,1.3-2.3,1.9l0,0
						c-0.7,0.6-1.4,1.2-2.2,1.7c-1.4,1.1-2.8,2.1-4.2,3.2c-1.4,1-2.9,2-4.4,3c-2.7,1.8-5.4,3.4-8.2,5c-0.1,0.1-0.3,0.2-0.4,0.2
						c-1.3,0.7-2.6,1.4-3.9,2l0,0c-0.4,0.2-0.8,0.4-1.2,0.6l0,0c-1.4,0.7-2.9,1.4-4.3,2c-0.2,0.1-0.3,0.1-0.5,0.2
						c-1.8,0.8-3.7,1.6-5.7,2.3l0,0c-0.2,0.1-0.3,0.1-0.5,0.2c-13.4,5-28,7.7-43.2,7.7s-29.8-2.7-43.3-7.8
						c-4.5-1.7-8.9-3.6-13.1-5.8c-2.7-1.4-5.3-2.8-7.8-4.4l0,0c-2.5-1.5-5.1-3.2-7.5-4.9c-1.6-1.1-3.2-2.4-4.8-3.6
						c-2.3-1.8-4.6-3.7-6.8-5.8c-1.5-1.3-2.9-2.7-4.3-4.1c-5.8-5.8-10.9-12.1-15.5-18.9c2.4-0.2,4.8-0.5,7.4-0.8
						c0.7-0.1,1.3-0.2,2-0.3c0.2,0,0.4-0.1,0.6-0.1c2.8-0.4,5.6-1,8.6-1.6c0.1,0,0.3,0,0.5-0.1c1.5-0.3,3.1-0.6,4.6-1
						c0.4-0.1,0.8-0.2,1.2-0.3c1.3-0.3,2.6-0.6,3.9-1c0.4-0.1,0.8-0.2,1.3-0.3c0.2-0.1,0.3-0.1,0.5-0.1c5.8-1.5,11.9-3.4,18.1-5.5
						c3.1,4,6.4,7.9,10,11.5c0.2,0.2,0.3,0.3,0.5,0.5c7.8,7.7,16.7,14.2,26.4,19.3c0.4,0.2,0.7,0.4,1.1,0.6c6.3,3.2,13.1,5.9,20,7.9
						c0.4,0.1,0.8,0.3,1.2,0.3c1,0.3,2.1,0.6,3.1,0.8c0.4,0.1,0.8,0.2,1.2,0.3c8.2,1.9,16.7,2.9,25.5,2.9c2.8,0,5.7-0.1,8.5-0.3
						c0.2,0,0.3,0,0.5,0c1.9-0.1,3.8-0.3,5.7-0.6c0.2,0,0.3,0,0.5-0.1c1.4-0.2,2.9-0.4,4.3-0.6c0.4-0.1,0.8-0.2,1.2-0.3
						c8.1-1.5,15.9-3.9,23.3-7.1c0.8-0.3,1.6-0.7,2.4-1.1c1.3-0.6,2.6-1.2,3.9-1.9C550.9,345,551,345,551,345z"/>
				</g>
			</g>
		</g>
		<path class="st11" d="M363.9,305.4c-1.1,0.2-2.2,0.3-3.3,0.4c-2.1,0.3-4.1,0.4-5.9,0.4h-1.1H353c-7.1-15.6-11-32.9-11-51.1
			c0-34.2,13.9-65.1,36.3-87.6c2.4-2.4,4.9-4.8,7.6-7c0.8-0.7,1.7-1.4,2.6-2.1c1.8-1.4,3.6-2.8,5.4-4.1c1.1-0.8,2.1-1.5,3.2-2.2
			c0.3-0.2,0.6-0.4,0.9-0.6c0.8-0.6,1.7-1.1,2.5-1.6s1.6-1,2.3-1.4c0.4-0.3,0.9-0.6,1.4-0.8c1-0.6,2-1.1,3.1-1.7
			c0.7-0.4,1.3-0.7,2-1c0.8-0.4,1.7-0.9,2.5-1.3c0.9-0.5,1.9-0.9,2.8-1.3c1-0.4,2-0.9,2.9-1.3c1.7-0.7,3.3-1.4,5-2
			c0.8-0.3,1.7-0.6,2.5-0.9c0.2-0.1,0.4-0.2,0.7-0.3c0.8-0.3,1.7-0.6,2.6-0.8c1.5-0.5,3-0.9,4.5-1.3c0.9-0.3,1.8-0.5,2.6-0.7
			c0.9-0.2,1.8-0.4,2.7-0.6c1.8-0.4,3.6-0.8,5.4-1.1c2.7-0.5,5.4-0.9,8.2-1.2c0.8-0.1,1.6-0.2,2.4-0.3c0.1,0,0.2,0,0.3,0
			c3.7-0.4,7.5-0.5,11.3-0.5c2.6,0,5.1,0.1,7.7,0.2c1.3,0.1,2.5,0.2,3.8,0.3s2.5,0.3,3.8,0.4c-1.7,0.1-3.5,0.2-5.2,0.3
			c-0.2,0-0.3,0-0.5,0c-12.5,1-24.4,4-35.4,8.6c-2.1,0.8-4.2,1.8-6.2,2.8c-6.4,3.1-12.4,6.6-18.1,10.8c-1.1,0.8-2.2,1.6-3.3,2.4
			c-7.4,5.8-14.1,12.5-19.9,19.8c-0.1,0.2-0.3,0.3-0.4,0.5c-1,1.3-2,2.6-3,4c-0.1,0.1-0.2,0.3-0.3,0.5c-0.9,1.3-1.8,2.5-2.6,3.9
			c-0.3,0.4-0.5,0.8-0.8,1.2c-0.7,1.1-1.4,2.3-2.2,3.5c-0.1,0.2-0.2,0.3-0.3,0.5c-0.7,1.1-1.3,2.3-2,3.5c-0.1,0.2-0.2,0.3-0.3,0.5
			c-0.6,1.2-1.3,2.5-1.8,3.7c-0.1,0.1-0.2,0.3-0.2,0.5c-0.7,1.4-1.4,2.9-2,4.4c-0.2,0.4-0.3,0.8-0.5,1.2c-4.5,10.9-7.4,22.7-8.3,35
			c0,0.2,0,0.3,0,0.5c-0.1,1.1-0.1,2.1-0.2,3.2c0,0.2,0,0.3,0,0.5c0,0.9-0.1,1.7-0.1,2.6c0,0.2,0,0.3,0,0.5v1.5
			c0,4.1,0.2,8.1,0.6,12.1c0,0.2,0,0.5,0.1,0.6c1.6,14.4,5.9,28,12.3,40.4c-5.8,1.7-11.2,2.9-16.1,3.7
			C364.3,305.4,364.1,305.4,363.9,305.4z"/>
		<path class="st11" d="M551,345c-1.3,1.3-2.7,2.5-4.1,3.7c-0.1,0.1-0.1,0.1-0.2,0.1c-0.8,0.6-1.5,1.3-2.3,1.9l0,0
			c-0.7,0.6-1.4,1.2-2.2,1.7c-1.4,1.1-2.8,2.1-4.2,3.2c-1.4,1-2.9,2-4.4,3c-2.7,1.8-5.4,3.4-8.2,5c-0.1,0.1-0.3,0.2-0.4,0.2
			c-1.3,0.7-2.6,1.4-3.9,2l0,0c-0.4,0.2-0.8,0.4-1.2,0.6l0,0c-1.4,0.7-2.9,1.4-4.3,2c-0.2,0.1-0.3,0.1-0.5,0.2
			c-1.8,0.8-3.7,1.6-5.7,2.3l0,0c-0.2,0.1-0.3,0.1-0.5,0.2c-13.4,5-28,7.7-43.2,7.7s-29.8-2.7-43.3-7.8c-4.5-1.7-8.9-3.6-13.1-5.8
			c-2.7-1.4-5.3-2.8-7.8-4.4l0,0c-2.5-1.5-5.1-3.2-7.5-4.9c-1.6-1.1-3.2-2.4-4.8-3.6c-2.3-1.8-4.6-3.7-6.8-5.8
			c-1.5-1.3-2.9-2.7-4.3-4.1c-5.8-5.8-10.9-12.1-15.5-18.9c2.4-0.2,4.8-0.5,7.4-0.8c0.7-0.1,1.3-0.2,2-0.3c0.2,0,0.4-0.1,0.6-0.1
			c2.8-0.4,5.6-1,8.6-1.6c0.1,0,0.3,0,0.5-0.1c1.5-0.3,3.1-0.6,4.6-1c0.4-0.1,0.8-0.2,1.2-0.3c1.3-0.3,2.6-0.6,3.9-1
			c0.4,0.6,0.8,1.1,1.3,1.6c0.2,0.2,0.3,0.4,0.5,0.6c7.9,9.8,17.4,18.3,28.1,25.1c0.1,0.1,0.3,0.2,0.5,0.3c5,3.2,10.2,6,15.7,8.4
			c0.4,0.2,0.8,0.3,1.2,0.5c8.2,3.5,17,6.1,26.1,7.7c0.5,0.1,0.9,0.2,1.4,0.3c1.7,0.3,3.4,0.5,5.1,0.7l0,0c0.8,0.1,1.5,0.2,2.3,0.2
			c1.7,0.2,3.3,0.3,5,0.4c0.6,0,1.2,0.1,1.8,0.1c1.6,0.1,3.1,0.1,4.7,0.1c8.1,0,16-0.8,23.6-2.4c0.2,0,0.3,0,0.5-0.1
			c1.9-0.4,3.8-0.8,5.7-1.3c0.2,0,0.3-0.1,0.5-0.1c1.4-0.4,2.9-0.8,4.3-1.2c0.4-0.1,0.8-0.3,1.2-0.4c8.2-2.6,16-6,23.3-10.2
			c0.8-0.5,1.6-1,2.4-1.4c1.3-0.8,2.6-1.6,3.9-2.5C550.9,345,551,345,551,345z"/>
		<g>
			<g>
				<g>
					<circle class="st8" cx="365.9" cy="240.4" r="11.3"/>
				</g>
				<g>
					<circle class="st8" cx="379" cy="258.4" r="3.8"/>
				</g>
				<g>
					<circle class="st8" cx="467.9" cy="357.7" r="3.8"/>
				</g>
				<g>
					<circle class="st8" cx="417" cy="151.7" r="3.8"/>
				</g>
				<g>
					<circle class="st8" cx="383.9" cy="188" r="6.7"/>
				</g>
				<g>
					<circle class="st8" cx="379" cy="295.5" r="5"/>
				</g>
				<g>
					<circle class="st8" cx="409" cy="334.5" r="5.9"/>
				</g>
			</g>
		</g>
		<g>
			<g>
				<g>
					<circle class="st11" cx="365.9" cy="240.4" r="10"/>
				</g>
				<g>
					<circle class="st11" cx="379" cy="258.4" r="3.3"/>
				</g>
				<g>
					<circle class="st11" cx="467.9" cy="357.7" r="3.3"/>
				</g>
				<g>
					<circle class="st11" cx="417" cy="151.7" r="3.3"/>
				</g>
				<g>
					<circle class="st11" cx="383.9" cy="188" r="5.9"/>
				</g>
				<g>
					<circle class="st11" cx="379" cy="295.5" r="4.4"/>
				</g>
				<g>
					<circle class="st11" cx="409" cy="334.5" r="5.2"/>
				</g>
			</g>
		</g>
		<path class="st8" d="M436.1,276.9"/>
		<path class="st12" d="M442.5,237.9l-0.5,0.5l0.4-0.6C442.4,237.8,442.4,237.9,442.5,237.9z"/>
		<path class="st12" d="M524.7,297.7c-0.1,0-0.1,0.1-0.1,0.1v-0.2C524.6,297.6,524.6,297.7,524.7,297.7z"/>
		<polygon class="st12" points="530,207.2 529.9,207.2 529.9,207.2 		"/>
		<g>
			<path class="st9" d="M472.7,282.6c-1.8,1-3.6,2-5.4,2.9c-10.4,5.6-20.7,10.5-30.8,14.9c-28.4,12.3-54.7,19.5-74.5,21
				c-18.3,1.3-31.3-2.3-35.5-11.3c-4.7-9.9,1.8-24.7,16.2-41.3c0.1,1.1,0.3,2.1,0.4,3.2l0,0c0.1,0.9,0.3,1.8,0.4,2.8
				c-8.3,11.8-11.1,21.7-7,27.8c3,4.4,9.3,6.5,18.2,6.3c18.2-0.4,47.1-10,78.8-26.6c9-4.7,18.2-10,27.5-15.8l8.3,11.6L472.7,282.6z"
				/>
			<path class="st13" d="M465.7,272c-0.3-0.4-7.5,6.5-8.3,6.9c-23.5,14-50,24.4-75.9,30.8c-9.2,2.3-18.7,3.9-28.2,3.7
				c-7.6-0.1-16.1-1.9-20.3-8.9c-4.5-7.6-0.5-19.1,10.1-32.5c0.1,0.9,0.3,1.8,0.4,2.8c-8.3,11.8-11.1,21.7-7,27.8
				c3,4.4,9.3,6.5,18.2,6.3c18.2-0.4,47.1-10,78.8-26.6c9-4.7,18.2-10,27.5-15.8C461.1,266.3,465.7,272,465.7,272z"/>
			<polygon class="st8" points="460.6,293 455.8,294.1 454.3,294.8 443.1,273.1 444.6,272.3 446.5,271.2 448.5,269 			"/>
			
				<linearGradient id="SVGID_9_" gradientUnits="userSpaceOnUse" x1="444.6221" y1="371.5585" x2="460.5821" y2="371.5585" gradientTransform="matrix(1 0 0 1 0 -90.0085)">
				<stop  offset="1.619648e-06" style="stop-color:#6B6D70"/>
				<stop  offset="0.1419" style="stop-color:#787A7D"/>
				<stop  offset="0.4069" style="stop-color:#9C9D9F"/>
				<stop  offset="0.7635" style="stop-color:#D5D5D6"/>
				<stop  offset="1" style="stop-color:#FEFEFE"/>
			</linearGradient>
			<polygon class="st14" points="460.6,293 455.8,294.1 444.6,272.3 446.5,271.2 448.5,269 			"/>
			
				<linearGradient id="SVGID_10_" gradientUnits="userSpaceOnUse" x1="408.8371" y1="386.6463" x2="450.7366" y2="373.8363" gradientTransform="matrix(1 0 0 1 0 -90.0085)">
				<stop  offset="6.819570e-07" style="stop-color:#FFFFFF;stop-opacity:0.1"/>
				<stop  offset="1" style="stop-color:#FEFEFE"/>
			</linearGradient>
			<path class="st15" d="M446.3,279c0,0-6,4.6-21.1,10.6l18.4-2.8c0,0-17.8,8.7-33.7,13.5c0.5-0.2,27.1-4.5,42.3-11.5L446.3,279z"/>
			<path class="st8" d="M476,225.2v0.2c-0.4,2.5-0.7,5-0.9,7.5c-0.1,0.8-0.1,1.8-0.2,2.8v0.1c-1,1.5-1.9,3-2.9,4.5
				c-1.5,2.3-2.8,4.6-4.1,7c-0.9,1.6-1.8,3.3-2.7,4.9c-0.3,0.7-0.7,1.3-1.1,2c-0.6,0-1.1,0.1-1.7,0.2c-0.9,0.1-1.8,0.3-2.8,0.5
				c-1.8,0.4-3.7,0.9-5.3,1.4c-1.2,0.4-2.2,0.7-3,1.1c-5.5,2.3-9.1,3.8-12.7,5.7c-1.3,0.7-2.6,1.5-4,2.4c-1.3,0.8-2.6,1.8-4.1,2.8
				c-0.5,0.4-0.9,0.7-1.4,1c0.3-0.7,0.5-1.4,0.7-2c0-0.1,0-0.1,0.1-0.2c0.4-1.1,0.8-2.2,1.2-3.3c1.3-3.3,2.6-6.3,4-9.2
				c8.7-18.1,21.3-30.7,43.6-45.5C478.5,214,476.8,220.7,476,225.2z"/>
			
				<linearGradient id="SVGID_11_" gradientUnits="userSpaceOnUse" x1="429.2718" y1="329.2085" x2="478.8718" y2="329.2085" gradientTransform="matrix(1 0 0 1 0 -90.0085)">
				<stop  offset="0.3352" style="stop-color:#FEFEFE;stop-opacity:0"/>
				<stop  offset="0.5538" style="stop-color:#C3C4C5;stop-opacity:0.3288"/>
				<stop  offset="0.7572" style="stop-color:#939597;stop-opacity:0.6347"/>
				<stop  offset="0.912" style="stop-color:#76787B;stop-opacity:0.8676"/>
				<stop  offset="1" style="stop-color:#6B6D70"/>
			</linearGradient>
			<path class="st16" d="M476,225.2v0.2c-0.4,2.5-0.7,5-0.9,7.5c-0.1,0.8-0.1,1.8-0.2,2.8v0.1c-1,1.5-1.9,3-2.9,4.5
				c-1.5,2.3-2.8,4.6-4.1,7c-0.9,1.6-1.8,3.3-2.7,4.9c-0.3,0.7-0.7,1.3-1.1,2c-0.6,0-1.1,0.1-1.7,0.2c-0.9,0.1-1.8,0.3-2.8,0.5
				c-1.8,0.4-3.7,0.9-5.3,1.4c-1.2,0.4-2.2,0.7-3,1.1c-5.5,2.3-9.1,3.8-12.7,5.7c-1.3,0.7-2.6,1.5-4,2.4c-1.3,0.8-2.6,1.8-4.1,2.8
				c-0.5,0.4-0.9,0.7-1.4,1c0.3-0.7,0.5-1.4,0.7-2c0-0.1,0-0.1,0.1-0.2c0.4-1.1,0.8-2.2,1.2-3.3c1.3-3.3,2.6-6.3,4-9.2
				c8.7-18.1,21.3-30.7,43.6-45.5C478.5,214,476.8,220.7,476,225.2z"/>
			<path class="st17" d="M474.9,235.8c-4,5.9-7.6,12-10.7,18.4c-4.6,0.3-8.8,1.4-13,3.1c5.5-13.6,13.5-22.7,24.8-31.9
				C475.5,228.9,475,232.3,474.9,235.8z"/>
			<path class="st18" d="M485.3,250.4c-6.8-0.8-12.6,3.8-13.2,10.7c-0.6,6.9,4.1,12.5,10.9,13.3c2.4,0.3,4.7-0.1,6.6-1
				c1.1-0.7,2.2-1.4,3.3-2.2l0,0c2-1.9,3.3-4.5,3.5-7.5C497,256.7,492.1,251.2,485.3,250.4z"/>
			<path class="st18" d="M515.7,238c-3.6-0.4-6.7,1.8-7.1,5.5c-0.3,3.7,2.6,6.7,6.2,7.3c0.9,0.1,1.8,0.1,2.5-0.1l0,0
				c2.3-0.6,4.1-2.4,4.4-5v-0.4C522.1,241.4,519.3,238.4,515.7,238z M515,248.8c-2.6-0.4-4.6-2.5-4.3-5c0.2-2.6,2.3-4.2,4.9-3.8
				c2.5,0.3,4.5,2.4,4.3,5C519.7,247.5,517.5,249.1,515,248.8z"/>
			<path class="st8" d="M534.4,226.5c-0.3-0.6-0.6-1.1-0.9-1.7c-2.2-4.5-3.7-9.5-4.4-15c-1.1,0.1-2.2,0.3-3.3,0.4
				c-0.7,0.1-1.5,0.2-2.3,0.3c-15.5,2.1-33.6,10.1-48.4,22.3c-5.8,4.7-11,10-15.5,15.8l0,0v0.1c-0.8,1.1-1.6,2.1-2.4,3.3
				c-0.9,1.3-1.8,2.7-2.7,4.1c-0.1,0-0.1,0.1-0.1,0.1c-2.7,4.4-4.9,9-6.5,13.8c2,4.2,6.5,12.2,9.4,17.3c0.8,1.5,1.5,2.7,2,3.6
				c0.2,0.3,0.3,0.6,0.4,0.8c0.2,0.3,0.3,0.5,0.5,0.8c0,0,0.1,0.1,0.2,0.3c0.1,0.1,0.1,0.2,0.2,0.3c0,0,0,0,0.1,0.1
				c0.1,0,0.3,0.1,0.4,0.1c0.6,0.1,1.2,0.1,1.8,0.1c1.4,0.1,3.1,0,4.8-0.1c0.1,0,0.1,0,0.2,0c1.1-0.1,2.1-0.2,3.2-0.2
				c3-0.2,5.9-0.4,8-0.2h0.4l0,0l0,0c3.3,0.5,7.3,0,11.4-0.8h0.1c0.1,0,0.1,0,0.1,0c3.4-0.7,6.8-1.6,10-2.6c0.1,0,0.1,0,0.2-0.1
				c3.5-1.1,6.7-2.2,9.2-3c0.2-0.1,0.5-0.2,0.8-0.3c0.8-0.3,1.5-0.5,2-0.7c0.3-0.1,0.5-0.1,0.7-0.2l0,0h0.1c0.2-0.1,0.3-0.1,0.5-0.2
				s0.4-0.2,0.6-0.3c0.1,0,0.1,0,0.1,0c0.1,0,0.1-0.1,0.2-0.1c4.2-1.6,8.1-3.8,11.8-6.5c0-0.1,0.1-0.1,0.1-0.1
				c11-8.2,20-20.6,26.5-32.6C545.5,241.2,538.7,234.7,534.4,226.5z"/>
			<path class="st8" d="M530.5,290.4c-27.5,16.8-43.8,17.9-76.1,17.3c9.8-6.2,17-6.6,25.2-15l0,0c0.1-0.1,0.1-0.1,0.2-0.2
				c1.9-2,4.4-6.2,5.6-9c7.8-0.3,15.7-0.3,23.3-0.9c3.2,1.4,1.8,0.8,5.1,2.2c0.1,0,0.2,0.1,0.3,0.1l0,0l0,0l0.1,0.1
				c0.3,0.1,0.5,0.2,0.7,0.3c0.6,0.3,1.2,0.5,1.8,0.7C520.9,287.8,524.9,289,530.5,290.4z"/>
			<path class="st19" d="M567.1,210.8v0.1v0.4c0,0,0,0.1-0.1,0.1c0,0,0,0.2-0.1,0.3v0.1c0,0.1,0,0.1-0.1,0.2v0.1
				c0,0.1,0,0.2-0.1,0.3c0,0.1,0,0.1-0.1,0.2c0,0.4-0.1,0.9-0.3,1.3c-0.1,0.2-0.1,0.5-0.1,0.7c-0.1,0.2-0.1,0.3-0.1,0.5
				c0,0.1,0,0.3-0.1,0.5v0.1c-0.1,0.2-0.1,0.5-0.2,0.7c0,0.1,0,0.2-0.1,0.3c-0.2,1.2-0.6,2.3-0.9,3.4c-0.4,1.3-0.8,2.6-1.2,4
				c-1.9,6.2-5.9,15.5-7.8,18.6c-0.4-0.2-0.7-0.3-1.1-0.5c-0.1,0-0.1,0-0.2,0c-12.8-6.1-20.6-17.6-22.6-32.6
				c1.8-0.1,3.5-0.2,5.3-0.2c0.4,0,0.8-0.1,1.1,0c3.3-0.1,6.6-0.1,9.9-0.1c0.9,0,1.7,0,2.6,0c0.7,0,1.3,0,2,0.1
				c1.1,0.1,2.2,0.1,3.2,0.2c0.7,0,1.4,0.1,2.1,0.2C561.3,210,564.2,210.3,567.1,210.8z"/>
			
				<linearGradient id="SVGID_12_" gradientUnits="userSpaceOnUse" x1="539.6813" y1="293.5161" x2="565.3351" y2="325.1958" gradientTransform="matrix(1 0 0 1 0 -90.0085)">
				<stop  offset="0" style="stop-color:#F8931D;stop-opacity:0"/>
				<stop  offset="0.2677" style="stop-color:#F48225;stop-opacity:0.3028"/>
				<stop  offset="0.6144" style="stop-color:#EF722D;stop-opacity:0.6952"/>
				<stop  offset="0.8838" style="stop-color:#EE6C30"/>
			</linearGradient>
			<path class="st20" d="M567.1,210.8v0.1v0.4c0,0,0,0.1-0.1,0.1c0,0,0,0.2-0.1,0.3v0.1c0,0.1,0,0.1-0.1,0.2v0.1
				c0,0.1,0,0.2-0.1,0.3c0,0.1,0,0.1-0.1,0.2c0,0.4-0.1,0.9-0.3,1.3c-0.1,0.2-0.1,0.5-0.1,0.7c-0.1,0.2-0.1,0.3-0.1,0.5
				c0,0.1,0,0.3-0.1,0.5v0.1c-0.1,0.2-0.1,0.5-0.2,0.7c0,0.1,0,0.2-0.1,0.3c-0.2,1.2-0.6,2.3-0.9,3.4c-0.4,1.3-0.8,2.6-1.2,4
				c-1.9,6.2-5.9,15.5-7.8,18.6c-0.4-0.2-0.7-0.3-1.1-0.5c-0.1,0-0.1,0-0.2,0c-12.8-6.1-20.6-17.6-22.6-32.6
				c1.8-0.1,3.5-0.2,5.3-0.2c0.4,0,0.8-0.1,1.1,0c3.3-0.1,6.6-0.1,9.9-0.1c0.9,0,1.7,0,2.6,0c0.7,0,1.3,0,2,0.1
				c1.1,0.1,2.2,0.1,3.2,0.2c0.7,0,1.4,0.1,2.1,0.2C561.3,210,564.2,210.3,567.1,210.8z"/>
			
				<linearGradient id="SVGID_13_" gradientUnits="userSpaceOnUse" x1="454.4" y1="356.3676" x2="554.1" y2="356.3676" gradientTransform="matrix(1 0 0 1 0 -90.0085)">
				<stop  offset="1.619648e-06" style="stop-color:#6B6D70"/>
				<stop  offset="0.1419" style="stop-color:#787A7D"/>
				<stop  offset="0.4069" style="stop-color:#9C9D9F"/>
				<stop  offset="0.7635" style="stop-color:#D5D5D6"/>
				<stop  offset="1" style="stop-color:#FEFEFE"/>
			</linearGradient>
			<path class="st21" d="M514.7,284.9c-0.1,0.1-0.3,0.2-0.4,0.3c0.3,0.1,0.5,0.2,0.7,0.3c0.6,0.3,1.2,0.5,1.8,0.7
				c4.1,1.6,8.1,2.8,13.7,4.3c-27.5,16.8-43.8,17.9-76.1,17.3c9.8-6.2,17-6.6,25.2-15h-0.4c-2.2-0.2-5.1,0-8,0.2
				c-1.1,0.1-2.2,0.2-3.2,0.2c-0.1,0-0.1,0-0.2,0c-1.7,0.1-3.3,0.2-4.8,0.1c-0.6,0-1.2,0-1.8-0.1c-0.1,0-0.3,0-0.4-0.1
				c0,0,0-0.1-0.1-0.1c-0.1-0.1-0.1-0.3-0.2-0.3c34.2-8,61.8-34,73-67.9c0.3,0.6,0.6,1.1,0.9,1.7c4.4,8.2,11.2,14.6,19.7,18.8
				c-6.5,12-15.5,24.5-26.5,32.6c-0.1,0-0.1,0-0.1,0.1c-3.7,2.7-7.6,5-11.8,6.5c-0.1,0-0.1,0.1-0.2,0.1h-0.1
				C515.1,284.7,514.9,284.8,514.7,284.9z"/>
			<path class="st22" d="M516.8,286.2c0.3,0.1,0.6,0.3,0.9,0.4c-8.8,2.9-17.5,4.6-26.5,5.5c0,0,0,0-0.1,0c-2.3,0.3-4.7,0.4-7.1,0.6
				c6-0.6,11.7-1.7,17.2-3.2c0.1,0,0.1,0,0.2-0.1c3.1-0.8,6.2-1.8,9.2-3c0.2-0.1,0.5-0.2,0.8-0.3c0.8-0.3,1.6-0.7,2.5-1
				c1.9-0.8,3.9-1.7,5.8-2.7c-1.4,0.8-2.9,1.6-4.4,2.4c-0.2,0.1-0.4,0.2-0.6,0.3c-0.1,0.1-0.3,0.2-0.4,0.3c0.3,0.1,0.5,0.2,0.7,0.3
				C515.6,285.7,516.2,285.9,516.8,286.2z"/>
			<circle class="st23" cx="483.7" cy="263.5" r="11.8"/>
			<circle class="st19" cx="483.7" cy="263.5" r="8.4"/>
			
				<linearGradient id="SVGID_14_" gradientUnits="userSpaceOnUse" x1="489.5552" y1="359.5715" x2="477.8708" y2="347.4724" gradientTransform="matrix(1 0 0 1 0 -90.0085)">
				<stop  offset="0.1162" style="stop-color:#EE6C30"/>
				<stop  offset="0.3856" style="stop-color:#EF722D;stop-opacity:0.6952"/>
				<stop  offset="0.7323" style="stop-color:#F48225;stop-opacity:0.3028"/>
				<stop  offset="1" style="stop-color:#F8931D;stop-opacity:0"/>
			</linearGradient>
			<circle class="st24" cx="483.7" cy="263.5" r="8.4"/>
			<circle class="st23" cx="514.2" cy="243.1" r="8.3"/>
			
				<ellipse transform="matrix(0.1602 -0.9871 0.9871 0.1602 191.8734 711.7202)" class="st19" cx="514.2" cy="243.1" rx="5.9" ry="5.9"/>
			
				<linearGradient id="SVGID_15_" gradientUnits="userSpaceOnUse" x1="508.3221" y1="333.1085" x2="520.0621" y2="333.1085" gradientTransform="matrix(1 0 0 1 0 -90.0085)">
				<stop  offset="0" style="stop-color:#F8931D;stop-opacity:0"/>
				<stop  offset="0.2677" style="stop-color:#F48225;stop-opacity:0.3028"/>
				<stop  offset="0.6144" style="stop-color:#EF722D;stop-opacity:0.6952"/>
				<stop  offset="0.8838" style="stop-color:#EE6C30"/>
			</linearGradient>
			<circle class="st25" cx="514.2" cy="243.1" r="5.9"/>
			<g>
				<g>
					<path class="st26" d="M475.1,232.8c0.1-2,0.3-4,0.5-6s0.6-4,1-6s0.7-4,1.1-6c0.3-2,0.6-4,0.7-6l0.7,0.4
						c-5.3,3.6-10.5,7.5-15.5,11.5c-5,4.1-9.7,8.4-13.9,13.2c-4.2,4.8-8,10-11.1,15.6c-0.8,1.4-1.5,2.8-2.3,4.2
						c-0.7,1.4-1.4,2.9-2.1,4.3c-1.3,2.9-2.5,5.9-3.6,8.9l-0.1,0.1c0,0,0-0.1,0,0v0.1v0.1l-0.8,2l-0.7-0.5l1.4-1l1.5-1
						c1-0.6,2-1.4,3-2c2.1-1.2,4.1-2.4,6.3-3.4c2.2-1,4.4-1.9,6.6-2.8l3.3-1.3c1.1-0.4,2.3-0.7,3.4-1.1c-1.1,0.4-2.2,0.8-3.3,1.3
						l-3.3,1.4c-2.2,1-4.3,1.9-6.4,3c-2.1,1-4.1,2.3-6.1,3.5c-1,0.6-1.9,1.3-2.9,2l-1.4,1l-1.4,1.1l-1.3,1l0.5-1.5l0.7-2.1v0.1
						c0-0.1,0-0.3,0.1-0.4l-0.1,0.1c1.1-3.1,2.2-6.1,3.5-9.1c0.7-1.5,1.3-3,2.1-4.4c0.7-1.5,1.4-2.9,2.3-4.3
						c3.1-5.7,6.9-11,11.2-15.9c4.3-4.9,9.2-9.2,14.2-13.3s10.4-7.7,15.8-11.3l0.8-0.5l-0.1,0.9c-0.3,4.1-1.3,8-2.1,12
						c-0.4,2-0.9,3.9-1.2,5.9C475.6,228.8,475.3,230.8,475.1,232.8z"/>
				</g>
				<g>
					<path class="st26" d="M514.2,285.1c0.2-0.1,0.3-0.1,0.4-0.3l0,0c0.2-0.1,0.4-0.2,0.6-0.3l0,0l0,0c0.1,0,0.1,0,0.1,0l0,0l0,0
						c2.1-0.9,4.2-1.9,6.2-3s3.9-2.4,5.7-3.8l-0.1,0.1c0,0,0.1-0.1,0.2-0.2h0.1l0,0c5.6-4.3,10.4-9.4,14.7-15c2.2-2.8,4.2-5.7,6-8.6
						c1.9-3,3.7-6,5.3-9.1l0.3,0.9c-3.4-1.7-6.7-3.7-9.6-6.2c-2.9-2.5-5.5-5.3-7.7-8.4c-2.2-3.1-3.9-6.6-5.3-10.2
						c-1.3-3.6-2.2-7.3-2.7-11.1l0.7,0.5c-4.9,0.5-9.8,1.3-14.6,2.5s-9.4,2.9-14,4.8c-9.1,3.9-17.7,9-25.5,15.1
						c3.8-3.2,7.8-6.1,12-8.8s8.6-5,13.1-7.1s9.2-3.8,14.1-5.1c2.4-0.6,4.9-1.2,7.3-1.6l3.7-0.6l3.7-0.5l0.6-0.1l0.1,0.6
						c0.5,3.7,1.4,7.3,2.7,10.8s3.1,6.8,5.1,9.8c2.1,3,4.6,5.8,7.4,8.2c2.8,2.4,6,4.4,9.3,6.1l0.6,0.3l-0.3,0.6
						c-3.4,6.2-7.3,12.2-11.7,17.7s-9.4,10.7-15.2,14.8l0,0l0,0h-0.1l0.1-0.1l-0.1,0.1c-1.9,1.3-3.8,2.5-5.8,3.6
						c-1,0.5-2,1.1-3.1,1.5c-1.1,0.5-2.1,0.9-3.2,1.3l0,0c-0.1,0-0.1,0-0.2,0l0,0c-0.2,0.1-0.4,0.2-0.6,0.3l0,0
						C514.5,285,514.4,285,514.2,285.1z"/>
				</g>
				<g>
					<path class="st26" d="M479.1,292.7h0.4l0,0l0,0c-1.7,1.8-3.5,3.5-5.5,4.9s-4.2,2.6-6.4,3.8s-4.4,2.1-6.6,3.2s-4.3,2.3-6.4,3.6
						l-0.3-1c6.6,0,13.2,0.1,19.8-0.2c6.6-0.3,13.2-0.9,19.6-2.1c6.5-1.2,12.8-3.2,18.8-5.8c6.1-2.6,11.9-5.6,17.6-9l0.1,0.7
						c-2.8-0.8-5.5-1.6-8.2-2.5s-5.4-2-7.9-3.2c2.7,1,5.3,2,8.1,2.8c2.7,0.8,5.5,1.5,8.3,2.2l0.8,0.2l-0.7,0.5
						c-5.6,3.5-11.4,6.8-17.5,9.5c-6.1,2.7-12.5,4.8-19,6.1c-6.6,1.3-13.2,1.8-19.8,2c-6.6,0.2-13.3,0.1-19.9-0.1h-1.7l1.5-0.9
						c2.1-1.3,4.3-2.5,6.5-3.5s4.5-2,6.7-3s4.4-2.1,6.4-3.5c2-1.3,3.9-2.9,5.7-4.6l0,0L479.1,292.7z"/>
				</g>
				<g>
					<path class="st26" d="M454.4,256.2c-1.2,2.2-2.3,4.5-3.3,6.8s-1.9,4.7-2.7,7.1v-0.4c1.9,3.6,3.9,7.2,5.9,10.8l3,5.4
						c1,1.8,2,3.6,3,5.5v-0.1l0.5,0.8l-0.1-0.1c0.1,0.1,0.2,0.3,0.3,0.4l0.2,0.4l-0.5-0.3c0.1,0,0.3,0,0.4,0.2
						c0.1,0.1,0.1,0.1,0.1,0.1s0,0-0.1-0.1l-0.3-0.2c0.1,0,0.2,0,0.3,0h0.1l1.6,0.1c0.6,0,1.1,0.1,1.6,0.1c1.1,0,2.2,0,3.3-0.1h0.2
						c-0.2-0.1-0.2,0-0.1,0h0.2h0.4h0.7l1.4-0.1c0.9,0,1.9-0.1,2.9-0.1c1.9,0,3.8,0,5.7,0.2c-1.9-0.1-3.8,0.1-5.7,0.3l-2.8,0.3
						l-1.4,0.1l-0.7,0.1h-0.4h-0.2c0,0-0.1,0.1-0.4,0h0.2c-1.1,0.1-2.2,0.2-3.3,0.3c-1.1,0-2.2,0-3.4-0.1h0.1l-0.5-0.1h-0.2
						l-0.2-0.1c-0.1-0.1-0.1-0.1-0.1-0.1s0,0,0.1,0.1s0.3,0.1,0.4,0.1l-0.5-0.3l-0.2-0.3l-0.2-0.2l-0.1-0.1l0,0l-0.5-0.8l0,0l0,0
						c-0.5-0.9-1-1.8-1.5-2.7l-1.5-2.7c-1-1.8-2.1-3.6-3.1-5.4s-2-3.6-3-5.4c-0.9-1.8-1.9-3.7-2.8-5.6l-0.1-0.2l0.1-0.2
						c0.9-2.4,1.9-4.8,3.1-7C451.6,260.5,452.9,258.3,454.4,256.2z"/>
				</g>
			</g>
		</g>
		<path class="st9" d="M264.2,446.4c15.9-29.1,32.5-57.9,48.6-86.9c-1.8,1.1-2.7,3.1-3.9,4.7c-12.9,18-25.8,36-38.6,54
			c-6.5,9.4-13.6,18.6-19.6,28.3c6.6,9.5,13.5,18.9,20.2,28.4c0.3,0.5,0.8,1.7,1.1,2.2c-4.9-0.1-9.8,0.1-14.7-0.1
			c-3.9-5.7-8.1-11.3-12-16.9c-0.7-1-1.5-2-2.6-2.7c-18.1,25.8-36.8,51.2-54.8,77c3.5-2.5,6.1-6.2,9.2-9.2
			c15.2-16.2,30.6-32.4,45.7-48.7c3.4,3.2,5.6,7.3,8.3,11c14.1,0.3,28.2,0.1,42.3,0.1c-1.1-2.7-3.1-4.8-4.7-7.1
			C280.4,469,272.3,457.7,264.2,446.4z"/>
		
			<linearGradient id="SVGID_16_" gradientUnits="userSpaceOnUse" x1="166.2211" y1="570.8987" x2="334.4789" y2="502.9183" gradientTransform="matrix(1 0 0 1 0 -90.0085)">
			<stop  offset="0" style="stop-color:#F8931D;stop-opacity:0"/>
			<stop  offset="0.1765" style="stop-color:#F68922;stop-opacity:0.2273"/>
			<stop  offset="0.7765" style="stop-color:#EE6C30"/>
		</linearGradient>
		<path class="st27" d="M288.5,480.4c1.6,2.4,4.7,7.1,4.7,7.1s-28.2,0.2-42.3-0.1l-1-1.4c-1.8-2.6-3.4-5.3-5.5-7.7
			c-0.6-0.7-1.2-1.3-1.8-1.9c-15.1,16.3-30.5,32.4-45.7,48.7c-3.1,3-5.6,6.7-9.1,9.2c15.9-22.7,32.3-45.1,48.3-67.7
			c2.2-3.1,4.4-6.2,6.6-9.3c1.1,0.7,1.9,1.7,2.6,2.7c3.9,5.7,8.1,11.3,12,17c4.9,0.2,9.8,0,14.7,0.1c-0.3-0.6-0.8-1.7-1.1-2.2
			c-6.8-9.4-13.6-18.8-20.2-28.4c6.1-9.6,13.2-18.9,19.7-28.3c12.9-18,25.8-36,38.6-54c1.2-1.6,2.1-3.6,3.9-4.7
			c-16.1,29-32.7,57.9-48.6,86.9C272.3,457.7,280.4,469.1,288.5,480.4z"/>
		<path class="st9" d="M235.1,446.4c-6.6-9.5-13.5-19.2-20.3-28.7c-0.3-0.5-0.8-1.6-1.1-2.2c4.9,0.1,9.8-0.1,14.7,0.1
			c3.9,5.7,8.1,11.3,12,16.9c0.7,1,1.5,2,2.6,2.7c18.1-25.8,36.8-51.2,54.8-77c-3.5,2.5-6.1,6.2-9.2,9.2
			c-15.2,16.2-30.6,32.4-45.7,48.7c-3.4-3.1-5.6-7.3-8.3-11c-14.1-0.3-28.2-0.1-42.3-0.1c1.1,2.6,3.1,4.8,4.7,7.1
			c8.1,11.4,16.3,22.8,24.4,34.2c-15.9,29.1-32.6,57.8-48.7,86.8c1.8-1.1,2.7-3.1,3.9-4.7c12.9-18,25.8-36,38.6-54
			C221.9,465,229,456,235.1,446.4z"/>
		
			<linearGradient id="SVGID_17_" gradientUnits="userSpaceOnUse" x1="152.0432" y1="565.9796" x2="318.6568" y2="505.3373" gradientTransform="matrix(1 0 0 1 0 -90.0085)">
			<stop  offset="0.2235" style="stop-color:#EE6C30"/>
			<stop  offset="0.8235" style="stop-color:#F68922;stop-opacity:0.2273"/>
			<stop  offset="1" style="stop-color:#F8931D;stop-opacity:0"/>
		</linearGradient>
		<path class="st28" d="M297.9,358.3c-15.9,22.7-32.2,45-48.3,67.6c-2.2,3.1-4.4,6.2-6.6,9.3c-1.1-0.7-1.9-1.7-2.6-2.7
			c-3.9-5.7-8.1-11.3-12-16.9c-4.9-0.2-9.8-0.1-14.7-0.1c0.3,0.6,0.8,1.6,1.1,2.2c6.8,9.4,13.6,19.1,20.2,28.6
			c-6.1,9.6-13.2,18.6-19.7,28c-12.9,18-25.8,36-38.6,54c-1.2,1.6-2.1,3.6-3.9,4.7c16.1-29,32.8-57.7,48.7-86.8
			c-8.1-11.3-16.3-22.8-24.5-34.2c-1.6-2.4-3.6-4.5-4.7-7.1c14.1,0.1,28.2-0.2,42.3,0.1l1,1.4c1.9,2.7,3.5,5.5,5.7,7.9
			c0.5,0.6,1,1.2,1.6,1.7c15.1-16.3,30.5-32.4,45.7-48.7C291.9,364.4,294.4,360.8,297.9,358.3z"/>
		<path class="st13" d="M297.9,358.3c-15.7,22.4-31.8,44.4-47.6,66.7c-0.2,0.3-0.4,0.6-0.6,0.9l-6.9-9.6c0.1-0.1,0.2-0.1,0.2-0.2
			l0,0c0.6-0.7,1.3-1.4,2-2.1c14.5-15.6,29.2-31,43.8-46.5C291.9,364.4,294.4,360.8,297.9,358.3z"/>
		<path class="st29" d="M250.3,425c-0.2,0.3-0.4,0.6-0.6,0.9l-6.9-9.6c0.1-0.1,0.2-0.1,0.2-0.2l0,0c0.6-0.7,1.3-1.4,2-2.1L250.3,425
			z"/>
		<path class="st13" d="M242.9,476.1c-0.1,0.1-0.1,0.1-0.2,0.2c0,0-0.1,0.1-0.1,0.2v-0.1c-0.9,1-1.8,1.9-2.7,2.9
			c-14.2,15.3-28.7,30.5-43,45.8c-3.1,3-5.6,6.7-9.1,9.2c15.5-22.1,31.4-43.9,47-65.9c0.4-0.6,0.8-1.2,1.3-1.8L242.9,476.1z"/>
		<path class="st29" d="M242.9,476.1c-0.1,0.1-0.1,0.1-0.2,0.2c0,0-0.1,0.1-0.1,0.2v-0.1c-0.9,1-1.8,1.9-2.7,2.9l-5.2-11
			c0.4-0.6,0.8-1.2,1.3-1.8L242.9,476.1z"/>
		
			<radialGradient id="SVGID_18_" cx="404.9" cy="293.7628" r="13.276" gradientTransform="matrix(1 0 0 1 0 -90.0085)" gradientUnits="userSpaceOnUse">
			<stop  offset="0" style="stop-color:#FFFFFF"/>
			<stop  offset="0.781" style="stop-color:#FFFFFF;stop-opacity:0"/>
		</radialGradient>
		<circle class="st30" cx="404.9" cy="203.8" r="13.3"/>
		
			<radialGradient id="SVGID_19_" cx="417.5521" cy="329.1085" r="15.424" gradientTransform="matrix(1 0 0 1 0 -90.0085)" gradientUnits="userSpaceOnUse">
			<stop  offset="0" style="stop-color:#FFFFFF"/>
			<stop  offset="0.781" style="stop-color:#FFFFFF;stop-opacity:0"/>
		</radialGradient>
		<circle class="st31" cx="417.6" cy="239.1" r="15.4"/>
		
			<radialGradient id="SVGID_20_" cx="460.9321" cy="403.0085" r="15.4072" gradientTransform="matrix(1 0 0 1 0 -90.0085)" gradientUnits="userSpaceOnUse">
			<stop  offset="0" style="stop-color:#FFFFFF"/>
			<stop  offset="0.781" style="stop-color:#FFFFFF;stop-opacity:0"/>
		</radialGradient>
		<circle class="st32" cx="460.9" cy="313" r="15.4"/>
		
			<radialGradient id="SVGID_21_" cx="520.9421" cy="428.3529" r="15.42" gradientTransform="matrix(1 0 0 1 0 -90.0085)" gradientUnits="userSpaceOnUse">
			<stop  offset="0" style="stop-color:#FFFFFF"/>
			<stop  offset="0.781" style="stop-color:#FFFFFF;stop-opacity:0"/>
		</radialGradient>
		<circle class="st33" cx="520.9" cy="338.3" r="15.4"/>
		
			<radialGradient id="SVGID_22_" cx="534.7" cy="380.2729" r="15.4178" gradientTransform="matrix(1 0 0 1 0 -90.0085)" gradientUnits="userSpaceOnUse">
			<stop  offset="0" style="stop-color:#FFFFFF"/>
			<stop  offset="0.781" style="stop-color:#FFFFFF;stop-opacity:0"/>
		</radialGradient>
		<circle class="st34" cx="534.7" cy="290.3" r="15.4"/>
		
			<radialGradient id="SVGID_23_" cx="480.9" cy="296.4629" r="15.4228" gradientTransform="matrix(1 0 0 1 0 -90.0085)" gradientUnits="userSpaceOnUse">
			<stop  offset="0" style="stop-color:#FFFFFF"/>
			<stop  offset="0.781" style="stop-color:#FFFFFF;stop-opacity:0"/>
		</radialGradient>
		<circle class="st35" cx="480.9" cy="206.5" r="15.4"/>
		
			<radialGradient id="SVGID_24_" cx="530.7" cy="266.9085" r="15.4183" gradientTransform="matrix(1 0 0 1 0 -90.0085)" gradientUnits="userSpaceOnUse">
			<stop  offset="0" style="stop-color:#FFFFFF"/>
			<stop  offset="0.781" style="stop-color:#FFFFFF;stop-opacity:0"/>
		</radialGradient>
		<circle class="st36" cx="530.7" cy="176.9" r="15.4"/>
		
			<radialGradient id="SVGID_25_" cx="486.9" cy="348.5085" r="15.4232" gradientTransform="matrix(1 0 0 1 0 -90.0085)" gradientUnits="userSpaceOnUse">
			<stop  offset="0" style="stop-color:#FFFFFF"/>
			<stop  offset="0.781" style="stop-color:#FFFFFF;stop-opacity:0"/>
		</radialGradient>
		<circle class="st37" cx="486.9" cy="258.5" r="15.4"/>
	</g>
</g>
</svg>
